<?xml version="1.0" encoding="utf-8"?>
<!-- Generator: Adobe Illustrator 22.1.0, SVG Export Plug-In . SVG Version: 6.00 Build 0)  -->
<svg version="1.1" id="Layer_1" xmlns="http://www.w3.org/2000/svg" xmlns:xlink="http://www.w3.org/1999/xlink" x="0px" y="0px"
	 viewBox="0 0 27.9 33" style="enable-background:new 0 0 27.9 33;" xml:space="preserve">
<style type="text/css">
	.st0{fill:none;}
</style>
<title>address</title>
<g>
	<rect x="15.2" y="4" class="st0" width="2.5" height="2.5"/>
	<rect x="20.1" y="18.8" class="st0" width="2.5" height="2.5"/>
	<rect x="15.2" y="8.9" class="st0" width="2.5" height="2.5"/>
	<rect x="15.2" y="13.9" class="st0" width="2.5" height="2.5"/>
	<rect x="5.3" y="4" class="st0" width="2.5" height="2.5"/>
	<rect x="20.1" y="4" class="st0" width="2.5" height="2.5"/>
	<rect x="20.1" y="13.9" class="st0" width="2.5" height="2.5"/>
	<rect x="20.1" y="8.9" class="st0" width="2.5" height="2.5"/>
	<rect x="10.2" y="13.9" class="st0" width="2.5" height="2.5"/>
	<rect x="15.2" y="18.8" class="st0" width="2.5" height="2.5"/>
	<rect x="5.3" y="8.9" class="st0" width="2.5" height="2.5"/>
	<rect x="10.2" y="4" class="st0" width="2.5" height="2.5"/>
	<rect x="5.3" y="18.7" class="st0" width="2.5" height="2.5"/>
	<rect x="5.3" y="13.8" class="st0" width="2.5" height="2.5"/>
	<rect x="10.2" y="18.8" class="st0" width="2.5" height="2.5"/>
	<rect x="10.2" y="8.9" class="st0" width="2.5" height="2.5"/>
	<path d="M24.9,30.8V0h-22v30.8H0V33h2.9h2h5h2v-2.2V26h4v4.8V33h2h5h2h3v-2.2H24.9z M20.1,4h2.5v2.5h-2.5V4z M20.1,8.9h2.5v2.5
		h-2.5V8.9z M20.1,13.9h2.5v2.5h-2.5V13.9z M20.1,18.8h2.5v2.5h-2.5V18.8z M15.2,4h2.5v2.5h-2.5V4z M15.2,8.9h2.5v2.5h-2.5V8.9z
		 M15.2,13.9h2.5v2.5h-2.5V13.9z M5.3,4h2.5v2.5H5.3V4z M5.3,8.9h2.5v2.5H5.3V8.9z M5.3,13.8h2.5v2.5H5.3V13.8z M5.3,18.7h2.5v2.5
		H5.3V18.7z M12.7,21.3h-2.5v-2.5h2.5V21.3z M12.7,16.4h-2.5v-2.5h2.5V16.4z M12.7,11.4h-2.5V8.9h2.5V11.4z M12.7,6.5h-2.5V4h2.5
		V6.5z M15.2,21.3v-2.5h2.5v2.5H15.2z"/>
</g>
</svg>
