<svg xmlns="http://www.w3.org/2000/svg" viewBox="0 0 174.57 38.36">
  <defs>
    <style>
      .cls-1 {
        fill: #fff;
      }

      .cls-2 {
        fill: #898c8e;
      }
    </style>
  </defs>
  <title>footer-logo</title>
  <g id="Layer_2" data-name="Layer 2">
    <g id="Layer_1-2" data-name="Layer 1">
      <g>
        <g>
          <path class="cls-1" d="M32,0,29.14,9.72h-.45c.15-5.81-2.05-8.67-6.81-9.32L22,0Z"/>
          <path class="cls-1" d="M.45,9.72H0L3.2,0H12l-.1.4A20,20,0,0,0,.45,9.72Z"/>
          <path class="cls-1" d="M20.08,0,12.92,25.09a11.81,11.81,0,0,0-.6,3.3c0,1.71,1.5,2.61,3.5,2.76l-.15.4H.8l.15-.4c3.16-.35,4.66-1.91,5.91-6.26L13.92,0Z"/>
        </g>
        <g>
          <path class="cls-2" d="M22.2,34.15a19.76,19.76,0,0,1,1.3-5.35h-.45c-2.3,3.85-5.16,8.16-10.26,8.76l-.15.4H25.76l.15-.4C23.75,37.21,22.2,36.11,22.2,34.15Z"/>
          <path class="cls-2" d="M53.3,6.41,46.19,31.3c-1.3,4.36-2.71,5.91-5.86,6.26l-.15.4H55l.15-.4c-2-.15-3.5-1.05-3.5-2.76a11.81,11.81,0,0,1,.6-3.3L57.5,13.07c1.26-4.36,2.56-5.91,5.91-6.26l.15-.4Z"/>
          <polygon class="cls-2" points="35.6 8.98 31.52 23.26 34.02 38.36 34.22 38.36 38.98 31.4 35.6 8.98"/>
        </g>
        <g>
          <g>
            <path class="cls-1" d="M71.06,13.72v5.77H69.13V13.72H67.55V12.09h5.09v1.63Z"/>
            <path class="cls-1" d="M83,19.49H80.6l-1.84-2.85v2.85H76.84v-7.4h3a2.94,2.94,0,0,1,1.08.18,2.06,2.06,0,0,1,.76.5,2.08,2.08,0,0,1,.45.72,2.6,2.6,0,0,1,.16.89,2.14,2.14,0,0,1-.41,1.36,2.08,2.08,0,0,1-1.2.72ZM78.76,15.4h.37a1.37,1.37,0,0,0,.87-.24.91.91,0,0,0,0-1.35,1.37,1.37,0,0,0-.87-.24h-.37Z"/>
            <path class="cls-1" d="M89.44,12.09v4c0,.22,0,.44,0,.66a2,2,0,0,0,.15.62,1,1,0,0,0,.39.44,1.61,1.61,0,0,0,1.48,0,1,1,0,0,0,.39-.44,1.57,1.57,0,0,0,.15-.62q0-.33,0-.66v-4H94v4.29a3.45,3.45,0,0,1-.79,2.52,4.13,4.13,0,0,1-4.86,0,3.45,3.45,0,0,1-.79-2.52V12.09Z"/>
            <path class="cls-1" d="M102.66,13.72h-2.28V15h2.15v1.62h-2.15v1.28h2.28v1.63H98.45v-7.4h4.21Z"/>
            <path class="cls-1" d="M107.74,19.49l1.26-7.4h1.9L112.38,16l1.47-3.94h1.91l1.25,7.4H115.1l-.64-4.26-1.74,4.26H112l-1.65-4.26-.64,4.26Z"/>
            <path class="cls-1" d="M125.57,18.2h-2.74l-.45,1.29h-2l2.81-7.4h2.1l2.81,7.4h-2Zm-.51-1.46-.86-2.46-.86,2.46Z"/>
            <path class="cls-1" d="M138.09,19.49H135.7l-1.83-2.85v2.85H132v-7.4h3a3,3,0,0,1,1.08.18,2.14,2.14,0,0,1,.76.5,2.08,2.08,0,0,1,.45.72,2.6,2.6,0,0,1,.15.89,2.14,2.14,0,0,1-.41,1.36,2.08,2.08,0,0,1-1.2.72Zm-4.22-4.09h.36a1.37,1.37,0,0,0,.87-.24.89.89,0,0,0,0-1.35,1.37,1.37,0,0,0-.87-.24h-.36Z"/>
            <path class="cls-1" d="M144.31,15.14l2.34-3.05H149l-2.93,3.5,3.21,3.9h-2.49l-2.5-3.21v3.21h-1.93v-7.4h1.93Z"/>
          </g>
          <g>
            <path class="cls-1" d="M69.48,26.77v7.39H67.55V26.77Z"/>
            <path class="cls-1" d="M75.16,34.16V26.77h1.92l3.55,4.52V26.77h1.91v7.39H80.63l-3.55-4.52v4.52Z"/>
            <path class="cls-1" d="M87.39,26.77l1.79,4.5L91,26.77h2.09l-3.12,7.39H88.41L85.3,26.77Z"/>
            <path class="cls-1" d="M101.62,28.4H99.33v1.23h2.16v1.63H99.33v1.28h2.29v1.62H97.41V26.77h4.21Z"/>
            <path class="cls-1" d="M111.51,28.66a2.3,2.3,0,0,0-.63-.37,1.52,1.52,0,0,0-.61-.13,1,1,0,0,0-.61.18.56.56,0,0,0-.23.46.44.44,0,0,0,.12.32.87.87,0,0,0,.3.22,2.52,2.52,0,0,0,.44.17l.47.14a3,3,0,0,1,1.38.84,2.09,2.09,0,0,1,.44,1.37,2.63,2.63,0,0,1-.2,1,2.09,2.09,0,0,1-.55.79,2.6,2.6,0,0,1-.91.51,3.76,3.76,0,0,1-1.21.18,4.51,4.51,0,0,1-2.6-.83l.83-1.55a3.72,3.72,0,0,0,.85.57,2.11,2.11,0,0,0,.83.18,1,1,0,0,0,.71-.21.68.68,0,0,0,.23-.49.65.65,0,0,0-.06-.29.7.7,0,0,0-.2-.23,1.49,1.49,0,0,0-.36-.19l-.53-.2a6.34,6.34,0,0,1-.73-.26,2.38,2.38,0,0,1-.64-.37,1.69,1.69,0,0,1-.45-.6,2,2,0,0,1-.17-.9,2.66,2.66,0,0,1,.18-1,2.12,2.12,0,0,1,.51-.76,2.26,2.26,0,0,1,.8-.5,3,3,0,0,1,1.07-.18,4.67,4.67,0,0,1,1.14.16,5.16,5.16,0,0,1,1.15.44Z"/>
            <path class="cls-1" d="M120.14,28.4v5.76h-1.92V28.4h-1.58V26.77h5.08V28.4Z"/>
            <path class="cls-1" d="M124.88,34.16l1.25-7.39H128l1.48,3.94L131,26.77h1.9l1.25,7.39h-1.91l-.64-4.25-1.74,4.25h-.77l-1.65-4.25-.64,4.25Z"/>
            <path class="cls-1" d="M143,28.4h-2.29v1.23h2.16v1.63h-2.16v1.28H143v1.62h-4.21V26.77H143Z"/>
            <path class="cls-1" d="M147.48,34.16V26.77h1.92L153,31.29V26.77h1.92v7.39H153l-3.55-4.52v4.52Z"/>
            <path class="cls-1" d="M162.47,28.4v5.76h-1.93V28.4H159V26.77h5.08V28.4Z"/>
            <path class="cls-1" d="M173.5,28.66a2.3,2.3,0,0,0-.63-.37,1.52,1.52,0,0,0-.61-.13,1,1,0,0,0-.6.18.55.55,0,0,0-.24.46.44.44,0,0,0,.12.32.91.91,0,0,0,.31.22,2.41,2.41,0,0,0,.43.17l.47.14a3,3,0,0,1,1.38.84,2.09,2.09,0,0,1,.44,1.37,2.63,2.63,0,0,1-.19,1,2.23,2.23,0,0,1-.56.79,2.64,2.64,0,0,1-.9.51,3.8,3.8,0,0,1-1.21.18,4.47,4.47,0,0,1-2.6-.83l.82-1.55a3.72,3.72,0,0,0,.85.57,2.12,2.12,0,0,0,.84.18,1,1,0,0,0,.7-.21.68.68,0,0,0,.23-.49.65.65,0,0,0-.06-.29.6.6,0,0,0-.2-.23,1.62,1.62,0,0,0-.35-.19l-.54-.2a6.34,6.34,0,0,1-.73-.26,2.38,2.38,0,0,1-.64-.37,2,2,0,0,1-.45-.6,2.12,2.12,0,0,1-.17-.9,2.66,2.66,0,0,1,.18-1,2.12,2.12,0,0,1,.51-.76,2.22,2.22,0,0,1,.81-.5,3,3,0,0,1,1.06-.18,4.75,4.75,0,0,1,1.15.16,5.08,5.08,0,0,1,1.14.44Z"/>
          </g>
        </g>
      </g>
    </g>
  </g>
</svg>
