<svg xmlns="http://www.w3.org/2000/svg" xmlns:xlink="http://www.w3.org/1999/xlink" width="121.563" height="89.361" viewBox="0 0 121.563 89.361">
  <defs>
    <clipPath id="clip-path">
      <rect id="Rectangle_62" data-name="Rectangle 62" width="121.563" height="89.361" fill="none"/>
    </clipPath>
  </defs>
  <g id="Artwork_24" data-name="Artwork 24" transform="translate(60.781 44.68)">
    <g id="Group_820" data-name="Group 820" transform="translate(-60.781 -44.68)">
      <path id="Path_534" data-name="Path 534" d="M9.36,806.433v6.858H7.083v-6.858H5.2V804.5h6.043v1.933Z" transform="translate(-4.763 -736.886)" fill="#fff"/>
      <g id="Group_819" data-name="Group 819" clip-path="url(#clip-path)">
        <path id="Path_535" data-name="Path 535" d="M151.912,813.284h-2.841l-2.177-3.379v3.379H144.6v-8.791h3.555a3.49,3.49,0,0,1,1.286.219,2.412,2.412,0,0,1,1.437,1.454,3.026,3.026,0,0,1,.176,1.051,2.589,2.589,0,0,1-.487,1.63,2.424,2.424,0,0,1-1.429.849Zm-5.026-4.858h.437a1.669,1.669,0,0,0,1.034-.277.955.955,0,0,0,.361-.807.969.969,0,0,0-.361-.807,1.633,1.633,0,0,0-1.034-.286h-.429Z" transform="translate(-132.447 -736.878)" fill="#fff"/>
        <path id="Path_536" data-name="Path 536" d="M299.786,804.5v4.782c0,.26.008.521.025.79a2.161,2.161,0,0,0,.177.731,1.211,1.211,0,0,0,.462.529,2.031,2.031,0,0,0,1.765,0,1.261,1.261,0,0,0,.462-.529,2.076,2.076,0,0,0,.185-.731,7.539,7.539,0,0,0,.025-.79V804.5h2.278v5.093a4.094,4.094,0,0,1-.941,2.992,4.893,4.893,0,0,1-5.782.008,4.094,4.094,0,0,1-.941-2.992v-5.1Z" transform="translate(-272.497 -736.886)" fill="#fff"/>
        <path id="Path_537" data-name="Path 537" d="M471.1,806.433h-2.723V807.9h2.572v1.933h-2.572v1.521H471.1v1.933h-5V804.5h5Z" transform="translate(-426.927 -736.886)" fill="#fff"/>
        <path id="Path_538" data-name="Path 538" d="M601.119,804.275a2.842,2.842,0,0,0-.748-.445,1.984,1.984,0,0,0-.723-.143,1.168,1.168,0,0,0-.723.21.656.656,0,0,0-.277.546.546.546,0,0,0,.143.387,1.211,1.211,0,0,0,.37.26,3.065,3.065,0,0,0,.513.193l.563.177a3.491,3.491,0,0,1,1.639,1,2.475,2.475,0,0,1,.521,1.63,3.151,3.151,0,0,1-.227,1.227,2.546,2.546,0,0,1-.664.941,3.076,3.076,0,0,1-1.076.605,4.463,4.463,0,0,1-1.437.219,5.3,5.3,0,0,1-3.093-.992l.983-1.841a3.955,3.955,0,0,0,1.017.672,2.428,2.428,0,0,0,.992.219,1.163,1.163,0,0,0,.832-.261.79.79,0,0,0,.2-.924.749.749,0,0,0-.235-.269,1.876,1.876,0,0,0-.429-.227l-.639-.235q-.445-.143-.866-.311a2.731,2.731,0,0,1-.756-.445,2.074,2.074,0,0,1-.538-.706,2.5,2.5,0,0,1-.2-1.076,3.11,3.11,0,0,1,.219-1.185,2.623,2.623,0,0,1,.605-.908,2.7,2.7,0,0,1,.958-.588,3.615,3.615,0,0,1,1.269-.21,5.51,5.51,0,0,1,1.362.177,6.035,6.035,0,0,1,1.362.529Z" transform="translate(-545.818 -734.408)" fill="#8c9091"/>
        <path id="Path_539" data-name="Path 539" d="M747.986,807.9h3.295v-3.4h2.286v8.791h-2.286v-3.622h-3.295v3.622H745.7V804.5h2.286Z" transform="translate(-683.028 -736.886)" fill="#8c9091"/>
        <path id="Path_540" data-name="Path 540" d="M913.019,811.762h-3.261l-.521,1.53H906.8l3.345-8.791h2.5l3.345,8.791h-2.437Zm-.605-1.74-1.025-2.925-1.025,2.925Z" transform="translate(-830.588 -736.886)" fill="#8c9091"/>
        <path id="Path_541" data-name="Path 541" d="M1090.8,813.284h-2.841l-2.177-3.379v3.379H1083.5v-8.791h3.555a3.489,3.489,0,0,1,1.286.219,2.412,2.412,0,0,1,1.437,1.454,3.029,3.029,0,0,1,.176,1.051,2.589,2.589,0,0,1-.487,1.63,2.424,2.424,0,0,1-1.429.849Zm-5.026-4.858h.429a1.669,1.669,0,0,0,1.034-.277.955.955,0,0,0,.361-.807.97.97,0,0,0-.361-.807,1.6,1.6,0,0,0-1.034-.277h-.429Z" transform="translate(-992.437 -736.878)" fill="#8c9091"/>
        <path id="Path_542" data-name="Path 542" d="M1242.3,806.433h-2.715V807.9h2.563v1.933h-2.563v1.521h2.715v1.933h-5V804.5h5Z" transform="translate(-1133.311 -736.886)" fill="#8c9091"/>
        <path id="Path_543" data-name="Path 543" d="M1372.419,804.275a2.839,2.839,0,0,0-.748-.445,1.983,1.983,0,0,0-.723-.143,1.168,1.168,0,0,0-.723.21.656.656,0,0,0-.277.546.546.546,0,0,0,.143.387,1.21,1.21,0,0,0,.37.261,3.065,3.065,0,0,0,.513.193l.563.177a3.492,3.492,0,0,1,1.639,1,2.475,2.475,0,0,1,.521,1.63,3.153,3.153,0,0,1-.227,1.227,2.547,2.547,0,0,1-.664.941,3.075,3.075,0,0,1-1.076.605,4.463,4.463,0,0,1-1.437.219,5.3,5.3,0,0,1-3.093-.992l.983-1.841a3.958,3.958,0,0,0,1.017.672,2.429,2.429,0,0,0,.992.219,1.163,1.163,0,0,0,.832-.261.79.79,0,0,0,.2-.924.749.749,0,0,0-.235-.269,1.865,1.865,0,0,0-.429-.227l-.639-.235q-.445-.143-.866-.311a2.732,2.732,0,0,1-.756-.445,2.075,2.075,0,0,1-.538-.706,2.5,2.5,0,0,1-.2-1.076,3.11,3.11,0,0,1,.219-1.185,2.621,2.621,0,0,1,.605-.908,2.7,2.7,0,0,1,.958-.588,3.614,3.614,0,0,1,1.269-.21,5.511,5.511,0,0,1,1.362.177,6.034,6.034,0,0,1,1.361.529Z" transform="translate(-1252.293 -734.408)" fill="#8c9091"/>
        <path id="Path_544" data-name="Path 544" d="M678.852,0l-3.4,11.573h-.538c.177-6.925-2.446-10.321-8.11-11.1L666.918,0Z" transform="translate(-610.759)" fill="#fff"/>
        <path id="Path_545" data-name="Path 545" d="M357.038,11.573H356.5L360.324,0h10.5L370.7.479c-5.068,1.37-10.321,5.37-13.666,11.094" transform="translate(-326.538)" fill="#fff"/>
        <path id="Path_546" data-name="Path 546" d="M390.87,0l-8.531,29.886a14.04,14.04,0,0,0-.714,3.933c0,2.025,1.79,3.1,4.177,3.286l-.176.479H367.9l.176-.479c3.757-.42,5.547-2.269,7.043-7.455L383.532,0Z" transform="translate(-336.98)" fill="#fff"/>
        <path id="Path_547" data-name="Path 547" d="M961.752,84.508l-3.4,11.573h-.538c.177-6.925-2.446-10.321-8.11-11.1l.118-.479Z" transform="translate(-869.882 -77.398)" fill="#8c9091"/>
        <path id="Path_548" data-name="Path 548" d="M653.6,417.581,657,406h.538c-.177,6.925,2.446,10.321,8.11,11.1l-.118.479Z" transform="translate(-598.668 -371.878)" fill="#8c9091"/>
        <path id="Path_549" data-name="Path 549" d="M825.576,157.774l-.967-1.605-.353-.58c-.782-1.294-1.437-2.4-1.933-3.437-.773-1.446-1.647-3.169-2.513-5.051L816.6,158.354c.563,1.009,1.235,2.135,2.059,3.53,2.269,3.933,5.068,7.631,5.068,10.859a6.848,6.848,0,0,1-6.438,7.219l-.177.479c6.8-.361,13.3-3.16,13.3-11.455,0-3.992-2.269-6.917-4.833-11.212" transform="translate(-747.969 -134.737)" fill="#8c9091"/>
        <path id="Path_550" data-name="Path 550" d="M4.875,975.461a1.109,1.109,0,0,1,.42.908,1.849,1.849,0,0,1-.4,1.151,2.563,2.563,0,0,1-1.1.8,4.26,4.26,0,0,1-1.614.286H1.934l-.387,1.471-.05.193a.975.975,0,0,0-.034.219.235.235,0,0,0,.126.219,1.1,1.1,0,0,0,.445.076L2,980.949q-.378-.025-1.025-.025t-1.076.025l.034-.168a1.824,1.824,0,0,0,.445-.067.429.429,0,0,0,.235-.193,1.772,1.772,0,0,0,.168-.454l1.093-4.093a2.083,2.083,0,0,0,.076-.4.252.252,0,0,0-.126-.235,1.026,1.026,0,0,0-.437-.076l.042-.168q.328.025,1.017.025h1.21a1.929,1.929,0,0,1,1.227.336m-.941,2.387a2.374,2.374,0,0,0,.521-1.605.963.963,0,0,0-.244-.723,1.124,1.124,0,0,0-.8-.235.983.983,0,0,0-.387.059.487.487,0,0,0-.227.21,1.782,1.782,0,0,0-.16.437l-.664,2.463h.277a2.1,2.1,0,0,0,1.672-.605" transform="translate(0.092 -893.148)" fill="#fff"/>
        <path id="Path_551" data-name="Path 551" d="M62.486,994.773a3.4,3.4,0,0,1,.832-1.261A1.782,1.782,0,0,1,64.578,993a1.076,1.076,0,0,1,.832.328,1.379,1.379,0,0,1,.3.966,3.891,3.891,0,0,1-.286,1.4,3.4,3.4,0,0,1-.832,1.261,1.782,1.782,0,0,1-1.261.513,1.076,1.076,0,0,1-.832-.328,1.379,1.379,0,0,1-.3-.967,3.892,3.892,0,0,1,.286-1.4m1.252-1.076a4.414,4.414,0,0,0-.605,1.345,5.69,5.69,0,0,0-.227,1.546,1,1,0,0,0,.118.546.4.4,0,0,0,.353.177,1.029,1.029,0,0,0,.8-.538,4.42,4.42,0,0,0,.605-1.345,5.7,5.7,0,0,0,.227-1.546,1,1,0,0,0-.118-.546.4.4,0,0,0-.353-.176,1.029,1.029,0,0,0-.8.538" transform="translate(-56.972 -909.543)" fill="#fff"/>
        <path id="Path_552" data-name="Path 552" d="M114.444,993.474a4.059,4.059,0,0,1-.219,1.311,2.546,2.546,0,0,1-.672,1.067,1.605,1.605,0,0,1-1.135.429.857.857,0,0,1-.874-.5,1.709,1.709,0,0,1-1.135.5.919.919,0,0,1-.773-.269.95.95,0,0,1-.244-.672,2.462,2.462,0,0,1,.689-1.521,10.064,10.064,0,0,1,1.673-1.555l-.193.118-.361.2a.588.588,0,0,1-.244.059.328.328,0,0,1-.176-.051l-.092-.059a.478.478,0,0,0-.244-.1.277.277,0,0,0-.227.109,1.278,1.278,0,0,0-.185.4l-.1.3h-.16l.193-.605a1.674,1.674,0,0,1,.345-.656.6.6,0,0,1,.429-.193.4.4,0,0,1,.185.034l.193.118.2.126a.4.4,0,0,0,.185.042.956.956,0,0,0,.353-.059,1.034,1.034,0,0,0,.3-.193l.118-.16.176.084a9.54,9.54,0,0,0-1.622,1.714,3.009,3.009,0,0,0-.622,1.773,1.062,1.062,0,0,0,.118.572.378.378,0,0,0,.336.176,1.025,1.025,0,0,0,.429-.1,1.531,1.531,0,0,0,.429-.294,2,2,0,0,1-.059-.488,2.228,2.228,0,0,1,.2-.916,2.487,2.487,0,0,1,.487-.74.788.788,0,0,1,.513-.286.227.227,0,0,1,.227.176,1.2,1.2,0,0,1,.059.4,1.916,1.916,0,0,1-.235.9,2.53,2.53,0,0,1-.706.815.69.69,0,0,0,.664.546,1.169,1.169,0,0,0,.9-.4,2.581,2.581,0,0,0,.546-1,3.942,3.942,0,0,0,.185-1.151,2.085,2.085,0,0,0-.059-.546,1.285,1.285,0,0,1-.538-.244.588.588,0,0,1-.244-.488.4.4,0,0,1,.1-.294.336.336,0,0,1,.244-.1.438.438,0,0,1,.378.26,2.336,2.336,0,0,1,.227.706,3.018,3.018,0,0,1,.067.689m-2.168.126a1.924,1.924,0,0,0-.277.546,2.042,2.042,0,0,0-.118.672,2.184,2.184,0,0,0,.059.529,2.244,2.244,0,0,0,.588-.731,1.867,1.867,0,0,0,.219-.849q0-.387-.16-.387t-.3.219" transform="translate(-100.198 -908.353)" fill="#fff"/>
        <path id="Path_553" data-name="Path 553" d="M179.072,994.711a6.885,6.885,0,0,1-1.715.815,3.723,3.723,0,0,0-.092.8q0,.79.572.79a1.569,1.569,0,0,0,1.269-.824l.134.067a2.53,2.53,0,0,1-.714.782,1.589,1.589,0,0,1-.941.328,1.062,1.062,0,0,1-.8-.294,1.2,1.2,0,0,1-.286-.866,3.352,3.352,0,0,1,.37-1.412,4.033,4.033,0,0,1,.992-1.345,2.025,2.025,0,0,1,1.362-.555.672.672,0,0,1,.437.143.487.487,0,0,1,.176.4,1.422,1.422,0,0,1-.748,1.168m-.63-1.252a3.4,3.4,0,0,0-.614.824,4.573,4.573,0,0,0-.437,1.093,4.254,4.254,0,0,0,1.126-.529,1.673,1.673,0,0,0,.471-.58,1.648,1.648,0,0,0,.168-.74.865.865,0,0,0-.034-.294.109.109,0,0,0-.1-.076.92.92,0,0,0-.588.311" transform="translate(-161.666 -909.539)" fill="#fff"/>
        <path id="Path_554" data-name="Path 554" d="M223.57,993.03a.462.462,0,0,1,.134.336.572.572,0,0,1-.176.42.555.555,0,0,1-.4.177.353.353,0,0,1-.235-.076.269.269,0,0,1-.092-.219.521.521,0,0,1,.1-.319.657.657,0,0,1,.269-.21.127.127,0,0,0-.092-.034q-.445,0-.967.958a13.148,13.148,0,0,0-.983,2.538l-.168.656h-.714l.992-3.538a1.076,1.076,0,0,0,.059-.319q0-.193-.176-.193a.429.429,0,0,0-.336.193,2.329,2.329,0,0,0-.311.647l-.109.3h-.16l.21-.605q.294-.849,1-.849a.42.42,0,0,1,.471.479,2.958,2.958,0,0,1-.118.672l-.261,1.042a6.725,6.725,0,0,1,.84-1.7,1.1,1.1,0,0,1,.882-.5.479.479,0,0,1,.353.134" transform="translate(-201.693 -909.447)" fill="#fff"/>
        <path id="Path_555" data-name="Path 555" d="M261.072,994.711a6.885,6.885,0,0,1-1.715.815,3.723,3.723,0,0,0-.092.8q0,.79.571.79a1.569,1.569,0,0,0,1.269-.824l.134.067a2.53,2.53,0,0,1-.714.782,1.589,1.589,0,0,1-.941.328,1.062,1.062,0,0,1-.8-.294,1.2,1.2,0,0,1-.286-.866,3.353,3.353,0,0,1,.37-1.412,4.033,4.033,0,0,1,.992-1.345,2.025,2.025,0,0,1,1.361-.555.672.672,0,0,1,.437.143.488.488,0,0,1,.177.4,1.422,1.422,0,0,1-.748,1.168m-.63-1.252a3.4,3.4,0,0,0-.614.824,4.572,4.572,0,0,0-.437,1.093,4.254,4.254,0,0,0,1.126-.529,1.674,1.674,0,0,0,.471-.58,1.648,1.648,0,0,0,.168-.74.866.866,0,0,0-.034-.294.109.109,0,0,0-.1-.076.92.92,0,0,0-.588.311" transform="translate(-236.774 -909.539)" fill="#fff"/>
        <path id="Path_556" data-name="Path 556" d="M304.29,972.019h.16l-.193.605a1.292,1.292,0,0,1-.4.656.908.908,0,0,1-.555.2.53.53,0,0,1-.387-.135.513.513,0,0,1-.134-.378,2.748,2.748,0,0,1,.109-.647l.118-.42a3.829,3.829,0,0,1-.79,1.2,1.254,1.254,0,0,1-.857.37.773.773,0,0,1-.63-.269,1.242,1.242,0,0,1-.227-.815,3.669,3.669,0,0,1,.361-1.488,3.942,3.942,0,0,1,.975-1.353,1.971,1.971,0,0,1,1.336-.546.5.5,0,0,1,.3.109.572.572,0,0,1,.2.286l.412-1.547a.755.755,0,0,0,.034-.219.269.269,0,0,0-.126-.244.874.874,0,0,0-.437-.076l.05-.177a3.749,3.749,0,0,0,.79-.092,2.942,2.942,0,0,0,.672-.244l-1.614,5.858a1.357,1.357,0,0,0-.05.277q0,.227.2.227a.324.324,0,0,0,.3-.193,2.555,2.555,0,0,0,.294-.656Zm-2.126.84a4.52,4.52,0,0,0,.639-.924,7.023,7.023,0,0,0,.521-1.244l.286-1.084a.58.58,0,0,0-.168-.319.4.4,0,0,0-.269-.1,1.255,1.255,0,0,0-.95.529,4.152,4.152,0,0,0-.714,1.32,4.446,4.446,0,0,0-.269,1.454q0,.714.361.714a.643.643,0,0,0,.572-.345" transform="translate(-275.244 -885.546)" fill="#fff"/>
        <path id="Path_557" data-name="Path 557" d="M380.006,969.1a1.416,1.416,0,0,1,.227.874,4.083,4.083,0,0,1-.294,1.446,3.614,3.614,0,0,1-.849,1.32,1.765,1.765,0,0,1-1.269.538.689.689,0,0,1-.437-.143.756.756,0,0,1-.261-.412l-.7.572-.126-.059a2.125,2.125,0,0,0,.16-.479l1.446-5.1a.755.755,0,0,0,.034-.227.269.269,0,0,0-.126-.244.884.884,0,0,0-.429-.076l.042-.177a3.694,3.694,0,0,0,.782-.092,2.951,2.951,0,0,0,.672-.244l-1.067,3.891a4.633,4.633,0,0,1,.765-1.294,1.1,1.1,0,0,1,.807-.4.756.756,0,0,1,.63.294m-1.362,3.438a4.583,4.583,0,0,0,.639-1.336,4.832,4.832,0,0,0,.244-1.42,1.109,1.109,0,0,0-.1-.538.319.319,0,0,0-.286-.185q-.328,0-.8.723a8.511,8.511,0,0,0-.84,1.79l-.277,1.051a.765.765,0,0,0,.244.353.571.571,0,0,0,.345.1,1.076,1.076,0,0,0,.832-.546" transform="translate(-344.674 -885.362)" fill="#fff"/>
        <path id="Path_558" data-name="Path 558" d="M424.169,993.559a4.368,4.368,0,0,1-.487,1.815,9.346,9.346,0,0,1-1.135,1.849,4.765,4.765,0,0,1-1.622,1.37,1.756,1.756,0,0,1-.714.21.471.471,0,0,1-.294-.093.294.294,0,0,1-.118-.244.32.32,0,0,1,.134-.269.5.5,0,0,1,.311-.1.7.7,0,0,1,.336.084,2.49,2.49,0,0,1,.353.235,4.8,4.8,0,0,0,1.235-.992l-.614-3.7a1.135,1.135,0,0,0-.1-.353.185.185,0,0,0-.168-.1q-.109,0-.219.16a2.873,2.873,0,0,0-.269.6l-.109.3h-.16l.21-.605q.286-.84.95-.84a.488.488,0,0,1,.4.168,1.271,1.271,0,0,1,.193.6l.42,3.1a8.518,8.518,0,0,0,.782-1.319,5.68,5.68,0,0,0,.462-1.362,1.773,1.773,0,0,1-.437-.328.6.6,0,0,1-.193-.437.4.4,0,0,1,.118-.3.421.421,0,0,1,.3-.118q.429,0,.429.672" transform="translate(-384.517 -909.439)" fill="#fff"/>
        <path id="Path_559" data-name="Path 559" d="M514.38,964.425a.429.429,0,0,1,.092.286.572.572,0,0,1-.109.336.94.94,0,0,1-.277.26,2.525,2.525,0,0,1-1.3.269,7.115,7.115,0,0,1-.84-.059l-1.219,4.58a1.58,1.58,0,0,0-.076.42.294.294,0,0,0,.151.286,1.4,1.4,0,0,0,.538.084l-.034.168q-.429-.025-1.227-.025t-1.2.025l.034-.168a1.923,1.923,0,0,0,.538-.084.6.6,0,0,0,.3-.227,1.922,1.922,0,0,0,.21-.471l1.244-4.681a8.348,8.348,0,0,0-1.067-.092,1.906,1.906,0,0,0-.924.143.773.773,0,0,1,.109.219.861.861,0,0,1,.042.252.546.546,0,0,1-.109.336.361.361,0,0,1-.3.143.336.336,0,0,1-.269-.109.445.445,0,0,1-.092-.3.694.694,0,0,1,.437-.647,2.281,2.281,0,0,1,1.109-.193q.328,0,.63.025l.748.084.723.084q.294.025.613.025a3.855,3.855,0,0,0,.622-.042,1.563,1.563,0,0,0,.445-.143.639.639,0,0,1-.21-.462.513.513,0,0,1,.1-.319.353.353,0,0,1,.3-.134.344.344,0,0,1,.277.109" transform="translate(-465.844 -883.246)" fill="#fff"/>
        <path id="Path_560" data-name="Path 560" d="M559.97,993.122a.462.462,0,0,1,.134.336.571.571,0,0,1-.176.42.555.555,0,0,1-.4.177.354.354,0,0,1-.235-.076.269.269,0,0,1-.092-.219.521.521,0,0,1,.1-.319.656.656,0,0,1,.269-.21.126.126,0,0,0-.092-.034q-.445,0-.967.958a13.146,13.146,0,0,0-.983,2.538l-.168.656h-.714l.992-3.538a1.075,1.075,0,0,0,.059-.319q0-.193-.176-.193a.429.429,0,0,0-.336.193,2.326,2.326,0,0,0-.311.647l-.109.3h-.16l.21-.605q.3-.84,1-.84a.42.42,0,0,1,.471.479,2.959,2.959,0,0,1-.118.672l-.26,1.042a6.726,6.726,0,0,1,.84-1.7,1.1,1.1,0,0,1,.883-.5.479.479,0,0,1,.353.134" transform="translate(-509.82 -909.539)" fill="#fff"/>
        <path id="Path_561" data-name="Path 561" d="M602.091,995.834h.16l-.21.605q-.294.849-1,.849a.547.547,0,0,1-.244-.059.387.387,0,0,1-.177-.168.648.648,0,0,1-.05-.252,3.151,3.151,0,0,1,.118-.672l.252-1.034a5.967,5.967,0,0,1-.933,1.681,1.325,1.325,0,0,1-.992.5q-.689,0-.689-.639a1.964,1.964,0,0,1,.118-.614l.8-2.412a1.05,1.05,0,0,0,.067-.3q0-.21-.2-.21a.42.42,0,0,0-.319.185,2.351,2.351,0,0,0-.319.656l-.109.3h-.16l.21-.605q.294-.849,1-.849t.58.513a2.152,2.152,0,0,1-.134.647l-.782,2.362a1.351,1.351,0,0,0-.084.412q0,.277.26.277t.706-.471a6,6,0,0,0,.765-1.319,12.3,12.3,0,0,0,.664-1.9l.1-.4a2.6,2.6,0,0,0,.748-.118l-1.025,3.656a1.373,1.373,0,0,0-.059.319q0,.193.177.193a.429.429,0,0,0,.336-.193,2.336,2.336,0,0,0,.311-.647Z" transform="translate(-547.924 -909.36)" fill="#fff"/>
        <path id="Path_562" data-name="Path 562" d="M655.072,994.711a6.886,6.886,0,0,1-1.714.815,3.723,3.723,0,0,0-.093.8q0,.79.572.79a1.569,1.569,0,0,0,1.269-.824l.134.067a2.53,2.53,0,0,1-.714.782,1.589,1.589,0,0,1-.941.328,1.062,1.062,0,0,1-.8-.294,1.2,1.2,0,0,1-.286-.866,3.353,3.353,0,0,1,.37-1.412,4.035,4.035,0,0,1,.992-1.345,2.025,2.025,0,0,1,1.362-.555.672.672,0,0,1,.437.143.487.487,0,0,1,.177.4,1.422,1.422,0,0,1-.748,1.168m-.63-1.252a3.4,3.4,0,0,0-.614.824,4.571,4.571,0,0,0-.437,1.093,4.255,4.255,0,0,0,1.126-.529,1.672,1.672,0,0,0,.471-.58,1.647,1.647,0,0,0,.168-.74.866.866,0,0,0-.034-.294.109.109,0,0,0-.1-.076.92.92,0,0,0-.588.311" transform="translate(-597.661 -909.539)" fill="#fff"/>
        <path id="Path_563" data-name="Path 563" d="M696.95,975.325q.639,0,1.034-.025l-.042.168a1.8,1.8,0,0,0-.445.067.429.429,0,0,0-.227.193,1.774,1.774,0,0,0-.168.454l-1.093,4.093a2.027,2.027,0,0,0-.067.4.235.235,0,0,0,.118.235,1.267,1.267,0,0,0,.437.076l-.034.168q-.378-.025-1.025-.025t-1.076.025l.034-.168a1.8,1.8,0,0,0,.446-.067.428.428,0,0,0,.227-.193,1.776,1.776,0,0,0,.168-.454l1.193-4.446-3.421,5.362h-.185l-.555-5.429-1.168,4.429a2.024,2.024,0,0,0-.067.412.3.3,0,0,0,.134.286,1.185,1.185,0,0,0,.479.092l-.042.168q-.277-.025-.832-.025t-.773.025l.042-.168a1.31,1.31,0,0,0,.445-.084.53.53,0,0,0,.244-.227,2,2,0,0,0,.177-.479l1.076-4.009a2.025,2.025,0,0,0,.067-.4.235.235,0,0,0-.118-.235,1.267,1.267,0,0,0-.437-.076l.042-.168q.26.025.731.025t.723-.025l.454,4.891,3.1-4.866Z" transform="translate(-632.009 -893.331)" fill="#fff"/>
        <path id="Path_564" data-name="Path 564" d="M780.477,996.1h.16l-.21.605a1.476,1.476,0,0,1-.42.656.841.841,0,0,1-.529.2.606.606,0,0,1-.269-.059.462.462,0,0,1-.185-.16.547.547,0,0,1-.076-.286,1.5,1.5,0,0,1,.059-.387l.076-.269.151-.6a4.445,4.445,0,0,1-.807,1.345,1.2,1.2,0,0,1-.857.42.673.673,0,0,1-.58-.269,1.211,1.211,0,0,1-.2-.723,3.843,3.843,0,0,1,.353-1.5,4.514,4.514,0,0,1,.924-1.4,1.644,1.644,0,0,1,1.151-.58.454.454,0,0,1,.361.168.8.8,0,0,1,.168.462l.134-.513a2.831,2.831,0,0,0,.756-.118l-1.034,3.648-.034.126a.71.71,0,0,0-.025.177q0,.21.185.21.361,0,.639-.84Zm-2.11.84A4.563,4.563,0,0,0,779,996a6.956,6.956,0,0,0,.5-1.261l.151-.588a1.558,1.558,0,0,0,.008-.185,1.009,1.009,0,0,0-.118-.529.37.37,0,0,0-.336-.193q-.353,0-.748.546a5,5,0,0,0-.664,1.353,4.8,4.8,0,0,0-.269,1.513,1.16,1.16,0,0,0,.076.487.235.235,0,0,0,.219.151.882.882,0,0,0,.555-.353" transform="translate(-711.502 -909.634)" fill="#fff"/>
        <path id="Path_565" data-name="Path 565" d="M833.57,993.03a.462.462,0,0,1,.134.336.571.571,0,0,1-.177.42.555.555,0,0,1-.4.177.353.353,0,0,1-.235-.076.269.269,0,0,1-.093-.219.521.521,0,0,1,.1-.319.655.655,0,0,1,.269-.21.126.126,0,0,0-.092-.034q-.445,0-.966.958a13.15,13.15,0,0,0-.983,2.538l-.168.656h-.714l.992-3.538a1.075,1.075,0,0,0,.059-.319q0-.193-.176-.193a.429.429,0,0,0-.336.193,2.328,2.328,0,0,0-.311.647l-.109.3h-.16l.21-.605q.294-.849,1-.849a.42.42,0,0,1,.471.479,2.961,2.961,0,0,1-.118.672l-.261,1.042a6.722,6.722,0,0,1,.84-1.7,1.1,1.1,0,0,1,.883-.5.479.479,0,0,1,.353.134" transform="translate(-760.426 -909.447)" fill="#fff"/>
        <path id="Path_566" data-name="Path 566" d="M872.484,969.12a.445.445,0,0,1,.118.319.714.714,0,0,1-.118.378.4.4,0,0,1-.361.193.294.294,0,0,1-.244-.092.353.353,0,0,1-.076-.235.579.579,0,0,1,.076-.261.907.907,0,0,1,.193-.252h-.017a.387.387,0,0,0-.16.025l-.151.084a.846.846,0,0,0-.2.235,3.427,3.427,0,0,0-.193.4,3.34,3.34,0,0,1-.42.689,1.058,1.058,0,0,1-.605.345,1.865,1.865,0,0,1,.857.219.655.655,0,0,1,.336.605,1.152,1.152,0,0,1-.025.227l-.168.824a.686.686,0,0,0-.017.168.176.176,0,0,0,.042.135.194.194,0,0,0,.143.042.4.4,0,0,0,.311-.193,2.538,2.538,0,0,0,.3-.647l.1-.3h.16l-.2.605q-.269.849-.983.849a.563.563,0,0,1-.387-.135.512.512,0,0,1-.151-.4.951.951,0,0,1,.034-.244l.151-.706a1.506,1.506,0,0,0,.042-.3.538.538,0,0,0-.219-.471,1.561,1.561,0,0,0-.748-.2l-.689,2.353H868.5l1.63-5.505a.84.84,0,0,0,.042-.227.26.26,0,0,0-.134-.244.9.9,0,0,0-.437-.076l.05-.177a3.211,3.211,0,0,0,1.488-.336l-1.2,4.11a1.412,1.412,0,0,0,.63-.185,1.152,1.152,0,0,0,.37-.345,4.323,4.323,0,0,0,.277-.521,3.426,3.426,0,0,1,.2-.4.94.94,0,0,1,.235-.26.84.84,0,0,1,.5-.193.487.487,0,0,1,.37.126" transform="translate(-795.507 -885.545)" fill="#fff"/>
        <path id="Path_567" data-name="Path 567" d="M942.872,980.579a.227.227,0,0,0,.118.227,1.3,1.3,0,0,0,.445.076l-.034.168q-.378-.025-1.051-.025t-1.051.025l.042-.168a1.731,1.731,0,0,0,.437-.067.429.429,0,0,0,.227-.193,1.868,1.868,0,0,0,.168-.454l1.093-4.093a2.035,2.035,0,0,0,.067-.4.235.235,0,0,0-.118-.235,1.267,1.267,0,0,0-.437-.076l.042-.168q.336.025,1.051.025t1.059-.025l-.042.168a1.8,1.8,0,0,0-.445.067.428.428,0,0,0-.227.193,1.783,1.783,0,0,0-.168.454l-1.093,4.093a2.367,2.367,0,0,0-.076.4" transform="translate(-862.189 -893.239)" fill="#fff"/>
        <path id="Path_568" data-name="Path 568" d="M984.427,996.109l-.21.605q-.294.849-1,.849a.571.571,0,0,1-.521-.235.488.488,0,0,1-.067-.269,2.235,2.235,0,0,1,.143-.647l.782-2.362a1.562,1.562,0,0,0,.084-.4q0-.286-.261-.286t-.714.454a5.7,5.7,0,0,0-.79,1.261,11.117,11.117,0,0,0-.672,1.773l-.151.605h-.714l.992-3.538a1.367,1.367,0,0,0,.059-.3q0-.21-.185-.21a.4.4,0,0,0-.319.185,2.64,2.64,0,0,0-.311.664l-.109.3h-.16l.21-.605q.294-.849.983-.849a.5.5,0,0,1,.378.126.53.53,0,0,1,.109.361,2.948,2.948,0,0,1-.118.672l-.286,1.126a6.436,6.436,0,0,1,1.009-1.765,1.42,1.42,0,0,1,1.059-.521q.672,0,.672.622a1.943,1.943,0,0,1-.126.63l-.8,2.412a1.062,1.062,0,0,0-.067.311.176.176,0,0,0,.2.2.42.42,0,0,0,.319-.185,2.353,2.353,0,0,0,.319-.656l.109-.3Z" transform="translate(-897.911 -909.635)" fill="#fff"/>
        <path id="Path_569" data-name="Path 569" d="M1040.069,992.792a.765.765,0,0,1-.176-.5.387.387,0,0,1,.109-.3.378.378,0,0,1,.6.126,1.343,1.343,0,0,1,.118.613,2.514,2.514,0,0,1-.017.328,5.564,5.564,0,0,1-.437,1.605,3.37,3.37,0,0,1-.891,1.235,1.916,1.916,0,0,1-1.286.471.862.862,0,0,1-.74-.294,1.068,1.068,0,0,1-.2-.723,3.444,3.444,0,0,1,.563-1.513,8.249,8.249,0,0,1,1.353-1.622,3.041,3.041,0,0,0-.471.244,3.317,3.317,0,0,1-.353.2.631.631,0,0,1-.26.067.327.327,0,0,1-.177-.051l-.109-.059a.479.479,0,0,0-.235-.1.269.269,0,0,0-.219.109,1.484,1.484,0,0,0-.185.4l-.093.3h-.16l.185-.605q.227-.84.773-.84a.4.4,0,0,1,.185.034l.193.118a1.209,1.209,0,0,0,.193.126.42.42,0,0,0,.193.042.991.991,0,0,0,.689-.252l.084-.16.177.084a7.675,7.675,0,0,0-1.042,1.639,5.085,5.085,0,0,0-.446,1.673,1.883,1.883,0,0,0-.008.2q0,.689.361.689a1.489,1.489,0,0,0,1.093-.5,3.664,3.664,0,0,0,.765-1.21,3.953,3.953,0,0,0,.3-1.261,1.238,1.238,0,0,1-.429-.336" transform="translate(-949.662 -908.444)" fill="#fff"/>
        <path id="Path_570" data-name="Path 570" d="M1090.472,994.711a6.885,6.885,0,0,1-1.714.815,3.723,3.723,0,0,0-.093.8q0,.79.572.79a1.569,1.569,0,0,0,1.269-.824l.135.067a2.529,2.529,0,0,1-.714.782,1.589,1.589,0,0,1-.941.328,1.061,1.061,0,0,1-.8-.294,1.2,1.2,0,0,1-.286-.866,3.352,3.352,0,0,1,.37-1.412,4.033,4.033,0,0,1,.992-1.345,2.025,2.025,0,0,1,1.361-.555.672.672,0,0,1,.437.143.487.487,0,0,1,.177.4,1.422,1.422,0,0,1-.748,1.168m-.63-1.252a3.4,3.4,0,0,0-.614.824,4.579,4.579,0,0,0-.437,1.093,4.252,4.252,0,0,0,1.126-.529,1.67,1.67,0,0,0,.471-.58,1.647,1.647,0,0,0,.168-.74.868.868,0,0,0-.034-.294.109.109,0,0,0-.1-.076.92.92,0,0,0-.588.311" transform="translate(-996.467 -909.539)" fill="#fff"/>
        <path id="Path_571" data-name="Path 571" d="M1127.776,997.278l.219.017a.832.832,0,0,0,.6-.219.852.852,0,0,0,.227-.63,1.392,1.392,0,0,0-.1-.513,2.732,2.732,0,0,0-.328-.572,5.117,5.117,0,0,1-.412-.622,1.212,1.212,0,0,1-.126-.572,1.092,1.092,0,0,1,.177-.605,1.175,1.175,0,0,1,.462-.42,1.4,1.4,0,0,1,.639-.151,1.461,1.461,0,0,1,.714.16.581.581,0,0,1,.286.555.514.514,0,0,1-.093.286.319.319,0,0,1-.286.143.311.311,0,0,1-.235-.1.345.345,0,0,1-.093-.244.9.9,0,0,1,.227-.555.765.765,0,0,0-.412-.1.68.68,0,0,0-.513.21.79.79,0,0,0-.2.572.834.834,0,0,0,.076.37,4.272,4.272,0,0,0,.269.445l.151.219a4.712,4.712,0,0,1,.37.656,1.388,1.388,0,0,1,.118.563,1.194,1.194,0,0,1-.193.672,1.32,1.32,0,0,1-.521.462,1.537,1.537,0,0,1-.706.168,1.463,1.463,0,0,1-.79-.2.673.673,0,0,1-.319-.614.446.446,0,0,1,.076-.252.278.278,0,0,1,.244-.118.3.3,0,0,1,.269.151.7.7,0,0,1,.092.37,2.44,2.44,0,0,1-.059.429l.16.059" transform="translate(-1032.267 -909.534)" fill="#fff"/>
        <path id="Path_572" data-name="Path 572" d="M1170.3,983.008a.75.75,0,0,0-.025.185.3.3,0,0,0,.1.244.387.387,0,0,0,.252.084.538.538,0,0,0,.387-.177,1.887,1.887,0,0,0,.353-.647l.118-.319h.16l-.176.521a1.489,1.489,0,0,1-.454.723,1.093,1.093,0,0,1-.681.21.753.753,0,0,1-.555-.185.681.681,0,0,1-.185-.5,1.7,1.7,0,0,1,.076-.471l.874-3.034h-.74l.042-.168h.74l.361-1.252a2.7,2.7,0,0,0,.74-.118l-.387,1.37h1.093l-.025.168h-1.118Z" transform="translate(-1071.29 -895.895)" fill="#fff"/>
        <path id="Path_573" data-name="Path 573" d="M1208.018,996.109l-.21.605q-.294.849-1,.849a.566.566,0,0,1-.513-.219.547.547,0,0,1-.076-.286,2.227,2.227,0,0,1,.143-.647l.782-2.362a1.4,1.4,0,0,0,.084-.437q0-.252-.185-.252-.471,0-1.059,1.076a16.046,16.046,0,0,0-1.143,2.849v-.05l-.059.219h-.74l1.034-3.4a1.369,1.369,0,0,0,.084-.42q0-.269-.227-.269t-.681.479a6.185,6.185,0,0,0-.748,1.32,12.931,12.931,0,0,0-.639,1.841l-.118.454h-.714l.992-3.538a1.645,1.645,0,0,0,.059-.3q0-.21-.177-.21a.429.429,0,0,0-.336.193,2.328,2.328,0,0,0-.311.647l-.109.3H1202l.21-.605q.294-.849,1-.849a.431.431,0,0,1,.479.5,2.758,2.758,0,0,1-.126.664l-.26,1.051a6.539,6.539,0,0,1,.933-1.706,1.256,1.256,0,0,1,.983-.5q.546,0,.546.58a2.607,2.607,0,0,1-.118.672l-.294,1.109a9.806,9.806,0,0,1,.656-1.37,2.548,2.548,0,0,1,.622-.74,1.16,1.16,0,0,1,.706-.235q.58,0,.58.622a2.115,2.115,0,0,1-.118.63l-.8,2.412a1.21,1.21,0,0,0-.067.311.176.176,0,0,0,.2.2.42.42,0,0,0,.319-.185,2.353,2.353,0,0,0,.319-.656l.109-.3Z" transform="translate(-1100.978 -909.635)" fill="#fff"/>
        <path id="Path_574" data-name="Path 574" d="M1282.372,994.711a6.886,6.886,0,0,1-1.715.815,3.707,3.707,0,0,0-.092.8q0,.79.571.79a1.569,1.569,0,0,0,1.269-.824l.135.067a2.53,2.53,0,0,1-.714.782,1.589,1.589,0,0,1-.941.328,1.062,1.062,0,0,1-.8-.294,1.2,1.2,0,0,1-.286-.866,3.353,3.353,0,0,1,.37-1.412,4.034,4.034,0,0,1,.992-1.345,2.025,2.025,0,0,1,1.361-.555.673.673,0,0,1,.437.143.488.488,0,0,1,.177.4,1.423,1.423,0,0,1-.748,1.168m-.63-1.252a3.4,3.4,0,0,0-.614.824,4.568,4.568,0,0,0-.437,1.093,4.256,4.256,0,0,0,1.126-.529,1.675,1.675,0,0,0,.471-.58,1.65,1.65,0,0,0,.168-.74.862.862,0,0,0-.034-.294.109.109,0,0,0-.1-.076.92.92,0,0,0-.588.311" transform="translate(-1172.239 -909.539)" fill="#fff"/>
        <path id="Path_575" data-name="Path 575" d="M1327.718,996.109l-.21.605q-.294.849-1,.849a.571.571,0,0,1-.521-.235.487.487,0,0,1-.067-.269,2.231,2.231,0,0,1,.143-.647l.782-2.362a1.567,1.567,0,0,0,.084-.4q0-.286-.261-.286t-.714.454a5.7,5.7,0,0,0-.79,1.261,11.123,11.123,0,0,0-.672,1.773l-.151.605h-.706l.992-3.538a1.367,1.367,0,0,0,.059-.3q0-.21-.185-.21a.4.4,0,0,0-.319.185,2.64,2.64,0,0,0-.311.664l-.109.3h-.16l.21-.605q.294-.849.983-.849a.5.5,0,0,1,.378.126.53.53,0,0,1,.109.361,2.952,2.952,0,0,1-.118.672l-.286,1.126a6.436,6.436,0,0,1,1.009-1.765,1.42,1.42,0,0,1,1.059-.521q.672,0,.672.622a1.942,1.942,0,0,1-.126.63l-.8,2.412a1.058,1.058,0,0,0-.067.311.176.176,0,0,0,.2.2.42.42,0,0,0,.319-.185,2.353,2.353,0,0,0,.319-.656l.109-.3Z" transform="translate(-1212.358 -909.635)" fill="#fff"/>
        <path id="Path_576" data-name="Path 576" d="M1381.7,983.008a.762.762,0,0,0-.025.185.3.3,0,0,0,.1.244.387.387,0,0,0,.252.084.538.538,0,0,0,.386-.177,1.888,1.888,0,0,0,.353-.647l.118-.319h.16l-.176.521a1.489,1.489,0,0,1-.454.723,1.093,1.093,0,0,1-.681.21.753.753,0,0,1-.555-.185.68.68,0,0,1-.185-.5,1.7,1.7,0,0,1,.076-.471l.874-3.034h-.74l.042-.168h.74l.361-1.252a2.7,2.7,0,0,0,.74-.118l-.387,1.37h1.093l-.025.168h-1.118Z" transform="translate(-1264.923 -895.895)" fill="#fff"/>
        <path id="Path_577" data-name="Path 577" d="M1409.576,997.278l.219.017a.832.832,0,0,0,.605-.219.851.851,0,0,0,.227-.63,1.393,1.393,0,0,0-.1-.513,2.731,2.731,0,0,0-.328-.571,5.117,5.117,0,0,1-.412-.622,1.212,1.212,0,0,1-.126-.572,1.094,1.094,0,0,1,.176-.605,1.177,1.177,0,0,1,.462-.42,1.394,1.394,0,0,1,.639-.151,1.463,1.463,0,0,1,.714.16.581.581,0,0,1,.286.555.514.514,0,0,1-.093.286.319.319,0,0,1-.286.143.311.311,0,0,1-.235-.1.345.345,0,0,1-.092-.244.9.9,0,0,1,.227-.555.764.764,0,0,0-.412-.1.68.68,0,0,0-.513.21.79.79,0,0,0-.2.572.83.83,0,0,0,.076.37,4.307,4.307,0,0,0,.269.445l.151.219a4.709,4.709,0,0,1,.37.656,1.386,1.386,0,0,1,.118.563,1.193,1.193,0,0,1-.193.672,1.319,1.319,0,0,1-.521.462,1.537,1.537,0,0,1-.706.168,1.462,1.462,0,0,1-.79-.2.673.673,0,0,1-.319-.614.446.446,0,0,1,.076-.252.278.278,0,0,1,.244-.118.3.3,0,0,1,.269.151.7.7,0,0,1,.093.37,2.44,2.44,0,0,1-.059.429l.16.059" transform="translate(-1290.384 -909.534)" fill="#fff"/>
      </g>
    </g>
  </g>
</svg>
