<svg xmlns="http://www.w3.org/2000/svg" viewBox="0 0 16 15.29">
  <title>linkedin</title>
  <g id="Layer_2" data-name="Layer 2">
    <g id="Layer_1-2" data-name="Layer 1">
      <path d="M9,6.47v0l0,0Z"/>
      <rect x="0.2" y="4.98" width="3.43" height="10.32"/>
      <path d="M1.92,3.57h0A1.79,1.79,0,1,1,1.94,0a1.79,1.79,0,1,1,0,3.57Z"/>
      <path d="M16,15.29H12.57V9.77c0-1.38-.5-2.33-1.74-2.33A1.89,1.89,0,0,0,9.07,8.69,2.41,2.41,0,0,0,9,9.53v5.76H5.53s0-9.35,0-10.31H9V6.44a3.4,3.4,0,0,1,3.09-1.71C14.31,4.73,16,6.21,16,9.38Z"/>
    </g>
  </g>
</svg>
