<svg xmlns="http://www.w3.org/2000/svg" xmlns:xlink="http://www.w3.org/1999/xlink" width="74.366" height="54.667" viewBox="0 0 74.366 54.667">
  <defs>
    <clipPath id="clip-path">
      <rect id="Rectangle_57" data-name="Rectangle 57" width="74.366" height="54.667" fill="none"/>
    </clipPath>
  </defs>
  <g id="Artwork_23" data-name="Artwork 23" transform="translate(37.183 27.333)">
    <g id="Group_810" data-name="Group 810" transform="translate(-37.183 -27.333)">
      <path id="Path_426" data-name="Path 426" d="M7.745,805.682v4.2H6.352v-4.2H5.2V804.5H8.9v1.182Z" transform="translate(-4.933 -763.137)" fill="#001a31"/>
      <g id="Group_809" data-name="Group 809" clip-path="url(#clip-path)">
        <path id="Path_427" data-name="Path 427" d="M149.073,809.87h-1.738L146,807.8v2.067h-1.4v-5.378h2.175a2.135,2.135,0,0,1,.787.134,1.476,1.476,0,0,1,.879.889,1.85,1.85,0,0,1,.108.643,1.584,1.584,0,0,1-.3,1,1.483,1.483,0,0,1-.874.519ZM146,806.9h.267a1.021,1.021,0,0,0,.632-.17.585.585,0,0,0,.221-.494.593.593,0,0,0-.221-.494,1,1,0,0,0-.632-.175H146Z" transform="translate(-137.165 -763.129)" fill="#001a31"/>
        <path id="Path_428" data-name="Path 428" d="M298.9,804.5v2.926c0,.159.005.319.015.483a1.323,1.323,0,0,0,.108.447.741.741,0,0,0,.283.324,1.243,1.243,0,0,0,1.08,0,.771.771,0,0,0,.283-.324,1.27,1.27,0,0,0,.113-.447,4.616,4.616,0,0,0,.015-.483V804.5h1.393v3.116a2.5,2.5,0,0,1-.576,1.83,2.993,2.993,0,0,1-3.537.005,2.5,2.5,0,0,1-.576-1.83V804.5Z" transform="translate(-282.204 -763.137)" fill="#001a31"/>
        <path id="Path_429" data-name="Path 429" d="M469.159,805.682h-1.666v.9h1.573v1.182h-1.573v.931h1.666v1.182H466.1V804.5h3.059Z" transform="translate(-442.136 -763.137)" fill="#001a31"/>
        <path id="Path_430" data-name="Path 430" d="M599.093,803.312a1.735,1.735,0,0,0-.458-.272,1.215,1.215,0,0,0-.442-.087.715.715,0,0,0-.442.129.4.4,0,0,0-.17.334.335.335,0,0,0,.087.237.741.741,0,0,0,.226.159,1.872,1.872,0,0,0,.314.118l.344.108a2.137,2.137,0,0,1,1,.612,1.514,1.514,0,0,1,.319,1,1.927,1.927,0,0,1-.139.751,1.558,1.558,0,0,1-.406.576,1.882,1.882,0,0,1-.658.37,2.731,2.731,0,0,1-.879.134,3.24,3.24,0,0,1-1.892-.607l.6-1.126a2.424,2.424,0,0,0,.622.411,1.486,1.486,0,0,0,.607.134.712.712,0,0,0,.509-.159.483.483,0,0,0,.123-.566.458.458,0,0,0-.144-.164,1.146,1.146,0,0,0-.262-.139l-.391-.144q-.273-.087-.53-.19a1.671,1.671,0,0,1-.463-.273,1.27,1.27,0,0,1-.329-.432,1.528,1.528,0,0,1-.123-.658,1.9,1.9,0,0,1,.134-.725,1.6,1.6,0,0,1,.37-.555,1.651,1.651,0,0,1,.586-.36,2.212,2.212,0,0,1,.776-.129,3.377,3.377,0,0,1,.833.108,3.692,3.692,0,0,1,.833.324Z" transform="translate(-565.262 -760.571)" fill="#7a7d7e"/>
        <path id="Path_431" data-name="Path 431" d="M747.1,806.577h2.015V804.5h1.4v5.378h-1.4v-2.216H747.1v2.216h-1.4V804.5h1.4Z" transform="translate(-707.36 -763.137)" fill="#7a7d7e"/>
        <path id="Path_432" data-name="Path 432" d="M910.6,808.942H908.61l-.319.936H906.8l2.046-5.378h1.527l2.046,5.378h-1.491Zm-.37-1.064-.627-1.789-.627,1.789Z" transform="translate(-860.177 -763.137)" fill="#7a7d7e"/>
        <path id="Path_433" data-name="Path 433" d="M1087.968,809.87h-1.738L1084.9,807.8v2.067h-1.4v-5.378h2.175a2.135,2.135,0,0,1,.787.134,1.475,1.475,0,0,1,.879.889,1.85,1.85,0,0,1,.108.643,1.585,1.585,0,0,1-.3,1,1.483,1.483,0,0,1-.874.519Zm-3.075-2.972h.262a1.022,1.022,0,0,0,.632-.17.585.585,0,0,0,.221-.494.593.593,0,0,0-.221-.494.979.979,0,0,0-.632-.17h-.262Z" transform="translate(-1027.792 -763.129)" fill="#7a7d7e"/>
        <path id="Path_434" data-name="Path 434" d="M1240.359,805.682H1238.7v.9h1.568v1.182H1238.7v.931h1.661v1.182H1237.3V804.5h3.059Z" transform="translate(-1173.685 -763.137)" fill="#7a7d7e"/>
        <path id="Path_435" data-name="Path 435" d="M1370.393,803.312a1.735,1.735,0,0,0-.458-.272,1.213,1.213,0,0,0-.442-.087.715.715,0,0,0-.442.129.4.4,0,0,0-.17.334.334.334,0,0,0,.088.237.74.74,0,0,0,.226.159,1.877,1.877,0,0,0,.314.118l.344.108a2.135,2.135,0,0,1,1,.612,1.513,1.513,0,0,1,.319,1,1.93,1.93,0,0,1-.139.751,1.558,1.558,0,0,1-.406.576,1.881,1.881,0,0,1-.658.37,2.731,2.731,0,0,1-.879.134,3.24,3.24,0,0,1-1.892-.607l.6-1.126a2.422,2.422,0,0,0,.622.411,1.485,1.485,0,0,0,.607.134.712.712,0,0,0,.509-.159.483.483,0,0,0,.123-.566.457.457,0,0,0-.144-.164,1.141,1.141,0,0,0-.262-.139l-.391-.144q-.272-.087-.53-.19a1.675,1.675,0,0,1-.463-.272,1.272,1.272,0,0,1-.329-.432,1.527,1.527,0,0,1-.124-.658,1.9,1.9,0,0,1,.134-.725,1.605,1.605,0,0,1,.37-.555,1.651,1.651,0,0,1,.586-.36,2.213,2.213,0,0,1,.776-.129,3.377,3.377,0,0,1,.833.108,3.69,3.69,0,0,1,.833.324Z" transform="translate(-1296.906 -760.571)" fill="#7a7d7e"/>
        <path id="Path_436" data-name="Path 436" d="M674.173,0l-2.082,7.08h-.329c.108-4.237-1.5-6.314-4.961-6.792L666.872,0Z" transform="translate(-632.517)" fill="#001a31"/>
        <path id="Path_437" data-name="Path 437" d="M356.829,7.08H356.5L358.839,0h6.422l-.072.293a14.612,14.612,0,0,0-8.36,6.787" transform="translate(-338.171)" fill="#001a31"/>
        <path id="Path_438" data-name="Path 438" d="M381.952,0l-5.219,18.283a8.588,8.588,0,0,0-.437,2.406c0,1.239,1.1,1.9,2.555,2.01l-.108.293H367.9l.108-.293c2.3-.257,3.393-1.388,4.309-4.56L377.463,0Z" transform="translate(-348.984)" fill="#001a31"/>
        <path id="Path_439" data-name="Path 439" d="M957.073,84.505l-2.082,7.08h-.329c.108-4.237-1.5-6.314-4.961-6.792l.072-.293Z" transform="translate(-900.871 -80.155)" fill="#7a7d7e"/>
        <path id="Path_440" data-name="Path 440" d="M653.6,413.085,655.677,406h.329c-.108,4.237,1.5,6.314,4.961,6.792l-.072.293Z" transform="translate(-619.995 -385.126)" fill="#7a7d7e"/>
        <path id="Path_441" data-name="Path 441" d="M822.091,153.63l-.591-.982-.216-.355c-.478-.792-.879-1.47-1.182-2.1-.473-.884-1.008-1.938-1.537-3.09l-1.964,6.884c.344.617.756,1.306,1.26,2.159,1.388,2.406,3.1,4.668,3.1,6.643a4.19,4.19,0,0,1-3.938,4.417l-.108.293c4.159-.221,8.139-1.933,8.139-7.008,0-2.442-1.388-4.231-2.956-6.859" transform="translate(-774.615 -139.537)" fill="#7a7d7e"/>
        <path id="Path_442" data-name="Path 442" d="M2.944,975.321a.679.679,0,0,1,.257.555,1.131,1.131,0,0,1-.242.7,1.568,1.568,0,0,1-.674.488,2.607,2.607,0,0,1-.987.175H1.144l-.237.9-.031.118a.6.6,0,0,0-.021.134.144.144,0,0,0,.077.134.674.674,0,0,0,.272.046l-.021.1q-.231-.015-.627-.016t-.658.016l.021-.1a1.119,1.119,0,0,0,.272-.041.262.262,0,0,0,.144-.118,1.085,1.085,0,0,0,.1-.278l.668-2.5a1.275,1.275,0,0,0,.046-.242.154.154,0,0,0-.077-.144A.628.628,0,0,0,.81,975.2l.026-.1q.2.015.622.015H2.2a1.18,1.18,0,0,1,.751.206m-.576,1.46a1.453,1.453,0,0,0,.319-.982.589.589,0,0,0-.149-.442.687.687,0,0,0-.488-.144.6.6,0,0,0-.237.036.3.3,0,0,0-.139.129,1.089,1.089,0,0,0-.1.267l-.406,1.506h.17a1.282,1.282,0,0,0,1.023-.37" transform="translate(0.095 -924.965)" fill="#7a7d7e"/>
        <path id="Path_443" data-name="Path 443" d="M62.375,994.084a2.082,2.082,0,0,1,.509-.771,1.09,1.09,0,0,1,.771-.314.658.658,0,0,1,.509.2.843.843,0,0,1,.185.591,2.38,2.38,0,0,1-.175.853,2.077,2.077,0,0,1-.509.771,1.09,1.09,0,0,1-.771.314.659.659,0,0,1-.509-.2.843.843,0,0,1-.185-.591,2.381,2.381,0,0,1,.175-.854m.766-.658a2.7,2.7,0,0,0-.37.823,3.481,3.481,0,0,0-.139.946.612.612,0,0,0,.072.334.242.242,0,0,0,.216.108.629.629,0,0,0,.488-.329,2.7,2.7,0,0,0,.37-.823,3.485,3.485,0,0,0,.139-.946.612.612,0,0,0-.072-.334.242.242,0,0,0-.216-.108.629.629,0,0,0-.488.329" transform="translate(-59.002 -941.945)" fill="#7a7d7e"/>
        <path id="Path_444" data-name="Path 444" d="M112.482,992.785a2.483,2.483,0,0,1-.134.8,1.558,1.558,0,0,1-.411.653.982.982,0,0,1-.694.262.524.524,0,0,1-.535-.309,1.045,1.045,0,0,1-.694.309.562.562,0,0,1-.473-.165.581.581,0,0,1-.149-.411,1.506,1.506,0,0,1,.422-.931,6.16,6.16,0,0,1,1.023-.951l-.118.072-.221.123a.36.36,0,0,1-.149.036.2.2,0,0,1-.108-.031l-.057-.036a.293.293,0,0,0-.149-.062.17.17,0,0,0-.139.067.781.781,0,0,0-.113.247l-.062.185h-.1l.118-.37a1.024,1.024,0,0,1,.211-.4.365.365,0,0,1,.262-.118.246.246,0,0,1,.113.021l.118.072.123.077a.242.242,0,0,0,.113.026.587.587,0,0,0,.216-.036.632.632,0,0,0,.185-.118l.072-.1.108.051a5.838,5.838,0,0,0-.992,1.049,1.841,1.841,0,0,0-.38,1.085.649.649,0,0,0,.072.35.231.231,0,0,0,.206.108.628.628,0,0,0,.262-.062.935.935,0,0,0,.262-.18,1.223,1.223,0,0,1-.036-.3,1.363,1.363,0,0,1,.123-.56,1.521,1.521,0,0,1,.3-.452.482.482,0,0,1,.314-.175.139.139,0,0,1,.139.108.735.735,0,0,1,.036.247,1.172,1.172,0,0,1-.144.55,1.547,1.547,0,0,1-.432.5.422.422,0,0,0,.406.334.715.715,0,0,0,.55-.247,1.578,1.578,0,0,0,.334-.612,2.412,2.412,0,0,0,.113-.7,1.275,1.275,0,0,0-.036-.334.787.787,0,0,1-.329-.149.36.36,0,0,1-.149-.3.242.242,0,0,1,.062-.18.206.206,0,0,1,.149-.062.268.268,0,0,1,.231.159,1.429,1.429,0,0,1,.139.432,1.845,1.845,0,0,1,.041.422m-1.326.077a1.176,1.176,0,0,0-.17.334,1.249,1.249,0,0,0-.072.411,1.337,1.337,0,0,0,.036.324,1.373,1.373,0,0,0,.36-.447,1.141,1.141,0,0,0,.134-.519q0-.236-.1-.237t-.185.134" transform="translate(-103.767 -940.712)" fill="#7a7d7e"/>
        <path id="Path_445" data-name="Path 445" d="M178.073,994.045a4.214,4.214,0,0,1-1.049.5,2.278,2.278,0,0,0-.057.488q0,.483.35.483a.96.96,0,0,0,.776-.5l.082.041a1.549,1.549,0,0,1-.437.478.972.972,0,0,1-.576.2.649.649,0,0,1-.488-.18.731.731,0,0,1-.175-.53,2.051,2.051,0,0,1,.226-.864,2.468,2.468,0,0,1,.607-.823,1.239,1.239,0,0,1,.833-.339.411.411,0,0,1,.267.087.3.3,0,0,1,.108.247.87.87,0,0,1-.458.715m-.386-.766a2.082,2.082,0,0,0-.375.5,2.8,2.8,0,0,0-.267.668,2.606,2.606,0,0,0,.689-.324,1.024,1.024,0,0,0,.288-.355,1.008,1.008,0,0,0,.1-.453.529.529,0,0,0-.021-.18.067.067,0,0,0-.062-.046.563.563,0,0,0-.36.19" transform="translate(-167.425 -941.941)" fill="#7a7d7e"/>
        <path id="Path_446" data-name="Path 446" d="M222.262,992.978a.282.282,0,0,1,.082.206.349.349,0,0,1-.108.257.339.339,0,0,1-.247.108.216.216,0,0,1-.144-.046.165.165,0,0,1-.057-.134.319.319,0,0,1,.062-.2.4.4,0,0,1,.165-.129.077.077,0,0,0-.057-.021q-.272,0-.591.586a8.044,8.044,0,0,0-.6,1.553l-.1.4h-.437l.607-2.165a.657.657,0,0,0,.036-.2q0-.118-.108-.118a.262.262,0,0,0-.206.118,1.425,1.425,0,0,0-.19.4l-.067.185h-.1l.129-.37q.18-.519.612-.519a.257.257,0,0,1,.288.293,1.81,1.81,0,0,1-.072.411l-.159.638a4.112,4.112,0,0,1,.514-1.039.67.67,0,0,1,.54-.3.293.293,0,0,1,.216.082" transform="translate(-208.878 -941.846)" fill="#7a7d7e"/>
        <path id="Path_447" data-name="Path 447" d="M260.073,994.045a4.214,4.214,0,0,1-1.049.5,2.28,2.28,0,0,0-.057.488q0,.483.35.483a.96.96,0,0,0,.776-.5l.082.041a1.549,1.549,0,0,1-.437.478.972.972,0,0,1-.576.2.649.649,0,0,1-.488-.18.731.731,0,0,1-.175-.53,2.051,2.051,0,0,1,.226-.864,2.468,2.468,0,0,1,.607-.823,1.239,1.239,0,0,1,.833-.339.411.411,0,0,1,.267.087.3.3,0,0,1,.108.247.87.87,0,0,1-.458.715m-.386-.766a2.082,2.082,0,0,0-.375.5,2.8,2.8,0,0,0-.267.668,2.606,2.606,0,0,0,.689-.324,1.024,1.024,0,0,0,.288-.355,1.008,1.008,0,0,0,.1-.453.529.529,0,0,0-.021-.18.067.067,0,0,0-.062-.046.563.563,0,0,0-.36.19" transform="translate(-245.209 -941.941)" fill="#7a7d7e"/>
        <path id="Path_448" data-name="Path 448" d="M302.819,969.993h.1l-.118.37a.791.791,0,0,1-.247.4.555.555,0,0,1-.339.123.324.324,0,0,1-.237-.082.314.314,0,0,1-.082-.231,1.681,1.681,0,0,1,.067-.4l.072-.257a2.342,2.342,0,0,1-.483.735.767.767,0,0,1-.524.226.473.473,0,0,1-.386-.165.76.76,0,0,1-.139-.5,2.245,2.245,0,0,1,.221-.91,2.411,2.411,0,0,1,.6-.828,1.206,1.206,0,0,1,.817-.334.3.3,0,0,1,.185.067.35.35,0,0,1,.123.175l.252-.946a.462.462,0,0,0,.021-.134.165.165,0,0,0-.077-.149.535.535,0,0,0-.267-.046l.031-.108a2.292,2.292,0,0,0,.483-.057,1.8,1.8,0,0,0,.411-.149l-.987,3.584a.826.826,0,0,0-.031.17q0,.139.123.139a.2.2,0,0,0,.185-.118,1.564,1.564,0,0,0,.18-.4Zm-1.3.514a2.769,2.769,0,0,0,.391-.566,4.3,4.3,0,0,0,.319-.761l.175-.663a.355.355,0,0,0-.1-.2.247.247,0,0,0-.165-.062.768.768,0,0,0-.581.324,2.54,2.54,0,0,0-.437.807,2.719,2.719,0,0,0-.165.889q0,.437.221.437a.393.393,0,0,0,.35-.211" transform="translate(-285.05 -917.092)" fill="#7a7d7e"/>
        <path id="Path_449" data-name="Path 449" d="M378.567,968.132a.866.866,0,0,1,.139.535,2.5,2.5,0,0,1-.18.884,2.211,2.211,0,0,1-.519.807,1.08,1.08,0,0,1-.776.329.421.421,0,0,1-.267-.087.463.463,0,0,1-.159-.252l-.427.35-.077-.036a1.3,1.3,0,0,0,.1-.293l.884-3.121a.462.462,0,0,0,.021-.139.165.165,0,0,0-.077-.149.542.542,0,0,0-.262-.046l.026-.108a2.256,2.256,0,0,0,.478-.057,1.807,1.807,0,0,0,.411-.149l-.653,2.38a2.835,2.835,0,0,1,.468-.792.675.675,0,0,1,.494-.247.463.463,0,0,1,.386.18m-.833,2.1a2.8,2.8,0,0,0,.391-.818,2.957,2.957,0,0,0,.149-.869.679.679,0,0,0-.062-.329.2.2,0,0,0-.175-.113q-.2,0-.488.442a5.21,5.21,0,0,0-.514,1.1l-.17.643a.468.468,0,0,0,.149.216.35.35,0,0,0,.211.062.659.659,0,0,0,.509-.334" transform="translate(-356.953 -916.903)" fill="#7a7d7e"/>
        <path id="Path_450" data-name="Path 450" d="M422.472,993.3a2.672,2.672,0,0,1-.3,1.111,5.716,5.716,0,0,1-.694,1.131,2.915,2.915,0,0,1-.992.838,1.074,1.074,0,0,1-.437.129.288.288,0,0,1-.18-.057.18.18,0,0,1-.072-.149.2.2,0,0,1,.082-.164.309.309,0,0,1,.19-.062.426.426,0,0,1,.206.051,1.531,1.531,0,0,1,.216.144,2.934,2.934,0,0,0,.756-.607l-.375-2.262a.694.694,0,0,0-.062-.216.113.113,0,0,0-.1-.062q-.067,0-.134.1a1.759,1.759,0,0,0-.165.365l-.067.185h-.1l.129-.37q.175-.514.581-.514a.3.3,0,0,1,.247.1.777.777,0,0,1,.118.365l.257,1.9a5.2,5.2,0,0,0,.478-.807,3.474,3.474,0,0,0,.283-.833,1.086,1.086,0,0,1-.267-.2.37.37,0,0,1-.118-.267.247.247,0,0,1,.072-.185.257.257,0,0,1,.185-.072q.262,0,.262.411" transform="translate(-398.215 -941.837)" fill="#7a7d7e"/>
        <path id="Path_451" data-name="Path 451" d="M512.131,964.372a.262.262,0,0,1,.057.175.35.35,0,0,1-.067.206.577.577,0,0,1-.17.159,1.544,1.544,0,0,1-.8.165,4.336,4.336,0,0,1-.514-.036l-.745,2.8a.965.965,0,0,0-.046.257.18.18,0,0,0,.093.175.854.854,0,0,0,.329.051l-.021.1q-.262-.015-.751-.015t-.735.015l.021-.1a1.179,1.179,0,0,0,.329-.051.366.366,0,0,0,.185-.139,1.181,1.181,0,0,0,.129-.288l.761-2.864a5.108,5.108,0,0,0-.653-.057,1.164,1.164,0,0,0-.566.088.473.473,0,0,1,.067.134.523.523,0,0,1,.026.154.335.335,0,0,1-.067.206.221.221,0,0,1-.185.087.205.205,0,0,1-.164-.067.272.272,0,0,1-.057-.185.425.425,0,0,1,.267-.4,1.4,1.4,0,0,1,.679-.118q.2,0,.386.016l.458.051.442.051q.18.015.375.015a2.362,2.362,0,0,0,.38-.026.96.96,0,0,0,.273-.087.391.391,0,0,1-.129-.283.313.313,0,0,1,.062-.2.216.216,0,0,1,.185-.082.211.211,0,0,1,.17.067" transform="translate(-482.439 -914.711)" fill="#7a7d7e"/>
        <path id="Path_452" data-name="Path 452" d="M558.662,993.073a.283.283,0,0,1,.082.206.35.35,0,0,1-.108.257.339.339,0,0,1-.247.108.215.215,0,0,1-.144-.046.165.165,0,0,1-.057-.134.319.319,0,0,1,.062-.2.4.4,0,0,1,.165-.128.077.077,0,0,0-.057-.021q-.272,0-.591.586a8.042,8.042,0,0,0-.6,1.553l-.1.4h-.437l.607-2.165a.659.659,0,0,0,.036-.2q0-.118-.108-.118a.262.262,0,0,0-.206.118,1.423,1.423,0,0,0-.19.4l-.067.185h-.1l.129-.37q.185-.514.612-.514a.257.257,0,0,1,.288.293,1.812,1.812,0,0,1-.072.411l-.159.638a4.115,4.115,0,0,1,.514-1.039.671.671,0,0,1,.54-.3.293.293,0,0,1,.216.082" transform="translate(-527.983 -941.941)" fill="#7a7d7e"/>
        <path id="Path_453" data-name="Path 453" d="M600.581,994.656h.1l-.129.37q-.18.519-.612.519a.335.335,0,0,1-.149-.036.237.237,0,0,1-.108-.1.394.394,0,0,1-.031-.154,1.924,1.924,0,0,1,.072-.411l.154-.632a3.651,3.651,0,0,1-.571,1.028.811.811,0,0,1-.607.308q-.422,0-.422-.391a1.2,1.2,0,0,1,.072-.375l.488-1.476a.644.644,0,0,0,.041-.185q0-.128-.123-.129a.257.257,0,0,0-.2.113,1.44,1.44,0,0,0-.2.4l-.067.185h-.1l.129-.37q.18-.519.612-.519t.355.314a1.317,1.317,0,0,1-.082.4l-.478,1.445a.826.826,0,0,0-.051.252q0,.17.159.17t.432-.288a3.673,3.673,0,0,0,.468-.807,7.533,7.533,0,0,0,.406-1.162l.062-.247a1.59,1.59,0,0,0,.458-.072l-.627,2.237a.834.834,0,0,0-.036.2q0,.118.108.118a.262.262,0,0,0,.206-.118,1.427,1.427,0,0,0,.19-.4Z" transform="translate(-567.444 -941.755)" fill="#7a7d7e"/>
        <path id="Path_454" data-name="Path 454" d="M654.073,994.045a4.214,4.214,0,0,1-1.049.5,2.276,2.276,0,0,0-.057.488q0,.483.35.483a.96.96,0,0,0,.776-.5l.082.041a1.55,1.55,0,0,1-.437.478.972.972,0,0,1-.576.2.649.649,0,0,1-.488-.18.731.731,0,0,1-.175-.53,2.052,2.052,0,0,1,.226-.864,2.468,2.468,0,0,1,.607-.823,1.239,1.239,0,0,1,.833-.339.411.411,0,0,1,.267.087.3.3,0,0,1,.108.247.87.87,0,0,1-.458.715m-.386-.766a2.082,2.082,0,0,0-.375.5,2.8,2.8,0,0,0-.267.668,2.606,2.606,0,0,0,.689-.324,1.025,1.025,0,0,0,.288-.355,1.009,1.009,0,0,0,.1-.453.528.528,0,0,0-.021-.18.067.067,0,0,0-.062-.046.563.563,0,0,0-.36.19" transform="translate(-618.952 -941.941)" fill="#7a7d7e"/>
        <path id="Path_455" data-name="Path 455" d="M694.252,975.315q.391,0,.632-.015l-.026.1a1.1,1.1,0,0,0-.272.041.263.263,0,0,0-.139.118,1.09,1.09,0,0,0-.1.278l-.668,2.5a1.233,1.233,0,0,0-.041.242.144.144,0,0,0,.072.144.775.775,0,0,0,.267.046l-.021.1q-.231-.015-.627-.015t-.658.015l.021-.1a1.1,1.1,0,0,0,.272-.041.262.262,0,0,0,.139-.118,1.091,1.091,0,0,0,.1-.278l.73-2.72-2.093,3.28h-.113l-.339-3.321-.715,2.71a1.24,1.24,0,0,0-.041.252.185.185,0,0,0,.082.175.726.726,0,0,0,.293.057l-.026.1q-.17-.015-.509-.015t-.473.015l.026-.1a.8.8,0,0,0,.273-.051.325.325,0,0,0,.149-.139,1.213,1.213,0,0,0,.108-.293l.658-2.452a1.242,1.242,0,0,0,.041-.242.144.144,0,0,0-.072-.144.778.778,0,0,0-.267-.046l.026-.1q.159.015.447.015t.442-.015l.278,2.992,1.9-2.977Z" transform="translate(-654.524 -925.155)" fill="#7a7d7e"/>
        <path id="Path_456" data-name="Path 456" d="M779.044,994.935h.1l-.129.37a.9.9,0,0,1-.257.4.514.514,0,0,1-.324.123.37.37,0,0,1-.164-.036.282.282,0,0,1-.113-.1.334.334,0,0,1-.046-.175.921.921,0,0,1,.036-.237l.046-.165.093-.365a2.72,2.72,0,0,1-.494.823.737.737,0,0,1-.524.257.412.412,0,0,1-.355-.165.74.74,0,0,1-.123-.442,2.352,2.352,0,0,1,.216-.915,2.762,2.762,0,0,1,.566-.859,1.006,1.006,0,0,1,.7-.355.278.278,0,0,1,.221.1.488.488,0,0,1,.1.283l.082-.314a1.733,1.733,0,0,0,.463-.072l-.632,2.231-.021.077a.431.431,0,0,0-.015.108q0,.129.113.129.221,0,.391-.514Zm-1.29.514a2.793,2.793,0,0,0,.386-.576,4.254,4.254,0,0,0,.308-.771l.093-.36a.934.934,0,0,0,.005-.113.617.617,0,0,0-.072-.324.226.226,0,0,0-.206-.118q-.216,0-.458.334a3.062,3.062,0,0,0-.406.828,2.936,2.936,0,0,0-.164.925.71.71,0,0,0,.046.3.144.144,0,0,0,.134.093.54.54,0,0,0,.339-.216" transform="translate(-736.848 -942.039)" fill="#7a7d7e"/>
        <path id="Path_457" data-name="Path 457" d="M832.262,992.978a.283.283,0,0,1,.082.206.349.349,0,0,1-.108.257.339.339,0,0,1-.247.108.216.216,0,0,1-.144-.046.164.164,0,0,1-.057-.134.319.319,0,0,1,.062-.2.4.4,0,0,1,.164-.129.077.077,0,0,0-.057-.021q-.272,0-.591.586a8.044,8.044,0,0,0-.6,1.553l-.1.4h-.437l.607-2.165a.658.658,0,0,0,.036-.2q0-.118-.108-.118a.262.262,0,0,0-.206.118,1.422,1.422,0,0,0-.19.4l-.067.185h-.1l.128-.37q.18-.519.612-.519a.257.257,0,0,1,.288.293,1.813,1.813,0,0,1-.072.411l-.159.638a4.11,4.11,0,0,1,.514-1.039.67.67,0,0,1,.54-.3.293.293,0,0,1,.216.082" transform="translate(-787.516 -941.846)" fill="#7a7d7e"/>
        <path id="Path_458" data-name="Path 458" d="M870.937,968.219a.273.273,0,0,1,.072.2.437.437,0,0,1-.072.231.242.242,0,0,1-.221.118.18.18,0,0,1-.149-.057.216.216,0,0,1-.046-.144.354.354,0,0,1,.046-.159.555.555,0,0,1,.118-.154h-.01a.236.236,0,0,0-.1.016l-.093.051a.518.518,0,0,0-.123.144,2.092,2.092,0,0,0-.118.242,2.046,2.046,0,0,1-.257.422.648.648,0,0,1-.37.211,1.141,1.141,0,0,1,.524.134.4.4,0,0,1,.206.37.7.7,0,0,1-.016.139l-.1.5a.419.419,0,0,0-.01.1.107.107,0,0,0,.026.082.118.118,0,0,0,.087.026.242.242,0,0,0,.19-.118,1.555,1.555,0,0,0,.185-.4l.062-.185h.1l-.123.37q-.165.519-.6.519a.344.344,0,0,1-.237-.082.314.314,0,0,1-.093-.247.584.584,0,0,1,.021-.149l.093-.432a.928.928,0,0,0,.026-.185.329.329,0,0,0-.134-.288.955.955,0,0,0-.458-.123l-.422,1.44H868.5l1-3.368a.517.517,0,0,0,.026-.139.159.159,0,0,0-.082-.149.549.549,0,0,0-.267-.046l.031-.108a1.963,1.963,0,0,0,.91-.206l-.735,2.514a.865.865,0,0,0,.386-.113.705.705,0,0,0,.226-.211,2.639,2.639,0,0,0,.17-.319,2.1,2.1,0,0,1,.123-.247.575.575,0,0,1,.144-.159.514.514,0,0,1,.3-.118.3.3,0,0,1,.226.077" transform="translate(-823.846 -917.092)" fill="#7a7d7e"/>
        <path id="Path_459" data-name="Path 459" d="M942.261,978.49a.139.139,0,0,0,.072.139.793.793,0,0,0,.273.046l-.021.1q-.231-.015-.643-.015t-.643.015l.026-.1a1.058,1.058,0,0,0,.267-.041.262.262,0,0,0,.139-.118,1.14,1.14,0,0,0,.1-.278l.668-2.5a1.243,1.243,0,0,0,.041-.242.144.144,0,0,0-.072-.144.777.777,0,0,0-.267-.046l.026-.1q.206.015.643.015t.648-.015l-.026.1a1.1,1.1,0,0,0-.272.041.262.262,0,0,0-.139.118,1.09,1.09,0,0,0-.1.278l-.668,2.5a1.45,1.45,0,0,0-.046.247" transform="translate(-892.903 -925.06)" fill="#7a7d7e"/>
        <path id="Path_460" data-name="Path 460" d="M982.824,994.941l-.128.37q-.18.519-.612.519a.35.35,0,0,1-.319-.144.3.3,0,0,1-.041-.165,1.366,1.366,0,0,1,.087-.4l.478-1.445a.956.956,0,0,0,.051-.247q0-.175-.159-.175t-.437.278a3.49,3.49,0,0,0-.483.771,6.81,6.81,0,0,0-.411,1.085l-.093.37h-.437l.607-2.165a.83.83,0,0,0,.036-.185q0-.129-.113-.129a.247.247,0,0,0-.2.113,1.613,1.613,0,0,0-.19.406l-.067.185h-.1l.128-.37q.18-.519.6-.519a.3.3,0,0,1,.231.077.323.323,0,0,1,.067.221,1.805,1.805,0,0,1-.072.411l-.175.689a3.94,3.94,0,0,1,.617-1.08.869.869,0,0,1,.648-.319q.411,0,.411.38a1.19,1.19,0,0,1-.077.386l-.488,1.476a.649.649,0,0,0-.041.19.108.108,0,0,0,.123.123.257.257,0,0,0,.2-.113,1.435,1.435,0,0,0,.2-.4l.067-.185Z" transform="translate(-929.898 -942.04)" fill="#7a7d7e"/>
        <path id="Path_461" data-name="Path 461" d="M1038.8,992.407a.467.467,0,0,1-.108-.3.236.236,0,0,1,.067-.185.231.231,0,0,1,.365.077.825.825,0,0,1,.072.375,1.572,1.572,0,0,1-.01.2,3.4,3.4,0,0,1-.267.982,2.059,2.059,0,0,1-.545.756,1.172,1.172,0,0,1-.787.288.527.527,0,0,1-.452-.18.653.653,0,0,1-.123-.442,2.105,2.105,0,0,1,.344-.925,5.05,5.05,0,0,1,.828-.992,1.882,1.882,0,0,0-.288.149,1.954,1.954,0,0,1-.216.123.387.387,0,0,1-.159.041.2.2,0,0,1-.108-.031l-.067-.036a.294.294,0,0,0-.144-.062.165.165,0,0,0-.134.067.91.91,0,0,0-.113.247l-.057.185h-.1l.113-.37q.139-.514.473-.514a.249.249,0,0,1,.113.021l.118.072a.729.729,0,0,0,.118.077.256.256,0,0,0,.118.026.607.607,0,0,0,.422-.154l.051-.1.108.051a4.7,4.7,0,0,0-.638,1,3.114,3.114,0,0,0-.272,1.023,1.158,1.158,0,0,0-.005.123q0,.422.221.422a.911.911,0,0,0,.668-.308,2.24,2.24,0,0,0,.468-.74,2.416,2.416,0,0,0,.185-.771.758.758,0,0,1-.262-.206" transform="translate(-983.493 -940.807)" fill="#7a7d7e"/>
        <path id="Path_462" data-name="Path 462" d="M1089.473,994.045a4.213,4.213,0,0,1-1.049.5,2.268,2.268,0,0,0-.057.488q0,.483.35.483a.961.961,0,0,0,.776-.5l.082.041a1.55,1.55,0,0,1-.437.478.972.972,0,0,1-.576.2.65.65,0,0,1-.489-.18.731.731,0,0,1-.175-.53,2.052,2.052,0,0,1,.226-.864,2.468,2.468,0,0,1,.607-.823,1.239,1.239,0,0,1,.833-.339.411.411,0,0,1,.267.087.3.3,0,0,1,.108.247.87.87,0,0,1-.458.715m-.386-.766a2.08,2.08,0,0,0-.375.5,2.79,2.79,0,0,0-.267.668,2.608,2.608,0,0,0,.689-.324,1.024,1.024,0,0,0,.288-.355,1,1,0,0,0,.1-.453.527.527,0,0,0-.021-.18.067.067,0,0,0-.062-.046.563.563,0,0,0-.36.19" transform="translate(-1031.966 -941.941)" fill="#7a7d7e"/>
        <path id="Path_463" data-name="Path 463" d="M1127.469,995.613l.134.01a.509.509,0,0,0,.37-.134.521.521,0,0,0,.139-.386.853.853,0,0,0-.062-.314,1.683,1.683,0,0,0-.2-.349,3.125,3.125,0,0,1-.252-.38.739.739,0,0,1-.077-.35.668.668,0,0,1,.108-.37.719.719,0,0,1,.283-.257.854.854,0,0,1,.391-.093.9.9,0,0,1,.437.1.356.356,0,0,1,.175.339.313.313,0,0,1-.057.175.2.2,0,0,1-.175.087.19.19,0,0,1-.144-.062.21.21,0,0,1-.057-.149.551.551,0,0,1,.139-.339.468.468,0,0,0-.252-.062.416.416,0,0,0-.314.129.482.482,0,0,0-.123.35.507.507,0,0,0,.046.226,2.64,2.64,0,0,0,.165.273l.093.134a2.883,2.883,0,0,1,.226.4.849.849,0,0,1,.072.344.73.73,0,0,1-.118.411.807.807,0,0,1-.319.283.94.94,0,0,1-.432.1.893.893,0,0,1-.483-.123.411.411,0,0,1-.2-.375.272.272,0,0,1,.046-.154.17.17,0,0,1,.149-.072.185.185,0,0,1,.165.093.426.426,0,0,1,.056.226,1.484,1.484,0,0,1-.036.262l.1.036" transform="translate(-1069.041 -941.936)" fill="#7a7d7e"/>
        <path id="Path_464" data-name="Path 464" d="M1170.021,981.1a.471.471,0,0,0-.015.113.186.186,0,0,0,.062.149.237.237,0,0,0,.154.051.33.33,0,0,0,.237-.108,1.158,1.158,0,0,0,.216-.4l.072-.2h.1l-.108.319a.911.911,0,0,1-.277.442.668.668,0,0,1-.417.129.46.46,0,0,1-.339-.113.416.416,0,0,1-.113-.308,1.037,1.037,0,0,1,.046-.288l.535-1.856h-.452l.026-.1h.452l.221-.766a1.649,1.649,0,0,0,.452-.072l-.236.838h.668l-.015.1h-.684Z" transform="translate(-1109.454 -927.811)" fill="#7a7d7e"/>
        <path id="Path_465" data-name="Path 465" d="M1205.681,994.941l-.128.37q-.18.519-.612.519a.346.346,0,0,1-.314-.134.334.334,0,0,1-.046-.175,1.356,1.356,0,0,1,.087-.4l.478-1.445a.856.856,0,0,0,.051-.267q0-.154-.113-.154-.288,0-.648.658a9.817,9.817,0,0,0-.7,1.743v-.031l-.036.134h-.452l.632-2.077a.835.835,0,0,0,.051-.257q0-.165-.139-.165t-.417.293a3.783,3.783,0,0,0-.458.807,7.924,7.924,0,0,0-.391,1.126l-.072.278h-.437l.607-2.165a1,1,0,0,0,.036-.185q0-.129-.108-.129a.262.262,0,0,0-.206.118,1.422,1.422,0,0,0-.19.4l-.067.185H1202l.128-.37q.18-.519.612-.519a.264.264,0,0,1,.293.3,1.685,1.685,0,0,1-.077.406l-.159.643a4,4,0,0,1,.571-1.044.768.768,0,0,1,.6-.3q.334,0,.334.355a1.6,1.6,0,0,1-.072.411l-.18.679a6.031,6.031,0,0,1,.4-.838,1.56,1.56,0,0,1,.38-.452.71.71,0,0,1,.432-.144q.355,0,.355.38a1.294,1.294,0,0,1-.072.386l-.489,1.476a.742.742,0,0,0-.041.19.108.108,0,0,0,.123.124.258.258,0,0,0,.2-.113,1.439,1.439,0,0,0,.2-.4l.067-.185Z" transform="translate(-1140.2 -942.04)" fill="#7a7d7e"/>
        <path id="Path_466" data-name="Path 466" d="M1281.373,994.045a4.215,4.215,0,0,1-1.049.5,2.276,2.276,0,0,0-.057.488q0,.483.35.483a.96.96,0,0,0,.776-.5l.082.041a1.55,1.55,0,0,1-.437.478.972.972,0,0,1-.576.2.649.649,0,0,1-.488-.18.731.731,0,0,1-.175-.53,2.053,2.053,0,0,1,.226-.864,2.467,2.467,0,0,1,.607-.823,1.239,1.239,0,0,1,.833-.339.411.411,0,0,1,.267.087.3.3,0,0,1,.108.247.87.87,0,0,1-.458.715m-.385-.766a2.081,2.081,0,0,0-.375.5,2.8,2.8,0,0,0-.267.668,2.6,2.6,0,0,0,.689-.324,1.024,1.024,0,0,0,.288-.355,1.01,1.01,0,0,0,.1-.453.534.534,0,0,0-.021-.18.067.067,0,0,0-.062-.046.562.562,0,0,0-.36.19" transform="translate(-1214 -941.941)" fill="#7a7d7e"/>
        <path id="Path_467" data-name="Path 467" d="M1326.119,994.941l-.128.37q-.18.519-.612.519a.35.35,0,0,1-.319-.144.3.3,0,0,1-.041-.165,1.368,1.368,0,0,1,.088-.4l.478-1.445a.958.958,0,0,0,.052-.247q0-.175-.159-.175t-.437.278a3.488,3.488,0,0,0-.483.771,6.8,6.8,0,0,0-.411,1.085l-.092.37h-.432l.607-2.165a.83.83,0,0,0,.036-.185q0-.129-.113-.129a.248.248,0,0,0-.2.113,1.608,1.608,0,0,0-.19.406l-.067.185h-.1l.129-.37q.18-.519.6-.519a.3.3,0,0,1,.231.077.323.323,0,0,1,.067.221,1.8,1.8,0,0,1-.072.411l-.175.689a3.943,3.943,0,0,1,.617-1.08.869.869,0,0,1,.648-.319q.411,0,.411.38a1.189,1.189,0,0,1-.077.386l-.489,1.476a.643.643,0,0,0-.041.19.108.108,0,0,0,.123.123.256.256,0,0,0,.2-.113,1.438,1.438,0,0,0,.2-.4l.067-.185Z" transform="translate(-1255.547 -942.04)" fill="#7a7d7e"/>
        <path id="Path_468" data-name="Path 468" d="M1381.421,981.1a.447.447,0,0,0-.015.113.185.185,0,0,0,.062.149.237.237,0,0,0,.154.051.329.329,0,0,0,.237-.108,1.154,1.154,0,0,0,.216-.4l.072-.2h.1l-.108.319a.912.912,0,0,1-.278.442.668.668,0,0,1-.417.129.46.46,0,0,1-.339-.113.415.415,0,0,1-.113-.308,1.037,1.037,0,0,1,.046-.288l.535-1.856h-.453l.026-.1h.453l.221-.766a1.648,1.648,0,0,0,.453-.072l-.236.838h.668l-.016.1H1382Z" transform="translate(-1309.985 -927.811)" fill="#7a7d7e"/>
        <path id="Path_469" data-name="Path 469" d="M1409.269,995.613l.134.01a.509.509,0,0,0,.37-.134.521.521,0,0,0,.139-.386.853.853,0,0,0-.062-.314,1.677,1.677,0,0,0-.2-.349,3.125,3.125,0,0,1-.252-.38.739.739,0,0,1-.077-.35.668.668,0,0,1,.108-.37.719.719,0,0,1,.283-.257.854.854,0,0,1,.391-.093.894.894,0,0,1,.437.1.356.356,0,0,1,.175.339.313.313,0,0,1-.057.175.2.2,0,0,1-.175.087.19.19,0,0,1-.144-.062.21.21,0,0,1-.057-.149.55.55,0,0,1,.139-.339.469.469,0,0,0-.252-.062.416.416,0,0,0-.314.129.484.484,0,0,0-.124.35.512.512,0,0,0,.046.226,2.64,2.64,0,0,0,.165.273l.093.134a2.9,2.9,0,0,1,.226.4.849.849,0,0,1,.072.344.73.73,0,0,1-.118.411.806.806,0,0,1-.319.283.94.94,0,0,1-.432.1.893.893,0,0,1-.483-.123.411.411,0,0,1-.2-.375.273.273,0,0,1,.046-.154.17.17,0,0,1,.149-.072.185.185,0,0,1,.165.093.426.426,0,0,1,.056.226,1.484,1.484,0,0,1-.036.262l.1.036" transform="translate(-1336.353 -941.936)" fill="#7a7d7e"/>
      </g>
    </g>
  </g>
</svg>
