<?xml version="1.0" encoding="utf-8"?>
<!-- Generator: Adobe Illustrator 22.1.0, SVG Export Plug-In . SVG Version: 6.00 Build 0)  -->
<svg version="1.1" id="Layer_1" xmlns="http://www.w3.org/2000/svg" xmlns:xlink="http://www.w3.org/1999/xlink" x="0px" y="0px"
	 viewBox="0 0 50 62" style="enable-background:new 0 0 50 62;" xml:space="preserve">
<title>pdf</title>
<g id="Layer_2_1_">
	<g id="Layer_1-2">
		<g>
			<path d="M12,3.4V12H3.4L12,3.4z M2,14h12V2h34v58H2V14z M12.6,0L0,12.6V62h50V0H12.6z"/>
			<path d="M48,20L48,20z"/>
			<path d="M12,39.3v4.6H8.7V30.3h5.4c0.9,0,1.9,0.2,2.7,0.6c0.8,0.4,1.4,0.9,1.9,1.6c0.4,0.7,0.7,1.5,0.7,2.4
				c0.1,1.2-0.5,2.4-1.4,3.2c-1.1,0.8-2.5,1.3-3.9,1.2H12z M12,36.8h2.1c0.5,0,1-0.1,1.4-0.5c0.3-0.4,0.5-0.8,0.5-1.3
				c0-0.6-0.2-1.1-0.5-1.5c-0.4-0.4-0.9-0.6-1.4-0.6H12V36.8z"/>
			<path d="M21.1,43.9V30.3h4.4c1.1,0,2.2,0.3,3.2,0.8c0.9,0.5,1.7,1.3,2.2,2.3c0.5,1,0.8,2.2,0.8,3.3v0.6c0,1.2-0.2,2.3-0.7,3.3
				c-0.5,1-1.3,1.7-2.3,2.3c-1,0.6-2.1,0.8-3.2,0.8L21.1,43.9z M24.4,32.9v8.5h1.1c0.8,0,1.6-0.3,2.1-1c0.6-0.9,0.8-1.9,0.8-3v-0.6
				c0.1-1.1-0.2-2.1-0.8-3c-0.5-0.7-1.3-1-2.2-1L24.4,32.9z"/>
			<polygon points="41.9,38.5 36.7,38.5 36.7,43.9 33.4,43.9 33.4,30.3 42.5,30.3 42.5,32.9 36.7,32.9 36.7,36 41.9,36 			"/>
		</g>
	</g>
</g>
</svg>
