<svg xmlns="http://www.w3.org/2000/svg" viewBox="0 0 32.83 33">
  <title>phone</title>
  <g id="Layer_2" data-name="Layer 2">
    <g id="Layer_1-2" data-name="Layer 1">
      <path d="M.64,29a1.67,1.67,0,0,1,0-2.64L5.3,21.67a1.73,1.73,0,0,1,1.21-.61,1.89,1.89,0,0,1,1.27.63l2.87,2.88a1.72,1.72,0,0,0,2.11.37.6.6,0,0,1,.11-.06c.24-.15.53-.3.83-.45a11.7,11.7,0,0,0,1-.56,31.07,31.07,0,0,0,7.47-6.79h0a19,19,0,0,0,2.71-4.43l0-.08a1.73,1.73,0,0,0-.44-1.91l0,0c-.73-.66-1.41-1.33-2.11-2l-.73-.72a1.61,1.61,0,0,1,0-2.61l2.3-2.3.8-.81c.51-.53,1-1,1.51-1.51l0,0A1.78,1.78,0,0,1,27.49,0a1.9,1.9,0,0,1,1.28.6l2.87,2.86A3.9,3.9,0,0,1,32.8,6a12.09,12.09,0,0,1-.94,5.26A34.21,34.21,0,0,1,25.8,21.31,37.37,37.37,0,0,1,13.4,31a18.14,18.14,0,0,1-6.56,2H6.45a4,4,0,0,1-3.16-1.34C2.77,31.05,2.21,30.5,1.67,30c-.36-.35-.7-.67-1-1h0"/>
    </g>
  </g>
</svg>
