<svg xmlns="http://www.w3.org/2000/svg" viewBox="0 0 16 13">
  <title>twitter</title>
  <g id="Layer_2" data-name="Layer 2">
    <g id="Layer_1-2" data-name="Layer 1">
      <path d="M14.36,3.24c0,.14,0,.28,0,.42A9.27,9.27,0,0,1,5,13a9.3,9.3,0,0,1-5-1.47,6.79,6.79,0,0,0,.78,0,6.58,6.58,0,0,0,4.08-1.4A3.3,3.3,0,0,1,1.79,7.89a3.22,3.22,0,0,0,1.49-.06A3.29,3.29,0,0,1,.64,4.61v0A3.17,3.17,0,0,0,2.13,5,3.29,3.29,0,0,1,1.11.6,9.32,9.32,0,0,0,7.88,4a3.08,3.08,0,0,1-.09-.75A3.28,3.28,0,0,1,13.47,1a6.62,6.62,0,0,0,2.09-.8,3.35,3.35,0,0,1-1.44,1.82A6.64,6.64,0,0,0,16,1.54,6.63,6.63,0,0,1,14.36,3.24Z"/>
    </g>
  </g>
</svg>
