<svg xmlns="http://www.w3.org/2000/svg" viewBox="0 0 50 62">
  <title>xls</title>
  <g id="Layer_2" data-name="Layer 2">
    <g id="Layer_1-2" data-name="Layer 1">
      <g>
        <path d="M12,3.42V12H3.41ZM2,14H14V2H48V60H2ZM12.59,0,0,12.59V62H50V0Z"/>
        <path d="M48,20h0Z"/>
        <polygon points="13.88 34.84 16.09 30.34 19.82 30.34 16.04 37.05 19.92 43.87 16.16 43.87 13.88 39.29 11.61 43.87 7.86 43.87 11.73 37.05 7.96 30.34 11.67 30.34 13.88 34.84"/>
        <polygon points="24.24 41.36 29.92 41.36 29.92 43.87 20.98 43.87 20.98 30.34 24.24 30.34 24.24 41.36"/>
        <path d="M38.27,40.27a1.31,1.31,0,0,0-.51-1.11A6.25,6.25,0,0,0,36,38.33a15.16,15.16,0,0,1-2.08-.83c-1.76-.86-2.63-2-2.63-3.55a3.16,3.16,0,0,1,.65-2,4.33,4.33,0,0,1,1.85-1.34,7.22,7.22,0,0,1,2.7-.48,6.4,6.4,0,0,1,2.61.52,4.21,4.21,0,0,1,1.8,1.49,3.83,3.83,0,0,1,.64,2.19H38.28a1.64,1.64,0,0,0-.51-1.28,2,2,0,0,0-1.37-.45A2.28,2.28,0,0,0,35,33a1.21,1.21,0,0,0-.5,1,1.19,1.19,0,0,0,.56,1,7,7,0,0,0,2,.87,11.86,11.86,0,0,1,2.3,1,3.86,3.86,0,0,1,2.19,3.48A3.27,3.27,0,0,1,40.19,43a6,6,0,0,1-3.67,1,7.16,7.16,0,0,1-3-.59,4.49,4.49,0,0,1-2-1.61,4.24,4.24,0,0,1-.67-2.37h3.27a2,2,0,0,0,.56,1.6,2.6,2.6,0,0,0,1.82.52,2.11,2.11,0,0,0,1.28-.35,1.13,1.13,0,0,0,.47-1"/>
      </g>
    </g>
  </g>
</svg>
