<svg xmlns="http://www.w3.org/2000/svg" xmlns:xlink="http://www.w3.org/1999/xlink" viewBox="0 0 174.57 38.36">
  <defs>
    <style>
      .cls-1 {
        fill: none;
      }

      .cls-2 {
        clip-path: url(#clip-path);
      }

      .cls-3 {
        fill: #0a2240;
      }

      .cls-4 {
        fill: #8c9091;
      }
    </style>
    <clipPath id="clip-path" transform="translate(0 0)">
      <rect class="cls-1" width="174.57" height="38.36"/>
    </clipPath>
  </defs>
  <title>logo</title>
  <g id="Layer_2" data-name="Layer 2">
    <g id="Layer_1-2" data-name="Layer 1">
      <g id="Artwork_9" data-name="Artwork 9">
        <g class="cls-2">
          <g class="cls-2">
            <path class="cls-3" d="M32,0,29.15,9.72h-.46c.15-5.81-2.05-8.67-6.81-9.32L22,0Z" transform="translate(0 0)"/>
            <path class="cls-3" d="M.45,9.72H0L3.2,0H12l-.1.4A20,20,0,0,0,.45,9.72" transform="translate(0 0)"/>
            <path class="cls-3" d="M20.08,0,12.92,25.09a11.81,11.81,0,0,0-.6,3.3c0,1.71,1.5,2.61,3.5,2.76l-.15.4H.8l.15-.4c3.16-.35,4.66-1.9,5.91-6.26L13.92,0Z" transform="translate(0 0)"/>
            <path class="cls-4" d="M22.2,34.15a19.76,19.76,0,0,1,1.3-5.35h-.45c-2.3,3.85-5.16,8.16-10.26,8.76l-.15.4H25.76l.15-.4c-2.16-.35-3.71-1.45-3.71-3.41" transform="translate(0 0)"/>
            <path class="cls-4" d="M53.3,6.41,46.19,31.3c-1.31,4.36-2.71,5.91-5.86,6.26l-.15.4H55l.15-.4c-2-.15-3.5-1.05-3.5-2.76a11.81,11.81,0,0,1,.6-3.3L57.5,13.07c1.26-4.36,2.56-5.91,5.91-6.26l.15-.4Z" transform="translate(0 0)"/>
            <polygon class="cls-4" points="35.6 8.98 31.52 23.26 34.02 38.36 34.22 38.36 38.98 31.4 35.6 8.98"/>
            <polygon class="cls-3" points="71.06 13.72 71.06 19.49 69.14 19.49 69.14 13.72 67.56 13.72 67.56 12.09 72.64 12.09 72.64 13.72 71.06 13.72"/>
            <path class="cls-3" d="M83,19.49H80.6l-1.84-2.85v2.85H76.84v-7.4h3a3,3,0,0,1,1.08.18,2.06,2.06,0,0,1,.76.5,2.08,2.08,0,0,1,.45.72,2.6,2.6,0,0,1,.16.89,2.14,2.14,0,0,1-.41,1.36,2.08,2.08,0,0,1-1.2.72ZM78.76,15.4h.37a1.37,1.37,0,0,0,.87-.24.81.81,0,0,0,.3-.68.79.79,0,0,0-.3-.67,1.37,1.37,0,0,0-.87-.24h-.37Z" transform="translate(0 0)"/>
            <path class="cls-3" d="M89.44,12.09v4c0,.22,0,.44,0,.66a2,2,0,0,0,.15.62,1,1,0,0,0,.39.44,1.61,1.61,0,0,0,1.48,0,1,1,0,0,0,.39-.44,1.57,1.57,0,0,0,.15-.62q0-.33,0-.66v-4H94v4.29a3.45,3.45,0,0,1-.79,2.52,4.13,4.13,0,0,1-4.86,0,3.45,3.45,0,0,1-.79-2.52V12.09Z" transform="translate(0 0)"/>
            <polygon class="cls-3" points="102.66 13.72 100.38 13.72 100.38 14.96 102.53 14.96 102.53 16.58 100.38 16.58 100.38 17.86 102.66 17.86 102.66 19.49 98.45 19.49 98.45 12.09 102.66 12.09 102.66 13.72"/>
            <polygon class="cls-3" points="107.75 19.49 109 12.09 110.9 12.09 112.39 16.03 113.86 12.09 115.76 12.09 117.01 19.49 115.1 19.49 114.46 15.23 112.72 19.49 111.95 19.49 110.3 15.23 109.66 19.49 107.75 19.49"/>
            <path class="cls-3" d="M125.57,18.2h-2.74l-.45,1.29h-2l2.82-7.4h2.1l2.81,7.4h-2Zm-.51-1.46-.86-2.46-.86,2.46Z" transform="translate(0 0)"/>
            <path class="cls-3" d="M138.09,19.49H135.7l-1.83-2.85v2.85H132v-7.4h3a3,3,0,0,1,1.08.18,2.14,2.14,0,0,1,.76.5,2.24,2.24,0,0,1,.45.72,2.6,2.6,0,0,1,.15.89,2.14,2.14,0,0,1-.41,1.36,2.08,2.08,0,0,1-1.2.72Zm-4.22-4.09h.36a1.37,1.37,0,0,0,.87-.24.79.79,0,0,0,.31-.68.77.77,0,0,0-.31-.67,1.37,1.37,0,0,0-.87-.24h-.36Z" transform="translate(0 0)"/>
            <polygon class="cls-3" points="144.31 15.14 146.65 12.09 149.02 12.09 146.09 15.59 149.3 19.49 146.81 19.49 144.31 16.28 144.31 19.49 142.38 19.49 142.38 12.09 144.31 12.09 144.31 15.14"/>
            <rect class="cls-3" x="67.56" y="26.77" width="1.92" height="7.39"/>
            <polygon class="cls-3" points="75.16 34.16 75.16 26.77 77.08 26.77 80.63 31.29 80.63 26.77 82.54 26.77 82.54 34.16 80.63 34.16 77.08 29.64 77.08 34.16 75.16 34.16"/>
            <polygon class="cls-3" points="87.39 26.77 89.18 31.27 90.97 26.77 93.06 26.77 89.94 34.16 88.41 34.16 85.3 26.77 87.39 26.77"/>
            <polygon class="cls-3" points="101.62 28.4 99.33 28.4 99.33 29.63 101.49 29.63 101.49 31.26 99.33 31.26 99.33 32.54 101.62 32.54 101.62 34.16 97.41 34.16 97.41 26.77 101.62 26.77 101.62 28.4"/>
            <path class="cls-3" d="M111.51,28.66a2.3,2.3,0,0,0-.63-.37,1.52,1.52,0,0,0-.61-.13,1,1,0,0,0-.61.18.56.56,0,0,0-.23.46.44.44,0,0,0,.12.32.87.87,0,0,0,.3.22,2.52,2.52,0,0,0,.44.17l.47.14a3,3,0,0,1,1.38.84,2.09,2.09,0,0,1,.44,1.37,2.63,2.63,0,0,1-.2,1,2.09,2.09,0,0,1-.55.79,2.6,2.6,0,0,1-.91.51,3.76,3.76,0,0,1-1.21.18,4.51,4.51,0,0,1-2.6-.83l.83-1.55a3.72,3.72,0,0,0,.85.57,2.11,2.11,0,0,0,.83.18,1,1,0,0,0,.71-.21.68.68,0,0,0,.23-.49.65.65,0,0,0-.06-.29.7.7,0,0,0-.2-.23,1.49,1.49,0,0,0-.36-.19l-.53-.2a6.34,6.34,0,0,1-.73-.26,2.38,2.38,0,0,1-.64-.37,1.69,1.69,0,0,1-.45-.6,2,2,0,0,1-.17-.9,2.66,2.66,0,0,1,.18-1,2.12,2.12,0,0,1,.51-.76,2.26,2.26,0,0,1,.8-.5,3,3,0,0,1,1.07-.18,4.67,4.67,0,0,1,1.14.16,5.35,5.35,0,0,1,1.15.44Z" transform="translate(0 0)"/>
            <polygon class="cls-3" points="120.14 28.4 120.14 34.16 118.22 34.16 118.22 28.4 116.64 28.4 116.64 26.77 121.72 26.77 121.72 28.4 120.14 28.4"/>
            <polygon class="cls-3" points="124.88 34.16 126.13 26.77 128.03 26.77 129.51 30.71 130.99 26.77 132.89 26.77 134.14 34.16 132.23 34.16 131.59 29.91 129.85 34.16 129.08 34.16 127.42 29.91 126.79 34.16 124.88 34.16"/>
            <polygon class="cls-3" points="142.95 28.4 140.66 28.4 140.66 29.63 142.82 29.63 142.82 31.26 140.66 31.26 140.66 32.54 142.95 32.54 142.95 34.16 138.74 34.16 138.74 26.77 142.95 26.77 142.95 28.4"/>
            <polygon class="cls-3" points="147.48 34.16 147.48 26.77 149.4 26.77 152.95 31.29 152.95 26.77 154.87 26.77 154.87 34.16 152.95 34.16 149.4 29.64 149.4 34.16 147.48 34.16"/>
            <polygon class="cls-3" points="162.47 28.4 162.47 34.16 160.54 34.16 160.54 28.4 158.97 28.4 158.97 26.77 164.05 26.77 164.05 28.4 162.47 28.4"/>
            <path class="cls-3" d="M173.5,28.66a2.3,2.3,0,0,0-.63-.37,1.52,1.52,0,0,0-.61-.13,1,1,0,0,0-.6.18.55.55,0,0,0-.24.46.44.44,0,0,0,.12.32.91.91,0,0,0,.31.22,2.41,2.41,0,0,0,.43.17l.47.14a3,3,0,0,1,1.38.84,2.09,2.09,0,0,1,.44,1.37,2.63,2.63,0,0,1-.19,1,2.23,2.23,0,0,1-.56.79,2.64,2.64,0,0,1-.9.51,3.8,3.8,0,0,1-1.21.18,4.47,4.47,0,0,1-2.6-.83l.82-1.55a3.72,3.72,0,0,0,.85.57,2.12,2.12,0,0,0,.84.18,1,1,0,0,0,.7-.21.68.68,0,0,0,.23-.49.65.65,0,0,0-.06-.29.6.6,0,0,0-.2-.23,1.62,1.62,0,0,0-.35-.19l-.54-.2a6.34,6.34,0,0,1-.73-.26,2.38,2.38,0,0,1-.64-.37,2,2,0,0,1-.45-.6,2.12,2.12,0,0,1-.17-.9,2.66,2.66,0,0,1,.18-1,2.12,2.12,0,0,1,.51-.76,2.22,2.22,0,0,1,.81-.5,3,3,0,0,1,1.06-.18,4.75,4.75,0,0,1,1.15.16,5.08,5.08,0,0,1,1.14.44Z" transform="translate(0 0)"/>
          </g>
        </g>
      </g>
    </g>
  </g>
</svg>
