<svg xmlns="http://www.w3.org/2000/svg" xmlns:xlink="http://www.w3.org/1999/xlink" viewBox="0 0 202.87 64.04">
  <defs>
    <style>
      .cls-1 {
        fill: #888a8c;
      }

      .cls-2 {
        fill: url(#linear-gradient);
      }

      .cls-3 {
        fill: url(#linear-gradient-2);
      }

      .cls-4 {
        fill: url(#linear-gradient-3);
      }

      .cls-5 {
        fill: url(#linear-gradient-4);
      }

      .cls-6 {
        fill: url(#linear-gradient-5);
      }

      .cls-7, .cls-8 {
        fill: #fff;
      }

      .cls-7 {
        opacity: 0.62;
        isolation: isolate;
      }

      .cls-9 {
        fill: #bc8b41;
      }
    </style>
    <linearGradient id="linear-gradient" x1="-455.19" y1="2078.7" x2="-454.19" y2="2078.7" gradientTransform="matrix(52.95, 0, 0, -58.04, 24104.09, 120673.8)" gradientUnits="userSpaceOnUse">
      <stop offset="0" stop-color="#b1b3b6"/>
      <stop offset="0.49" stop-color="#fff"/>
      <stop offset="0.53" stop-color="#9d9fa2"/>
      <stop offset="1" stop-color="#a3a5a8"/>
    </linearGradient>
    <linearGradient id="linear-gradient-2" x1="-455.17" y1="2078.31" x2="-454.17" y2="2078.31" gradientTransform="matrix(54.31, 0, 0, -58.79, 24721.91, 122211.27)" gradientUnits="userSpaceOnUse">
      <stop offset="0" stop-color="#b1b3b6"/>
      <stop offset="0.49" stop-color="#fff"/>
      <stop offset="0.53" stop-color="#737577"/>
      <stop offset="1" stop-color="#a3a5a8"/>
    </linearGradient>
    <linearGradient id="linear-gradient-3" x1="-455.13" y1="2076.46" x2="-454.13" y2="2076.46" gradientTransform="matrix(58.23, 0, 0, -62.73, 26503.77, 130290.72)" xlink:href="#linear-gradient-2"/>
    <linearGradient id="linear-gradient-4" x1="-454.71" y1="2080.94" x2="-454.71" y2="2080.43" gradientTransform="matrix(50.71, 0, 0, -55.21, 23089.92, 114875.37)" gradientUnits="userSpaceOnUse">
      <stop offset="0" stop-color="#fff"/>
      <stop offset="0.91" stop-color="#bc8b41"/>
    </linearGradient>
    <linearGradient id="linear-gradient-5" x1="-454.7" y1="2083.66" x2="-454.82" y2="2084.99" gradientTransform="matrix(47.46, 0, 0, -49.01, 21612.66, 102176.57)" gradientUnits="userSpaceOnUse">
      <stop offset="0.29"/>
      <stop offset="0.91" stop-color="#fff"/>
    </linearGradient>
  </defs>
  <title>logo-full</title>
  <g id="Layer_2" data-name="Layer 2">
    <g id="Layer_1-2" data-name="Layer 1">
      <g id="Logo_White" data-name="Logo White">
        <g id="LogoMark-2">
          <path id="logoMark_CompoundPathItem_13" data-name="logoMark CompoundPathItem 13" d="M53.15,22.86c-1.52-3.36-1.84-6.2-.95-8.43a6.18,6.18,0,0,1,3.11-3.33,1,1,0,0,0,.54-1.29.72.72,0,0,0-.14-.24L51.09,3.8a1,1,0,0,0-.76-.37H9.22a1,1,0,0,0-.77.37L3.83,9.57A1,1,0,0,0,4,11a.89.89,0,0,0,.25.14,6.18,6.18,0,0,1,3.11,3.33c.89,2.23.57,5.07-.95,8.43a.3.3,0,0,1,0-.08C6.21,23.19.82,32.88,5,43.06c3.3,8,11.53,13.88,24.47,17.5a1,1,0,0,1-.72-1,1,1,0,0,0,1,1,1.15,1.15,0,0,0,.26,0,1,1,0,0,1-.48,0,1,1,0,0,0,.85-.18,1,1,0,0,0,.4-.77,1,1,0,0,1-.72.93C43,57,51.24,51.06,54.54,43.06c4.19-10.17-1.2-19.87-1.43-20.28A.59.59,0,0,1,53.15,22.86ZM28.82,59.61h0a1,1,0,0,1,1-1,.84.84,0,0,1,.27,0,1,1,0,0,0-.54,0,1,1,0,0,1,1.2,1,1,1,0,0,0-.72-1C17.7,55.22,9.9,49.72,6.84,42.33,3,33.05,8.1,23.85,8.16,23.75a.25.25,0,0,1,0-.07c1.76-3.9,2.09-7.27,1-10A8.21,8.21,0,0,0,5,9.27a1,1,0,0,1,.55,1.28.79.79,0,0,1-.15.25L10,5a1,1,0,0,1-.77.37H50.33A1,1,0,0,1,49.56,5l4.62,5.77a1,1,0,0,1,.15-1.38,1.28,1.28,0,0,1,.25-.15,8.21,8.21,0,0,0-4.2,4.38c-1.11,2.76-.79,6.13,1,10a.2.2,0,0,1,0,.08c.06.09,5.15,9.3,1.31,18.57-3.06,7.4-10.85,12.89-23.16,16.33A1,1,0,0,0,28.82,59.61Z"/>
          <path id="logoMark_CompoundPathItem_14" data-name="logoMark CompoundPathItem 14" class="cls-1" d="M54.48,22.26c-1.35-3-1.66-5.42-.94-7.27a4.86,4.86,0,0,1,2.33-2.54,2.45,2.45,0,0,0,1.32-3.21,2.56,2.56,0,0,0-.33-.58L52.24,2.89A2.45,2.45,0,0,0,50.33,2H9.22a2.43,2.43,0,0,0-1.91.92L2.69,8.66a2.44,2.44,0,0,0,.38,3.43,2.27,2.27,0,0,0,.64.37A4.87,4.87,0,0,1,6,15c.72,1.85.41,4.3-.94,7.27a.66.66,0,0,1,1.2.54l0-.09a.67.67,0,0,0-.24-.9.66.66,0,0,0-.9.25h0c-.25.43-6,10.72-1.51,21.55C7.14,52.05,15.7,58.22,29.09,62a.64.64,0,0,0,.81-.44.65.65,0,0,0-.44-.82h0a1.14,1.14,0,0,1-.82-1.1.66.66,0,0,0-1.32,0,2.47,2.47,0,0,0,2.46,2.47,2.23,2.23,0,0,0,.63-.09.68.68,0,0,0,.49-.81.64.64,0,0,0-.76-.48h0a1.49,1.49,0,0,1-.63,0A.66.66,0,0,1,29.12,62h0a2.44,2.44,0,0,0,3-1.67,2.24,2.24,0,0,0,.1-.68.66.66,0,0,0-.63-.68.65.65,0,0,0-.68.63,0,0,0,0,0,0,0,1.14,1.14,0,0,1-.83,1.08A.65.65,0,1,0,30.43,62h0c13.39-3.74,21.95-9.91,25.43-18.35,4.46-10.83-1.27-21.12-1.51-21.55a.66.66,0,0,0-.9-.24.65.65,0,0,0-.24.89.31.31,0,0,0,0,.1.65.65,0,0,0,.87.32A.65.65,0,0,0,54.48,22.26Zm-1.24.45c.23.41,5.65,10.16,1.43,20.4-3.32,8-11.58,14-24.56,17.59A.65.65,0,1,1,30.49,62h0a2.41,2.41,0,0,0,1.79-2.34.66.66,0,0,0-1.32,0v0a1.11,1.11,0,0,1-.44.9,1.14,1.14,0,0,1-1,.2.68.68,0,0,0-.84.44.67.67,0,0,0,.46.81,2.46,2.46,0,0,0,1.32,0,.65.65,0,1,1-.34-1.26H30a1.14,1.14,0,0,1-1.38-.83,1.43,1.43,0,0,1,0-.29.66.66,0,0,0-1.32,0A2.46,2.46,0,0,0,29.09,62a.66.66,0,0,1-.45-.82.65.65,0,0,1,.8-.44c-13-3.63-21.25-9.55-24.56-17.59-4.23-10.24,1.2-20,1.43-20.4a.66.66,0,1,1-1.14-.65,1.85,1.85,0,0,0-.1.2.66.66,0,1,0,1.2.54c1.5-3.31,1.82-6.1,1-8.29a6.06,6.06,0,0,0-3-3.26,1.13,1.13,0,0,1-.67-1.46,1,1,0,0,1,.18-.31L8.34,3.71a1.11,1.11,0,0,1,.88-.43H50.33a1.12,1.12,0,0,1,.88.43l4.62,5.77a1.15,1.15,0,0,1-.2,1.61,1.17,1.17,0,0,1-.27.15,6,6,0,0,0-3,3.27c-.86,2.19-.54,5,1,8.29a.66.66,0,0,1,1.19-.55,1.14,1.14,0,0,0-.1-.19.66.66,0,1,1-1.14.65Z"/>
          <path id="logoMark_CompoundPathItem_15" data-name="logoMark CompoundPathItem 15" class="cls-1" d="M27.36,59.6v0a.66.66,0,1,0,1.31,0h0a1.14,1.14,0,0,1,1.14-1.13,1,1,0,0,1,.29,0,.66.66,0,0,1-.43-.83.67.67,0,0,1,.77-.44,2.52,2.52,0,0,0-1.28,0l-.11,0a.65.65,0,0,0-.41.83.66.66,0,0,0,.79.43,1.12,1.12,0,0,1,1.44,1.08.67.67,0,0,0,.64.69.66.66,0,0,0,.68-.64v-.05a2.46,2.46,0,0,0-1.79-2.37C18.55,53.94,11.08,48.74,8.2,41.78,4.65,33.24,9.38,24.55,9.42,24.47a1.74,1.74,0,0,0,.1-.19c1.94-4.27,2.27-8,1-11.17a9.75,9.75,0,0,0-5-5.2A.66.66,0,0,0,5,9.14a1.13,1.13,0,0,1,.64,1.46,1,1,0,0,1-.18.3.66.66,0,0,1,1,.82h0L11.13,6a.66.66,0,0,1-.93.1.65.65,0,0,1-.1-.92,1.11,1.11,0,0,1-.88.42.65.65,0,0,0-.63.68.64.64,0,0,0,.63.63H50.33A.64.64,0,0,0,51,6.23a.66.66,0,0,0-.63-.68h-.05a1.13,1.13,0,0,1-.89-.42.65.65,0,0,0-1,.82L53,11.72a.65.65,0,0,1,1-.82h0a1.13,1.13,0,0,1,.18-1.59,1.22,1.22,0,0,1,.29-.17.66.66,0,0,0,.37-.85.65.65,0,0,0-.85-.37,9.73,9.73,0,0,0-5,5.19c-1.27,3.14-.94,6.9,1,11.17a1.24,1.24,0,0,0,.1.2c0,.08,4.75,8.79,1.22,17.3-2.88,7-10.36,12.16-22.21,15.47A2.45,2.45,0,0,0,27.36,59.6Zm2.14-1.08c12.25-3.42,20-8.89,23.07-16.23,3.77-9.1-1.09-18.08-1.3-18.46a1,1,0,0,1,0-.1c-1.79-3.93-2.11-7.33-1-10.13a8.46,8.46,0,0,1,4.28-4.47.66.66,0,0,1-.48-1.22h0a2.46,2.46,0,0,0-1,3.8.66.66,0,0,0,1.1-.72.35.35,0,0,0-.07-.09L49.45,5.13a.66.66,0,0,1-1,.85l0,0a2.46,2.46,0,0,0,1.91.92A.66.66,0,0,0,51,6.23a.65.65,0,0,0-.63-.68H9.22a.66.66,0,0,0,0,1.32A2.46,2.46,0,0,0,11.13,6,.67.67,0,0,0,11,5a.65.65,0,0,0-.92.11L5.48,10.9a.66.66,0,0,0,1,.82,2.44,2.44,0,0,0-.38-3.43,2.22,2.22,0,0,0-.63-.37A.66.66,0,0,1,5,9.15H5A8.48,8.48,0,0,1,9.3,13.6c1.13,2.8.8,6.21-1,10.14l-.05.09c0,.1-5.09,9.32-1.3,18.46,3,7.35,10.81,12.81,23.07,16.23a1.15,1.15,0,0,1,.82,1.11.66.66,0,0,0,.64.68.65.65,0,0,0,.68-.63v0a2.44,2.44,0,0,0-1-2,2.4,2.4,0,0,0-2.15-.39.66.66,0,1,1,.38,1.26h0a1.18,1.18,0,0,1,.62,0,.67.67,0,0,0,.81-.47.66.66,0,0,0-.47-.8h0a2.44,2.44,0,0,0-3,1.72,2.29,2.29,0,0,0-.08.64.66.66,0,0,0,.65.66.67.67,0,0,0,.66-.66h0A1.13,1.13,0,0,1,29.5,58.52Z"/>
          <path id="logoMark_CompoundPathItem_16" data-name="logoMark CompoundPathItem 16" class="cls-1" d="M56.28,21.45c-1.1-2.44-1.42-4.42-.9-5.74a2.83,2.83,0,0,1,1.29-1.46A4.43,4.43,0,0,0,59,8.44a4.53,4.53,0,0,0-.61-1,.66.66,0,0,1-1,.87.65.65,0,0,0,.9,0c.47-.42.36-.55-.64-1.8l-1.59-2-2.3-2.88A4.42,4.42,0,0,0,50.33,0H9.22A4.39,4.39,0,0,0,5.77,1.66a.64.64,0,0,0,.11.92.66.66,0,0,0,.87,0,.66.66,0,0,1-1-.88L1.15,7.43A4.42,4.42,0,0,0,3,14.3a.66.66,0,0,1,.44-1.24.66.66,0,0,0-.49,1.21,2.93,2.93,0,0,1,1.24,1.45c.52,1.31.21,3.3-.9,5.73a.66.66,0,0,1,1.2.54h0a1.32,1.32,0,1,1,2.4,1.08.62.62,0,0,1,.59-.36.66.66,0,0,1,.66.65.62.62,0,0,1-.09.32,2.63,2.63,0,0,0-4.58-2.59C3.19,21.56-3,32.65,1.84,44.36c3.72,9,12.71,15.59,26.72,19.5A2.63,2.63,0,0,0,30,58.8a.66.66,0,0,1-.35,1.27.48.48,0,0,1-.35-.46,1.32,1.32,0,0,1-2.63,0,.66.66,0,1,0-1.31,0A4.42,4.42,0,0,0,29.75,64a4.56,4.56,0,0,0,1.16-.15,2.65,2.65,0,0,0,1.87-3.22,2.6,2.6,0,0,0-3.14-1.89h0l.16,0a.66.66,0,0,0-.66.64.64.64,0,0,0,.61.67h-.07a.66.66,0,0,0,.79-.49.65.65,0,0,0-.45-.78,2.63,2.63,0,1,0-1.47,5l.12,0a4.42,4.42,0,0,0,5.42-3.1,4.18,4.18,0,0,0,.16-1.17,2.63,2.63,0,0,0-5.26,0,.66.66,0,0,0,1.32,0h0a.47.47,0,0,1-.35.45.66.66,0,0,0,.45-.82.65.65,0,0,0-.81-.45A2.63,2.63,0,1,0,31,63.86h0C45,60,54,53.39,57.71,44.37c4.83-11.72-1.35-22.81-1.62-23.28a2.63,2.63,0,1,0-4.57,2.6.67.67,0,0,0,.9.25.66.66,0,0,0,.28-.82L52.64,23a.67.67,0,0,0-.92-.18.66.66,0,0,0-.22.83A2.65,2.65,0,0,0,55,24.89a2.61,2.61,0,0,0,1.29-3.44ZM54.43,23.7a1.32,1.32,0,0,1-1.75-.64.66.66,0,0,1-1.14.66l-.06-.12a.66.66,0,0,1,.37-.85.66.66,0,0,1,.82.29,1.32,1.32,0,0,1,.49-1.8,1.31,1.31,0,0,1,1.79.5c.25.44,6.13,11,1.54,22.12-3.56,8.63-12.26,14.93-25.85,18.73a1.31,1.31,0,0,1-.71-2.53.65.65,0,1,1-.35-1.26h0a.86.86,0,0,0-.62.82.66.66,0,0,0,1.32,0h0a1.31,1.31,0,0,1,2.62,0h0a3.1,3.1,0,0,1-3.1,3.1,2.88,2.88,0,0,1-.82-.1A1.36,1.36,0,0,1,28,61a1.33,1.33,0,0,1,1.63-.93A.65.65,0,1,1,30,58.8h0l-.2,0a.66.66,0,0,1,.62.69.65.65,0,0,1-.66.62h.19a1.28,1.28,0,0,1,1.57.92h0a1.32,1.32,0,0,1-1,1.61,3.1,3.1,0,0,1-3.81-2.2,3.16,3.16,0,0,1-.11-.81.66.66,0,1,0-1.31,0,2.63,2.63,0,1,0,5.25.1v-.1a.84.84,0,0,0-.61-.81.66.66,0,0,0-.35,1.27,1.31,1.31,0,0,1-.71,2.53c-13.6-3.8-22.3-10.1-25.86-18.73C-1.53,32.73,4.34,22.18,4.6,21.74A1.31,1.31,0,0,1,6.88,23a.66.66,0,0,0,.25.89.72.72,0,0,0,.32.08.68.68,0,0,0,.62-.42,2.63,2.63,0,0,0-4.8-2.14h0a.66.66,0,0,0,.33.87A.67.67,0,0,0,4.47,22c1.26-2.77,1.57-5.11.92-6.76a4.13,4.13,0,0,0-1.85-2.12.64.64,0,0,1,.29.83.66.66,0,0,1-.8.37.66.66,0,0,0,.44-1.24,3.1,3.1,0,0,1-1.76-4,3.06,3.06,0,0,1,.47-.8L4.49,5.37l1.58-2c1-1.25,1.11-1.38.65-1.8a.65.65,0,0,0-.9,0,.65.65,0,0,1,.93,0,.67.67,0,0,1,0,.87A3.08,3.08,0,0,1,9.22,1.31H50.33a3.1,3.1,0,0,1,2.42,1.17l4.61,5.77a.66.66,0,0,1,.09-.93.65.65,0,0,1,.89,0,.66.66,0,0,0-1,.88,3.11,3.11,0,0,1-.51,4.37,3.06,3.06,0,0,1-.71.43,4.12,4.12,0,0,0-2,2.18c-.65,1.66-.33,4,.92,6.76a1.3,1.3,0,0,1-.65,1.71Z"/>
          <path id="logoMark_CompoundPathItem_17" data-name="logoMark CompoundPathItem 17" class="cls-1" d="M51.52,23.69c.22.37,5.19,9.3,1.33,18.67-3.08,7.45-10.9,13-23.27,16.44a.65.65,0,1,0,.35,1.26,1.31,1.31,0,0,1,.71,2.53h0A.66.66,0,1,0,31,63.86h0a4.42,4.42,0,0,0,3.23-4.24.66.66,0,0,0-1.32,0h0a1.31,1.31,0,1,1-2.62,0,.52.52,0,0,1-.2.39.47.47,0,0,1-.4.07,1.31,1.31,0,0,1,.77.61,1.34,1.34,0,0,1,.11,1,1.32,1.32,0,0,1-1.6.92.66.66,0,0,0-.34,1.27,4.48,4.48,0,0,0,2.3,0,.66.66,0,0,1-.33-1.27A1.32,1.32,0,0,1,29,61.68a1.33,1.33,0,0,1,.94-1.61.66.66,0,0,1-.38-1.26h0a.66.66,0,0,0-.47.8.65.65,0,0,0,.79.47h0a.49.49,0,0,1-.39-.1.51.51,0,0,1-.19-.39.66.66,0,1,0,1.32,0h0a2.63,2.63,0,0,0-5.26,0,4.43,4.43,0,0,0,3.23,4.25.65.65,0,1,1,.35-1.26,1.31,1.31,0,0,1,.71-2.53A.66.66,0,1,0,30,58.79h0c-12.37-3.45-20.2-9-23.27-16.43C2.83,33,7.81,24.06,8,23.68a2.63,2.63,0,0,0-4.58-2.59c-.07.12-.13.24-.19.37a2.63,2.63,0,1,0,4.8,2.15c1.73-3.81,2.06-7.11,1-9.82A8.12,8.12,0,0,0,5,9.44a.65.65,0,0,1,.34.86.66.66,0,0,1-.6.4.62.62,0,0,1-.58-.4.47.47,0,0,1,.09-.41.65.65,0,0,0,.1.92.66.66,0,0,0,.93-.1h0L9.87,5a.66.66,0,1,0-1-.84h0A.47.47,0,0,1,9.22,4a.65.65,0,0,0-.63.68.66.66,0,0,0,.63.63H50.33A.66.66,0,0,0,50.38,4a0,0,0,0,0-.05,0,.45.45,0,0,1,.37.17.66.66,0,0,1-.09.93.65.65,0,0,1-.89,0l0,0,4.62,5.77a.66.66,0,0,1,1-.83.48.48,0,0,1-.21.75.65.65,0,0,1-.83-.41.66.66,0,0,1,.33-.81,8.17,8.17,0,0,0-4.11,4.37c-1.06,2.71-.73,6,1,9.83a.66.66,0,0,0,1.2-.54A1.31,1.31,0,1,1,55.08,22a.66.66,0,1,0,1.2-.54c-.05-.12-.12-.24-.18-.36a.65.65,0,0,0-.9-.24.65.65,0,0,0-.24.89h0A1.32,1.32,0,0,1,52.67,23a.66.66,0,1,1-1.12.68l0,0Zm3.59,1a2.62,2.62,0,0,0,1-3.58.66.66,0,0,1-1.14.66,1,1,0,0,1,.12.23.66.66,0,0,1,1.2-.54h0a2.63,2.63,0,1,0-4.78,2.18.67.67,0,0,1,.33-.88.66.66,0,0,1,.87.33c-1.57-3.47-1.9-6.43-1-8.8a6.75,6.75,0,0,1,3.4-3.63.66.66,0,0,0-.5-1.22.83.83,0,0,0-.31,1.3.66.66,0,1,0,1-.83h0L50.66,4.07a.66.66,0,0,0-1,.87.84.84,0,0,0,.66.32.66.66,0,0,0,0-1.31H9.22a.66.66,0,0,0,0,1.31A.83.83,0,0,0,9.87,5a.66.66,0,1,1-1-.83L4.23,9.89a.67.67,0,0,1,.93-.1.65.65,0,0,1,.1.92h0A.84.84,0,0,0,5.41,10a.75.75,0,0,0-.69-.58.66.66,0,0,0-.66.65.68.68,0,0,0,.4.62,6.73,6.73,0,0,1,3.38,3.62c.93,2.37.6,5.33-1,8.8A1.31,1.31,0,0,1,4.46,22a2.1,2.1,0,0,1,.13-.26,1.31,1.31,0,0,1,1.79-.5h0A1.31,1.31,0,0,1,6.88,23c-.23.4-5.51,9.87-1.4,19.83,3.24,7.85,11.36,13.63,24.13,17.2A.66.66,0,1,1,30,58.8a2.63,2.63,0,1,0-1.42,5.06.67.67,0,0,0,.81-.46.65.65,0,0,0-.45-.81,3.11,3.11,0,0,1-2.27-3,1.32,1.32,0,0,1,2.63,0,.66.66,0,1,0,1.31,0h0a.79.79,0,0,0-.33-.65.78.78,0,0,0-.75-.13.66.66,0,0,0,.28,1.28l.18-.05a.66.66,0,0,0,.41-.83.66.66,0,0,0-.8-.43,2.63,2.63,0,1,0,1.36,5.08h0a.65.65,0,0,0,.49-.78.64.64,0,0,0-.78-.5h0a3.33,3.33,0,0,1-1.63,0,.64.64,0,0,1,.46.8.66.66,0,0,1-.8.47A2.65,2.65,0,0,0,31.84,62a2.57,2.57,0,0,0-.25-1.92A2.52,2.52,0,0,0,30,58.82a.83.83,0,0,0-.73.14.84.84,0,0,0-.33.67,2.63,2.63,0,0,0,5.26,0h0a.66.66,0,0,0-1.32,0h0a3.09,3.09,0,0,1-2.26,3,.65.65,0,0,1,.81.45.67.67,0,0,1-.46.81,2.63,2.63,0,0,0-1.41-5.06.66.66,0,0,1,.81.46.67.67,0,0,1-.46.81c12.78-3.57,20.9-9.36,24.13-17.2,4.11-10-1.17-19.43-1.4-19.83a.66.66,0,0,0-1.14.65,2.62,2.62,0,0,0,3.58,1Z"/>
          <path id="logoMark_CompoundPathItem_18" data-name="logoMark CompoundPathItem 18" class="cls-2" d="M26,59.6v0a2,2,0,0,0,3.94,0h0a.16.16,0,0,1-.07.15.2.2,0,0,1-.15,0,2,2,0,0,1,1-3.8,3.83,3.83,0,0,0-2,0l-.17.05a2,2,0,0,0,1.15,3.77.25.25,0,0,1-.17,0,.22.22,0,0,1-.08-.15,2,2,0,0,0,3.94,0h0A3.77,3.77,0,0,0,30.76,56c-11.44-3.2-18.63-8.15-21.35-14.71-3.29-7.93,1.12-16.09,1.16-16.17a1.71,1.71,0,0,0,.14-.27c2.1-4.63,2.44-8.74,1-12.23A11,11,0,0,0,6,6.69a2,2,0,0,1-1.45,3.67.19.19,0,0,1-.1-.24l0,0a2,2,0,0,0,3.08,2.47l4.62-5.78A2,2,0,1,1,9.08,4.3a.19.19,0,0,1,.14-.07,2,2,0,0,0,0,3.94H50.33a2,2,0,0,0,0-3.94.19.19,0,0,1,.14.07,2,2,0,1,0-3.08,2.46L52,12.54a2,2,0,1,1,3.08-2.47.19.19,0,0,1,0,.26l0,0a2,2,0,0,1-1.46-3.67,11.06,11.06,0,0,0-5.75,5.92c-1.41,3.49-1.07,7.6,1,12.21.05.1.1.21.16.31s4.43,8.23,1.15,16.15C47.41,47.84,40.24,52.79,28.79,56A3.77,3.77,0,0,0,26,59.6Zm3.81.18c12.67-3.53,20.72-9.26,23.93-17,4-9.68-1.13-19.19-1.36-19.59,0,0,0,0,0,0-1.63-3.6-2-6.67-1-9.12A7.09,7.09,0,0,1,55,10.35a2,2,0,0,0-1.45-3.66,3.75,3.75,0,0,0-2.11,4.88,3.5,3.5,0,0,0,.56,1,2,2,0,1,0,3.08-2.47L50.47,4.3a2,2,0,0,1-3.08,2.46,3.73,3.73,0,0,0,2.93,1.42,2,2,0,0,0,0-3.95H9.22a2,2,0,0,0,0,3.95,3.76,3.76,0,0,0,2.94-1.42A2,2,0,0,0,9.08,4.3L4.46,10.07a2,2,0,0,1,3.11,2.42l0,0A3.75,3.75,0,0,0,6,6.69a2,2,0,1,0-1.45,3.66,7.09,7.09,0,0,1,3.55,3.74c1,2.45.67,5.51-1,9.1h0c0,.1-5.42,9.82-1.36,19.6C9,50.52,17,56.24,29.69,59.77a.16.16,0,0,1-.13-.16,2,2,0,0,1,3.94,0,3.75,3.75,0,0,0-3.75-3.75,3.89,3.89,0,0,0-1.07.15,2,2,0,1,1,1.15,3.77h-.07a2,2,0,0,0,1-3.8,3.76,3.76,0,0,0-4.62,2.64,4.14,4.14,0,0,0-.13,1,2,2,0,0,0,3.94,0h0a.16.16,0,0,1-.13.16Z"/>
          <path id="logoMark_CompoundPathItem_19" data-name="logoMark CompoundPathItem 19" class="cls-1" d="M25.39,59.6v0a2.63,2.63,0,1,0,5.25.1v-.1a.66.66,0,0,0-1.31,0v0a.47.47,0,0,1,.47-.47.27.27,0,0,1,.13,0,1.32,1.32,0,0,1,.69-2.54A.66.66,0,1,1,31,55.36a4.59,4.59,0,0,0-2.3,0l-.19.06a2.62,2.62,0,0,0,1.53,5,.65.65,0,0,0-.37-1.25.41.41,0,0,1,.41.08.46.46,0,0,1,.18.37.66.66,0,0,0-1.31,0,2.63,2.63,0,0,0,5.25,0,4.44,4.44,0,0,0-3.23-4.27C19.7,52.22,12.66,47.39,10,41c-3.15-7.6,1.09-15.53,1.13-15.6s.1-.18.16-.32c2.17-4.79,2.52-9.08,1-12.74A11.75,11.75,0,0,0,6.23,6.08.66.66,0,1,1,5.74,7.3,1.32,1.32,0,0,1,6.48,9a1.3,1.3,0,0,1-1.7.74.47.47,0,0,1,.28.32.46.46,0,0,1-.09.42.66.66,0,1,1-1-.79l0,0A2.63,2.63,0,0,0,8.05,13l4.62-5.77a.66.66,0,0,1-.93.09.67.67,0,0,1-.1-.92,1.31,1.31,0,0,1-1.84.21h0a1.32,1.32,0,0,1-.21-1.85.45.45,0,0,1-.37.18.66.66,0,0,0,.68-.63.64.64,0,0,0-.63-.68h0a2.63,2.63,0,1,0,0,5.25H50.33a2.63,2.63,0,1,0,0-5.25.66.66,0,0,0,0,1.31A.46.46,0,0,1,50,4.71a.65.65,0,1,0,1-.82h0a2.63,2.63,0,0,0-4.1,3.29L51.5,13a.66.66,0,0,1,1-.83,1.31,1.31,0,0,1,2-1.64.49.49,0,0,1-.09-.42.5.5,0,0,1,.3-.32,1.32,1.32,0,0,1-1.06-2.41l.08,0a.66.66,0,1,1-.57-1.18l.09,0a11.75,11.75,0,0,0-6.11,6.29c-1.49,3.66-1.14,8,1,12.73.06.12.12.24.19.36.16.31,4.21,8.09,1.11,15.57-2.64,6.36-9.68,11.19-20.91,14.32A4.42,4.42,0,0,0,25.39,59.6Zm3.58-3c11.65-3.25,19-8.33,21.78-15.09,3.33-8.05-1-16.36-1.18-16.7l-.14-.27c-2-4.44-2.35-8.38-1-11.7A10.36,10.36,0,0,1,53.81,7.3a.66.66,0,0,0-.49-1.22h0A2.63,2.63,0,0,0,55.26,11a.87.87,0,0,0,.5-.57.89.89,0,0,0-.16-.74A2.63,2.63,0,0,0,51.5,13a.65.65,0,1,0,1-.82h0L47.91,6.35A1.31,1.31,0,0,1,50,4.71h0a.64.64,0,0,1,.1-.92.65.65,0,0,1,.92.09h0a.86.86,0,0,0-.65-.31.66.66,0,0,0,0,1.32,1.32,1.32,0,0,1,0,2.63H9.22a1.32,1.32,0,1,1,0-2.63h0a.66.66,0,0,0,.68-.63.67.67,0,0,0-.63-.69h0a.84.84,0,0,0-.66.32,2.63,2.63,0,0,0,4,3.42l.1-.14a.65.65,0,0,0-1-.82L7,12.13a1.32,1.32,0,0,1-2-1.65H5a.65.65,0,0,0-.1-.92.66.66,0,0,0-.93.1.84.84,0,0,0,.14,1.18.72.72,0,0,0,.21.12A2.63,2.63,0,0,0,6.23,6.08a.66.66,0,0,0-.85.39.66.66,0,0,0,.36.83,10.36,10.36,0,0,1,5.39,5.56c1.34,3.32,1,7.26-1,11.7l-.12.22c-.05.09-4.62,8.49-1.2,16.75,2.8,6.76,10.13,11.84,21.78,15.09a3.11,3.11,0,0,1,2.26,3,1.31,1.31,0,1,1-2.62,0,.66.66,0,0,0-1.32,0,.85.85,0,0,0,.87.83.83.83,0,0,0,.22,0,.66.66,0,0,1-.37-1.26,1.31,1.31,0,1,1-.77-2.51h0l.13,0a3.26,3.26,0,0,1,1.64,0,.64.64,0,0,0,.8-.46.65.65,0,0,0-.46-.8h0a2.63,2.63,0,0,0-1.38,5.07.87.87,0,0,0,.73-.14.84.84,0,0,0,.33-.67.67.67,0,0,0-.63-.69.66.66,0,0,0-.68.63v.06a1.32,1.32,0,0,1-2.63,0A3.12,3.12,0,0,1,29,56.62Z"/>
          <path id="logoMark_CompoundPathItem_20" data-name="logoMark CompoundPathItem 20" class="cls-1" d="M30,60.42C42.9,56.82,51.09,51,54.39,43c4.12-9.95-1.16-19.75-1.39-20.16a.65.65,0,1,0-1.14.63.65.65,0,0,0,.84.28.63.63,0,0,0,.32-.85c-1.55-3.43-1.87-6.32-.94-8.6A6.44,6.44,0,0,1,55.26,11a2.63,2.63,0,0,0-1.94-4.88,4.41,4.41,0,0,0-2.48,5.73A4.19,4.19,0,0,0,51.5,13a2.63,2.63,0,0,0,4.1-3.28L51,3.89a.66.66,0,0,0-.93-.1.65.65,0,0,0-.1.92h0a1.32,1.32,0,0,1-2.05,1.65.66.66,0,0,1-.1.92.67.67,0,0,1-.93-.1,4.44,4.44,0,0,0,3.45,1.65,2.63,2.63,0,1,0,0-5.25H9.22a2.63,2.63,0,1,0,0,5.25,4.39,4.39,0,0,0,3.45-1.66,2.63,2.63,0,0,0-2.35-4.25,2.67,2.67,0,0,0-1.76,1L4,9.66a.65.65,0,0,1,1,.82A1.34,1.34,0,0,1,5.85,10,1.32,1.32,0,0,1,7,12.13a.66.66,0,1,1,1,.82,4.43,4.43,0,0,0-.69-6.21,4.64,4.64,0,0,0-1.14-.66A2.63,2.63,0,0,0,4.29,11a6.32,6.32,0,0,1,3.18,3.37c.93,2.28.6,5.16-.94,8.58a.66.66,0,0,0,.33.87.67.67,0,0,0,.86-.3A.66.66,0,0,1,6.49,23a.66.66,0,0,0,0,.14.72.72,0,0,1,.08-.32C6.51,23,1,32.92,5.16,43,8.45,51,16.65,56.82,29.52,60.42a.66.66,0,0,0,.36-1.27.51.51,0,0,1,.34.47,1.32,1.32,0,0,1,2.63,0h0a.66.66,0,1,0,1.31,0h0a4.41,4.41,0,0,0-4.4-4.42,4.2,4.2,0,0,0-1.27.19.65.65,0,0,1,.82.44.66.66,0,0,1-.44.82,1.31,1.31,0,0,1,.77,2.51.25.25,0,0,1,.12,0,.65.65,0,0,0-.65.65.66.66,0,1,0,.66-.66h0a.34.34,0,0,1,.2,0,.64.64,0,0,1,.43.82.65.65,0,0,1-.81.43A2.63,2.63,0,1,0,31,55.36h0a4.42,4.42,0,0,0-5.42,3.1,4.57,4.57,0,0,0-.16,1.16,2.63,2.63,0,0,0,5.26.1v-.1a.66.66,0,0,0-.63-.68.67.67,0,0,0-.69.63v0a.48.48,0,0,1,.35-.47.65.65,0,0,1,.81.45.66.66,0,0,1-.45.82Zm-.7-.8a1.32,1.32,0,1,1-2.63,0,3.1,3.1,0,0,1,3.1-3.1,3.24,3.24,0,0,1,.82.11,1.32,1.32,0,0,1-.69,2.54.65.65,0,1,1-.16,0,.64.64,0,0,0-.68.62.65.65,0,0,0,.63.69h.05a.76.76,0,0,0,.21,0l.09,0a2.63,2.63,0,1,0-1.58-5,.66.66,0,0,0,.38,1.26h0a3.09,3.09,0,0,1,3.85,2.08,3,3,0,0,1,.13.89.66.66,0,1,0,1.32,0h0a2.63,2.63,0,0,0-5.26,0,.81.81,0,0,0,.61.79.66.66,0,0,1,.36-1.26C17.41,55.67,9.51,50.08,6.38,42.54c-3.93-9.46,1.27-18.94,1.33-19a.73.73,0,0,0,.08-.33.61.61,0,0,1,0,.14.67.67,0,0,0-.51-.78.66.66,0,0,0-.78.51.65.65,0,0,0,.51.78.66.66,0,0,0,.73-.36c1.7-3.76,2-7,1-9.62a7.72,7.72,0,0,0-3.91-4.1A1.32,1.32,0,0,1,4,8.05a1.3,1.3,0,0,1,1.69-.76h0a3.1,3.1,0,0,1,1.75,4,3,3,0,0,1-.46.8.66.66,0,0,0,.1.93.65.65,0,0,0,.92-.11h0A2.63,2.63,0,0,0,4,9.66a.66.66,0,0,0,.1.93A.65.65,0,0,0,5,10.48H5L9.59,4.71a1.31,1.31,0,0,1,2.33.68,1.29,1.29,0,0,1-.28,1A3.1,3.1,0,0,1,9.22,7.52a1.32,1.32,0,1,1,0-2.63H50.33a1.32,1.32,0,0,1,0,2.63,3.12,3.12,0,0,1-2.42-1.16A.65.65,0,0,0,47,6.25a.67.67,0,0,0-.11.93A2.63,2.63,0,0,0,51,3.89a.66.66,0,0,1-.11.92.65.65,0,0,1-.92-.1l4.62,5.77a1.32,1.32,0,0,1-2,1.65A3.1,3.1,0,0,1,53,7.77a3.29,3.29,0,0,1,.81-.47,1.32,1.32,0,0,1,1,2.45,7.69,7.69,0,0,0-3.91,4.1c-1.07,2.62-.74,5.86,1,9.63a.66.66,0,1,0,1.2-.54h0a.64.64,0,0,1-.3.83.67.67,0,0,1-.88-.25c.22.38,5.22,9.64,1.33,19-3.14,7.54-11,13.13-23.51,16.61a.65.65,0,0,0-.45.81.66.66,0,0,0,.81.46h0a.83.83,0,0,0,.61-.8.66.66,0,0,0-1.31,0v0Z"/>
          <path id="logoMark_CompoundPathItem_21" data-name="logoMark CompoundPathItem 21" class="cls-3" d="M53.88,22.53c-1.42-3.14-1.74-5.76-1-7.78a5.41,5.41,0,0,1,2.69-2.9,1.81,1.81,0,0,0,1.05-1.22,1.79,1.79,0,0,0-.33-1.56L51.73,3.3a1.78,1.78,0,0,0-1.4-.67H9.22a1.77,1.77,0,0,0-1.4.67L3.21,9.07a1.78,1.78,0,0,0,.27,2.51,2,2,0,0,0,.47.27,5.45,5.45,0,0,1,2.67,2.9c.79,2,.47,4.64-1,7.79a1,1,0,0,1,.07-.15c-.24.42-5.81,10.45-1.47,21,3.4,8.24,11.81,14.28,25,18A1.79,1.79,0,0,1,28,59.6a1.8,1.8,0,0,0,1.8,1.81,2,2,0,0,0,.47-.06h.05a2,2,0,0,1-1,0h0a1.79,1.79,0,0,0,2.2-1.26,1.82,1.82,0,0,0,.06-.46,1.77,1.77,0,0,1-1.31,1.7c13.19-3.68,21.6-9.73,25-18,4.34-10.53-1.23-20.56-1.47-21C53.83,22.43,53.85,22.48,53.88,22.53ZM28,59.6v0a1.8,1.8,0,0,1,1.8-1.79,1.83,1.83,0,0,1,.46.07,1.8,1.8,0,0,0-.95,0l-.07,0a1.77,1.77,0,0,1,2.21,1.19,1.86,1.86,0,0,1,.07.52,1.8,1.8,0,0,0-1.3-1.73C18.17,54.52,10.55,49.18,7.59,42,3.9,33.14,8.8,24.24,8.85,24.15s.05-.1.07-.14c1.86-4.1,2.19-7.69,1-10.66A9.09,9.09,0,0,0,5.25,8.52a1.78,1.78,0,0,1,1,2.32,1.59,1.59,0,0,1-.27.47l4.62-5.78a1.77,1.77,0,0,1-1.4.67H50.33a1.77,1.77,0,0,1-1.4-.67l4.62,5.78a1.79,1.79,0,0,1,.27-2.52,2,2,0,0,1,.47-.27,9.07,9.07,0,0,0-4.65,4.83c-1.2,3-.87,6.56,1,10.66,0,0,.05.1.08.14S55.65,33.14,52,42c-3,7.15-10.58,12.48-22.64,15.85A1.79,1.79,0,0,0,28,59.6Z"/>
          <path id="logoMark_CompoundPathItem_22" data-name="logoMark CompoundPathItem 22" class="cls-4" d="M55.68,21.72c-1.18-2.6-1.49-4.76-.91-6.25a3.42,3.42,0,0,1,1.63-1.82,3.77,3.77,0,0,0,2-4.94,4,4,0,0,0-.52-.87L53.26,2.07A3.69,3.69,0,0,0,50.33.66H9.22A3.7,3.7,0,0,0,6.28,2.07L1.67,7.84a3.75,3.75,0,0,0,.58,5.28,3.89,3.89,0,0,0,1,.56,3.55,3.55,0,0,1,1.56,1.79c.58,1.49.27,3.65-.91,6.25a2,2,0,1,1,3.6,1.61h0s0,0,0,0A2,2,0,1,0,4,21.41H4c-.26.46-6.28,11.3-1.58,22.7,3.64,8.83,12.48,15.26,26.28,19.12a2,2,0,0,0,1.12-3.78l-.06,0a.18.18,0,0,1,.14.17,2,2,0,1,1-3.94,0,3.76,3.76,0,0,0,3.76,3.78,3.69,3.69,0,0,0,1-.13,2,2,0,0,0,1.41-2.41,2,2,0,0,0-2.37-1.41h0a2,2,0,0,0-1.06,3.8h0a3.76,3.76,0,0,0,4.62-2.63,3.69,3.69,0,0,0,.13-1,2,2,0,1,0-3.94,0,.19.19,0,0,1,.13-.19,2,2,0,0,0,1.06,3.79C44.61,59.38,53.46,53,57.1,44.12c4.71-11.42-1.32-22.25-1.58-22.7a2,2,0,0,0-3.44,1.93v0h0a2,2,0,0,0,2.62.94A2,2,0,0,0,55.68,21.72Zm-3.59,1.64c.23.39,5.35,9.59,1.37,19.25-3.16,7.65-11.13,13.31-23.7,16.82a2,2,0,0,1,1.06,3.8,3.76,3.76,0,0,0,2.74-3.6,2,2,0,0,1-3.94,0,.18.18,0,0,1,.19-.18h0a2,2,0,0,1,1.18.92,2,2,0,0,1-2.23,2.88,3.76,3.76,0,0,0,2,0,2,2,0,0,1-1-3.8l-.07,0a.19.19,0,0,1,.18,0,.17.17,0,0,1,.07.13,2,2,0,0,0-3.94,0,3.76,3.76,0,0,0,2.74,3.62,2,2,0,1,1,1.07-3.8h0C17.22,55.92,9.24,50.26,6.09,42.61,2.11,33,7.24,23.75,7.45,23.36a2,2,0,0,0-3.41-2v0a3.18,3.18,0,0,0-.16.32,2,2,0,1,0,3.6,1.61c1.65-3.64,2-6.77,1-9.31a7.42,7.42,0,0,0-3.74-4,.33.33,0,0,1,.06.1.2.2,0,0,1,0,.16L9.36,4.53a.19.19,0,0,1-.14.07H50.33a.21.21,0,0,1-.15-.07L54.8,10.3a.2.2,0,0,1,0-.15.15.15,0,0,1,.1-.12,7.4,7.4,0,0,0-3.76,4c-1,2.53-.66,5.67,1,9.31a2,2,0,0,1,3.58-1.63,1.4,1.4,0,0,0-.15-.3,2,2,0,0,1-3.42,1.94Z"/>
          <path id="logoMark_PathItem_3" data-name="logoMark PathItem 3" class="cls-5" d="M52.25,23.27C47.64,13.07,55,10.19,55,10.19L50.33,4.42H9.22L4.6,10.19s7.31,2.88,2.69,13.08c0,0-14.72,26,22.45,36.34h.06C67,49.22,52.25,23.27,52.25,23.27Z"/>
          <path id="logoMark_PathItem_4" data-name="logoMark PathItem 4" class="cls-6" d="M54,9C48.75,8.53,39.6,7.88,37.32,7.87A38.68,38.68,0,0,0,25.21,9.23c-3.76,1.21-7.87,3.18-8.93,7.36-1.66,6.59,6.59,8.35,11,9.84a25.83,25.83,0,0,1,7,3.09c2.88,2,3,5.31.27,7.36-2.3,1.72-5.27,2.31-8,2.77-1.41.24-2.83.39-4.23.64C18.19,41,14,41.38,10.39,43.53a14.63,14.63,0,0,0-2.9,2.17c2.54,4,7,8,14.3,11.13,1.47-1.9,4-3.84,8.26-5.26,0,0,13.46-4.6,15.44-12.48a11.94,11.94,0,0,0-6.08-13.88,39.45,39.45,0,0,0-3.71-1.78c-3.19-1.33-6.55-1.77-9.92-2.38-2-.36-5.21-1.74-4.93-4.2.24-2,2.57-3.69,4.38-4.25,7.6-2.93,21.32-2.2,28.33-1.57A6.36,6.36,0,0,1,55,10.19Z"/>
          <path id="logoMark_CompoundPathItem_23" data-name="logoMark CompoundPathItem 23" class="cls-7" d="M39.33,25.31a39.62,39.62,0,0,0-3.72-1.78,19.89,19.89,0,0,0-2-.7c.33.11.65.24,1,.37A37.2,37.2,0,0,1,38.34,25a11.93,11.93,0,0,1,6.08,13.87C42.44,46.74,29,51.34,29,51.34c-4.22,1.4-6.72,3.31-8.19,5.19l.92.41c1.46-1.9,4-3.85,8.25-5.27,0,0,13.47-4.6,15.44-12.48A11.93,11.93,0,0,0,39.33,25.31Zm-15.8,0c1.15.4,2.28.73,3.25,1.05l-.56-.19c-.79-.27-1.72-.55-2.69-.86ZM53.94,9.14l-.78-.07.72.89a6.06,6.06,0,0,0-1.38.84c-7-.63-20.74-1.36-28.34,1.57-1.81.56-4.15,2.22-4.38,4.25s2.22,3.49,4.17,4c-1.7-.67-3.39-1.89-3.18-3.7.23-2,2.57-3.69,4.38-4.25,7.6-2.93,21.31-2.2,28.33-1.57a6.29,6.29,0,0,1,1.38-.84Z"/>
          <path id="logoMark_CompoundPathItem_24" data-name="logoMark CompoundPathItem 24" class="cls-8" d="M52.55,23.13c-1.6-3.54-1.92-6.56-.95-9a6.92,6.92,0,0,1,3.47-3.67.33.33,0,0,0,.18-.43.35.35,0,0,0,0-.08L50.59,4.21a.32.32,0,0,0-.26-.12H9.22A.33.33,0,0,0,9,4.22L4.35,10a.31.31,0,0,0,.05.46l.08.05A7,7,0,0,1,8,14.16c1,2.41.65,5.43-1,9,0,.07-5.45,9.8-1.38,19.68,3.22,7.8,11.31,13.56,24,17.11a.33.33,0,0,1-.24-.32.34.34,0,0,0,.42.34.33.33,0,0,1-.14,0h0a.32.32,0,0,0,.28,0,.32.32,0,0,0,.13-.27.3.3,0,0,1-.24.3c12.74-3.55,20.82-9.31,24-17.11C58,32.93,52.59,23.2,52.55,23.13ZM29.47,59.61h0a.31.31,0,0,1,.14-.26.31.31,0,0,1,.28,0h0a.2.2,0,0,0-.15,0h0a.32.32,0,0,1,.28,0,.3.3,0,0,1,.13.26.33.33,0,0,0-.24-.33c-12.52-3.5-20.46-9.13-23.6-16.73-4-9.57,1.3-19,1.35-19.13,1.7-3.75,2-6.94,1-9.53a7.51,7.51,0,0,0-3.84-4,.31.31,0,0,1,.2.22.31.31,0,0,1-.06.29L9.48,4.62a.36.36,0,0,1-.26.13H50.33a.38.38,0,0,1-.26-.13l4.62,5.77a.33.33,0,0,1,.05-.46l.09,0a7.51,7.51,0,0,0-3.84,4c-1.05,2.59-.72,5.79,1,9.5.07.13,5.32,9.59,1.36,19.16-3.13,7.6-11.07,13.23-23.6,16.73A.35.35,0,0,0,29.47,59.61Z"/>
        </g>
        <g id="Group_1-2" data-name="Group 1-2">
          <g id="type_2_2" data-name="type 2 2">
            <path id="type_CompoundPathItem_32_2" data-name="type &lt;CompoundPathItem&gt; 32 2" class="cls-9" d="M79.93,23.65c0,.15-.1.25-.3.25s-.25-.16-.3-.36c-.81-4.09-3.23-10.46-5.56-10.46-1.26,0-1.36,1.06-1.36,2.38,0,2.48.66,4.95,4.4,12.88,3.54,7.48,3.94,9.14,3.94,13.14,0,5.36-2.78,7-4.65,7a4.83,4.83,0,0,1-2.84-1,2.68,2.68,0,0,0-1-.51c-.2,0-.61.35-1.62,1.12-.2.15-.4.35-.61.35s-.25-.1-.25-.26V35.47c0-.15,0-.35.25-.35s.25.2.3.35c.91,4,2.48,10.46,5.46,10.46,1,0,1.47-1.06,1.47-2.63,0-3.39-1.52-7.08-4.4-13.14-2.74-5.76-3.75-9.6-3.75-13.29,0-4.8,2.07-6.31,4.65-6.31a5,5,0,0,1,2.83,1.16,1.7,1.7,0,0,0,.75.3,3,3,0,0,0,1.17-.81c.45-.4.75-.66,1-.66s.36.26.36.55V23.65Z"/>
            <path id="type_CompoundPathItem_15_2" data-name="type &lt;CompoundPathItem&gt; 15 2" class="cls-9" d="M76.09,48.62a5,5,0,0,1-2.92-1,3.23,3.23,0,0,0-.92-.48,3.76,3.76,0,0,0-.91.62c-.18.12-.37.28-.6.45l-.12.09a1,1,0,0,1-.59.3.38.38,0,0,1-.42-.33V35.47c0-.31.16-.52.42-.52s.36.17.46.46c.76,3.37,2.32,10.35,5.3,10.35.81,0,1.3-.92,1.3-2.46,0-3.27-1.42-6.82-4.38-13.07C70,24.6,69,20.73,69,16.87c0-5.36,2.62-6.48,4.82-6.48a5.12,5.12,0,0,1,2.93,1.2,1.41,1.41,0,0,0,.66.26,2.8,2.8,0,0,0,1-.76c.5-.44.82-.7,1.18-.7s.52.19.52.72V23.63a.41.41,0,0,1-.41.42h-.06c-.22,0-.39-.18-.47-.48-.83-4.23-3.24-10.33-5.4-10.33-1,0-1.2.71-1.2,2.21,0,2.43.64,4.86,4.38,12.81,3.6,7.6,4,9.28,4,13.21C80.91,47.12,77.88,48.62,76.09,48.62Zm-3.83-1.8a2.68,2.68,0,0,1,1.1.53,4.66,4.66,0,0,0,2.74.93c1.67,0,4.48-1.44,4.48-6.81,0-3.93-.33-5.48-3.92-13.07-3.78-8-4.41-10.46-4.41-12.95,0-1.08,0-2.54,1.53-2.54,2.57,0,5,6.9,5.72,10.6,0,.12.09.21.14.21s.14,0,.14-.09V11.12c0-.12,0-.4-.19-.4s-.52.24-1,.62-.94.85-1.28.85a1.75,1.75,0,0,1-.84-.33,4.93,4.93,0,0,0-2.74-1.14c-3,0-4.48,2.07-4.48,6.16,0,3.8,1.07,7.63,3.72,13.22,3,6.3,4.41,9.87,4.41,13.21,0,1.75-.61,2.79-1.63,2.79-3.23,0-4.84-7.16-5.62-10.59-.06-.17-.13-.23-.15-.23s-.08.13-.08.19V48.2s0,0,0,.07H70a.76.76,0,0,0,.38-.23l.13-.1.6-.45c.66-.49.9-.68,1.12-.68Z"/>
            <path id="type_CompoundPathItem_14_2" data-name="type &lt;CompoundPathItem&gt; 14 2" class="cls-9" d="M87.41,14.2A1.84,1.84,0,0,0,87,12.78l-1.52-1.46c-.1-.16-.35-.3-.35-.46a.28.28,0,0,1,.28-.3H93c3.94,0,6.67,2.07,6.67,9.8,0,6.52-2.13,10.46-6.67,10.46H91.3v14c0,.61,0,1.11.45,1.41l1.87,1.47c.15.15.35.3.35.46a.29.29,0,0,1-.28.3h-8.3a.3.3,0,0,1-.3-.29h0c0-.16.25-.25.35-.46L87,46.23a1.83,1.83,0,0,0,.45-1.41V14.2ZM91.3,28.29h1.47c2.13,0,2.78-2.33,2.78-7.93s-.66-7.28-2.78-7.28H91.3Z"/>
            <path id="type_CompoundPathItem_13_2" data-name="type &lt;CompoundPathItem&gt; 13 2" class="cls-9" d="M93.68,48.62H85.39a.46.46,0,0,1-.46-.45v0a.48.48,0,0,1,.21-.34.74.74,0,0,0,.16-.19l0,0,1.52-1.46a1.71,1.71,0,0,0,.4-1.3V14.2a1.7,1.7,0,0,0-.41-1.3l-1.52-1.47a.75.75,0,0,0-.15-.16c-.11-.12-.25-.25-.25-.4a.46.46,0,0,1,.45-.47H93c4.73,0,6.84,3.07,6.84,10S97.48,31,93,31H91.46V44.83c0,.63.06,1,.38,1.29l1.87,1.46.1.1c.15.15.32.29.32.49a.44.44,0,0,1-.41.45Zm-8.11-.82a1,1,0,0,1-.22.25.52.52,0,0,0-.1.11.13.13,0,0,0,.12.13h8.31a.12.12,0,0,0,.13-.12v0s-.13-.17-.21-.24l-.1-.1-1.85-1.45a1.79,1.79,0,0,1-.52-1.55V30.66H93c5.38,0,6.51-5.6,6.51-10.29,0-8.55-3.47-9.64-6.51-9.64H85.39a.14.14,0,0,0-.14.12v0a1.15,1.15,0,0,0,.14.17.86.86,0,0,1,.18.2l1.48,1.43a2.06,2.06,0,0,1,.51,1.54V44.82a2,2,0,0,1-.51,1.53Zm7.2-19.34H91.14V12.92h1.63c2.25,0,2.94,1.74,2.94,7.45C95.71,25.49,95.23,28.46,92.77,28.46Zm-1.3-.33h1.3c1.93,0,2.61-2,2.61-7.76,0-5.45-.61-7.11-2.61-7.11h-1.3Z"/>
            <path id="type_CompoundPathItem_12_2" data-name="type &lt;CompoundPathItem&gt; 12 2" class="cls-8" d="M110.25,27.89h1.12a.55.55,0,0,0,.55-.35l1.67-3.49c.1-.2.2-.35.35-.35s.25.1.25.3V34.66c0,.2,0,.3-.2.3s-.2-.16-.3-.36l-1.76-3.69a.55.55,0,0,0-.56-.35h-1.11V44.81c0,.61,0,1.12.45,1.42l1.87,1.46c.16.16.36.3.36.46a.3.3,0,0,1-.29.3h-8.31a.29.29,0,0,1-.3-.29h0c0-.15.25-.25.35-.46l1.52-1.46a1.88,1.88,0,0,0,.45-1.42V14.2a1.84,1.84,0,0,0-.45-1.42l-1.52-1.46c-.1-.16-.35-.3-.35-.46a.28.28,0,0,1,.28-.3h13.1a.4.4,0,0,1,.4.41V23.65a.24.24,0,0,1-.23.25h0a.49.49,0,0,1-.4-.36L114.44,14a1.26,1.26,0,0,0-1.32-1h-2.88V27.89Z"/>
            <path id="type_CompoundPathItem_11_2" data-name="type &lt;CompoundPathItem&gt; 11 2" class="cls-8" d="M112.63,48.62h-8.29a.46.46,0,0,1-.46-.45v0a.47.47,0,0,1,.2-.34.58.58,0,0,0,.16-.19l0,0,1.51-1.46a1.67,1.67,0,0,0,.4-1.3V14.2a1.63,1.63,0,0,0-.41-1.3l-1.5-1.47a1.21,1.21,0,0,0-.16-.16c-.11-.12-.25-.25-.25-.4a.47.47,0,0,1,.45-.47h13.1A.57.57,0,0,1,118,11V23.65a.4.4,0,0,1-.38.42h0a.64.64,0,0,1-.56-.48l-2.72-9.5a1.11,1.11,0,0,0-1.16-.84h-2.71V27.72h1a.39.39,0,0,0,.4-.25l1.67-3.5c.08-.16.22-.45.5-.45a.41.41,0,0,1,.42.41V34.65c0,.38-.2.46-.37.46s-.33-.2-.42-.37l0-.07L111.76,31a.39.39,0,0,0-.41-.26h-.95V44.81c0,.63.07,1,.39,1.29l1.87,1.47.1.1c.15.14.31.28.31.48a.43.43,0,0,1-.39.46Zm-8.1-.82a1.31,1.31,0,0,1-.22.25.52.52,0,0,0-.1.11.13.13,0,0,0,.12.13h8.3a.14.14,0,0,0,.14-.12v0s-.14-.17-.21-.24a.94.94,0,0,1-.1-.1l-1.85-1.45a1.79,1.79,0,0,1-.53-1.55V30.4h1.28a.7.7,0,0,1,.71.46l1.8,3.75c0,.09.09.19.12.19s0,0,0-.14V24c0-.14-.06-.14-.09-.14s-.18.2-.21.27l-1.67,3.48a.71.71,0,0,1-.71.45h-1.27V12.92h3A1.43,1.43,0,0,1,114.6,14l2.73,9.5a.34.34,0,0,0,.25.24.08.08,0,0,0,.09-.09V11a.26.26,0,0,0-.24-.29h-13.1a.12.12,0,0,0-.13.12v0a1.15,1.15,0,0,0,.14.17,1.71,1.71,0,0,1,.18.2L106,12.66a2.06,2.06,0,0,1,.5,1.54V44.81a2.06,2.06,0,0,1-.5,1.54Z"/>
            <path id="type_CompoundPathItem_10_2" data-name="type &lt;CompoundPathItem&gt; 10 2" class="cls-8" d="M124,14.2a2,2,0,0,0-.4-1.42L122,11.32a.77.77,0,0,1-.26-.46.3.3,0,0,1,.29-.3h7.74a.29.29,0,0,1,.3.29h0a.71.71,0,0,1-.25.46l-1.57,1.46a2.38,2.38,0,0,0-.4,1.42V41.69c0,2.22.2,4.24,2.58,4.24,1.87,0,2.37-2,2.37-4.24V14.2a2,2,0,0,0-.4-1.42l-1.56-1.46a.72.72,0,0,1-.26-.46.3.3,0,0,1,.29-.3h6.93a.29.29,0,0,1,.3.29h0a.71.71,0,0,1-.25.46l-1.56,1.46a2.24,2.24,0,0,0-.4,1.42V43c0,3.13-2.42,5.45-5.86,5.45-4,0-6.07-2.33-6.07-5.45V14.2Z"/>
            <path id="type_CompoundPathItem_9_2" data-name="type &lt;CompoundPathItem&gt; 9 2" class="cls-8" d="M130.06,48.62c-3.85,0-6.24-2.16-6.24-5.63V14.19a1.84,1.84,0,0,0-.35-1.3l-1.57-1.45a.89.89,0,0,1-.3-.58.47.47,0,0,1,.45-.47h7.76a.47.47,0,0,1,.47.45v0a.85.85,0,0,1-.3.57L128.4,12.9a2.1,2.1,0,0,0-.35,1.29V41.68c0,2.23.18,4.07,2.41,4.07,1.47,0,2.21-1.37,2.21-4.07V14.2a1.87,1.87,0,0,0-.35-1.3l-1.57-1.46a.89.89,0,0,1-.3-.58.47.47,0,0,1,.45-.47h6.95a.46.46,0,0,1,.46.45v0a.77.77,0,0,1-.3.57l-1.57,1.47a2.1,2.1,0,0,0-.35,1.29V43C136.08,46.26,133.55,48.62,130.06,48.62Zm-8-37.9a.14.14,0,0,0-.14.12v0a.66.66,0,0,0,.2.34l1.56,1.46a2.07,2.07,0,0,1,.46,1.53V43c0,3.26,2.26,5.29,5.9,5.29,3.3,0,5.7-2.22,5.7-5.29V14.19a2.42,2.42,0,0,1,.44-1.52l1.58-1.49a.5.5,0,0,0,.2-.34.11.11,0,0,0-.11-.13h-7a.11.11,0,0,0-.13.11v0a.52.52,0,0,0,.2.34l1.56,1.46a2,2,0,0,1,.45,1.54V41.67c0,2.93-.86,4.41-2.54,4.41-2.54,0-2.74-2.18-2.74-4.41V14.2a2.39,2.39,0,0,1,.44-1.53l1.58-1.48a.66.66,0,0,0,.2-.34.12.12,0,0,0-.12-.13h-7.74Z"/>
            <path id="type_CompoundPathItem_8_2" data-name="type &lt;CompoundPathItem&gt; 8 2" class="cls-8" d="M143.55,14.2a2.15,2.15,0,0,0-.46-1.42l-1.27-1.46c-.1-.16-.35-.3-.35-.51a.3.3,0,0,1,.3-.26h6.06c.36,0,.51.36.61.86l4.66,21.73h.1V14.2a1.73,1.73,0,0,0-.46-1.37l-1.41-1.51c-.1-.16-.35-.3-.35-.51a.29.29,0,0,1,.3-.26h6.66a.29.29,0,0,1,.3.26c0,.2-.2.35-.35.51l-1.27,1.46a2.21,2.21,0,0,0-.45,1.42V47.9c0,.35-.15.55-.51.55h-2.11c-.46,0-.86-.51-1-1.26l-5.91-27.54h-.1V44.81a1.74,1.74,0,0,0,.5,1.37l1.37,1.51c.15.16.35.3.35.51a.3.3,0,0,1-.3.26h-6.67a.3.3,0,0,1-.3-.26c0-.2.25-.35.36-.51l1.26-1.46a2.16,2.16,0,0,0,.46-1.42Z"/>
            <path id="type_CompoundPathItem_7_2" data-name="type &lt;CompoundPathItem&gt; 7 2" class="cls-8" d="M155.68,48.62h-2.13c-.54,0-1-.55-1.17-1.4l-5.69-26.48V44.81a1.6,1.6,0,0,0,.46,1.25l1.44,1.59a.77.77,0,0,1,.33.54.44.44,0,0,1-.47.42h-6.67a.44.44,0,0,1-.46-.42.66.66,0,0,1,.26-.46,1.42,1.42,0,0,0,.12-.13L143,46.11a2,2,0,0,0,.42-1.3V14.2a2,2,0,0,0-.43-1.32l-1.26-1.46a.81.81,0,0,0-.12-.14.67.67,0,0,1-.27-.47.45.45,0,0,1,.47-.41h6.06c.51,0,.67.5.77,1L153,32.05V14.2a1.56,1.56,0,0,0-.41-1.25l-1.42-1.52-.13-.15a.67.67,0,0,1-.27-.47.45.45,0,0,1,.47-.41h6.66a.45.45,0,0,1,.47.41.86.86,0,0,1-.33.56l-.07.07-1.26,1.46a2,2,0,0,0-.41,1.31v33.7a.6.6,0,0,1-.48.7Zm-9.32-29.13h.4l0,.13,5.91,27.54c.14.66.48,1.13.85,1.13h2.13c.2,0,.33-.07.33-.4V14.19a2.36,2.36,0,0,1,.49-1.51l1.37-1.57c.11-.1.22-.21.22-.31a.13.13,0,0,0-.14-.09h-6.66a.14.14,0,0,0-.14.09c0,.07.09.15.17.23l.16.18,1.4,1.49a1.92,1.92,0,0,1,.5,1.48V33.3H153l0-.13L148.3,11.44c-.13-.65-.29-.73-.44-.73h-6.07a.11.11,0,0,0-.13.08c0,.07.08.16.16.24a1.29,1.29,0,0,1,.16.17l1.25,1.45a2.37,2.37,0,0,1,.5,1.53V44.8a2.35,2.35,0,0,1-.48,1.51L142,47.79a.75.75,0,0,1-.15.16c-.08.08-.16.17-.16.23a.11.11,0,0,0,.13.09h6.67a.11.11,0,0,0,.13-.09c0-.1-.11-.2-.22-.3l-.08-.08-1.37-1.52a1.9,1.9,0,0,1-.55-1.48V19.49Z"/>
            <path id="type_CompoundPathItem_6_2" data-name="type &lt;CompoundPathItem&gt; 6 2" class="cls-8" d="M164.31,14.2a1.84,1.84,0,0,0-.45-1.42l-1.52-1.46c-.1-.15-.35-.3-.35-.46a.28.28,0,0,1,.28-.3H169c5.1,0,8.13,4.9,8.13,18,0,16.47-3,19.91-8.13,19.91h-6.66a.29.29,0,0,1-.3-.29h0c0-.15.24-.25.35-.46l1.51-1.46a1.84,1.84,0,0,0,.46-1.42Zm3.89,31.73h.91c2,0,3.84-1.92,3.84-17.38,0-13.54-1.87-15.47-3.84-15.47h-.91Z"/>
            <path id="type_CompoundPathItem_5_2" data-name="type &lt;CompoundPathItem&gt; 5 2" class="cls-8" d="M169,48.62h-6.67a.46.46,0,0,1-.46-.45v0a.48.48,0,0,1,.21-.34.74.74,0,0,0,.16-.19l0,0,1.52-1.46a1.71,1.71,0,0,0,.4-1.3V14.2a1.7,1.7,0,0,0-.41-1.3l-1.52-1.47a.75.75,0,0,0-.15-.16c-.11-.12-.25-.25-.25-.4a.45.45,0,0,1,.45-.47H169c5.66,0,8.3,5.77,8.3,18.15C177.26,45.26,174.08,48.62,169,48.62Zm-6.48-.82a1,1,0,0,1-.22.25.52.52,0,0,0-.1.11.13.13,0,0,0,.12.13H169c4.92,0,8-3.3,8-19.74,0-12.16-2.54-17.83-8-17.83H162.3a.14.14,0,0,0-.14.12v0a.8.8,0,0,0,.15.17,1.63,1.63,0,0,1,.17.2L164,12.66a2,2,0,0,1,.51,1.54V44.81a2,2,0,0,1-.51,1.54Zm6.63-1.7H168V12.92h1.07c2.08,0,4,1.9,4,15.63,0,14.56-1.59,17.55-4,17.55Zm-.74-.34h.74c1.91,0,3.68-2.08,3.68-17.21,0-13.48-1.87-15.3-3.68-15.3h-.74Z"/>
            <path id="type_CompoundPathItem_4_2" data-name="type &lt;CompoundPathItem&gt; 4 2" class="cls-8" d="M193.06,23.65c0,.15-.1.25-.3.25s-.25-.16-.3-.36c-.81-4.09-3.23-10.46-5.56-10.46-1.25,0-1.36,1.06-1.36,2.38,0,2.48.66,4.95,4.4,12.88,3.54,7.48,3.94,9.14,3.94,13.14,0,5.36-2.78,7-4.65,7a4.78,4.78,0,0,1-2.83-1,2.8,2.8,0,0,0-1-.51c-.2,0-.61.35-1.62,1.12-.2.15-.4.35-.61.35s-.25-.1-.25-.26V35.47c0-.15,0-.35.25-.35s.25.2.3.35c.91,4,2.48,10.46,5.46,10.46,1,0,1.47-1.06,1.47-2.63,0-3.39-1.52-7.08-4.4-13.14-2.73-5.76-3.74-9.6-3.74-13.29,0-4.8,2.07-6.31,4.65-6.31a5,5,0,0,1,2.83,1.16,1.74,1.74,0,0,0,.76.3,2.87,2.87,0,0,0,1.16-.81c.46-.4.75-.66,1.06-.66s.35.26.35.55V23.65Z"/>
            <path id="type_CompoundPathItem_3_2" data-name="type &lt;CompoundPathItem&gt; 3 2" class="cls-8" d="M189.22,48.62a5,5,0,0,1-2.92-1,3.23,3.23,0,0,0-.92-.48,4,4,0,0,0-.92.62l-.6.45-.12.09a1,1,0,0,1-.58.3.37.37,0,0,1-.42-.33V35.47c0-.31.16-.52.42-.52s.36.17.46.46c.76,3.37,2.32,10.35,5.3,10.35.81,0,1.3-.92,1.3-2.46,0-3.27-1.42-6.82-4.38-13.07-2.68-5.63-3.76-9.5-3.76-13.36,0-5.36,2.62-6.48,4.81-6.48a5.15,5.15,0,0,1,2.94,1.2,1.41,1.41,0,0,0,.66.26,2.8,2.8,0,0,0,1-.76c.5-.44.82-.71,1.18-.71s.52.2.52.73V23.63a.41.41,0,0,1-.41.42h0c-.22,0-.39-.18-.47-.48-.83-4.23-3.24-10.33-5.4-10.33-1,0-1.2.71-1.2,2.2,0,2.44.64,4.86,4.38,12.81,3.59,7.6,4,9.28,4,13.21C194,47.12,191,48.62,189.22,48.62Zm-3.83-1.8a2.74,2.74,0,0,1,1.1.53,4.66,4.66,0,0,0,2.74.93c1.67,0,4.48-1.44,4.48-6.81,0-3.93-.33-5.48-3.92-13.07-3.78-8-4.41-10.46-4.41-12.95,0-1.08,0-2.54,1.53-2.54,2.57,0,5,6.9,5.72,10.6,0,.12.09.21.15.21s.13,0,.13-.09V11.12c0-.12,0-.4-.18-.4s-.52.24-1,.62-.93.85-1.27.85a1.67,1.67,0,0,1-.84-.33,5,5,0,0,0-2.75-1.14c-3,0-4.48,2.07-4.48,6.16,0,3.8,1.08,7.63,3.72,13.22,3,6.3,4.41,9.87,4.41,13.21,0,1.75-.61,2.79-1.62,2.79-3.24,0-4.85-7.16-5.63-10.59-.05-.17-.13-.23-.14-.23s-.09.13-.09.19V48.2a.17.17,0,0,0,0,.07h.08a.8.8,0,0,0,.38-.23l.12-.1q.36-.26.6-.45c.65-.49.9-.68,1.11-.68Z"/>
            <path id="type_CompoundPathItem_2_2" data-name="type &lt;CompoundPathItem&gt; 2 2" class="cls-8" d="M197,13.74V10.41h-1.24V10h3v.45h-1.25v3.33Z"/>
            <path id="type_CompoundPathItem_1_2" data-name="type &lt;CompoundPathItem&gt; 1 2" class="cls-8" d="M199.27,13.74V10H200l.89,2.67c.08.25.14.43.17.56,0-.13.11-.33.2-.6L202.2,10h.67v3.77h-.48V10.59l-1.1,3.16h-.45l-1.09-3.21v3.21h-.48Z"/>
          </g>
        </g>
      </g>
    </g>
  </g>
</svg>
