<svg xmlns="http://www.w3.org/2000/svg" xmlns:xlink="http://www.w3.org/1999/xlink" viewBox="0 0 55.72 60">
  <defs>
    <style>
      .cls-1 {
        fill: #888a8c;
      }

      .cls-2 {
        fill: url(#linear-gradient);
      }

      .cls-3 {
        fill: url(#linear-gradient-2);
      }

      .cls-4 {
        fill: url(#linear-gradient-3);
      }

      .cls-5 {
        fill: url(#linear-gradient-4);
      }

      .cls-6 {
        fill: url(#linear-gradient-5);
      }

      .cls-7, .cls-8 {
        fill: #fff;
      }

      .cls-7 {
        opacity: 0.62;
        isolation: isolate;
      }
    </style>
    <linearGradient id="linear-gradient" x1="-333.4" y1="2098.03" x2="-332.4" y2="2098.03" gradientTransform="matrix(49.3, 0, 0, -54.28, 16439.86, 113906.01)" gradientUnits="userSpaceOnUse">
      <stop offset="0" stop-color="#b1b3b6"/>
      <stop offset="0.49" stop-color="#fff"/>
      <stop offset="0.53" stop-color="#9d9fa2"/>
      <stop offset="1" stop-color="#a3a5a8"/>
    </linearGradient>
    <linearGradient id="linear-gradient-2" x1="-333.26" y1="2097.63" x2="-332.26" y2="2097.63" gradientTransform="matrix(50.74, 0, 0, -55, 16910.9, 115405)" gradientUnits="userSpaceOnUse">
      <stop offset="0" stop-color="#b1b3b6"/>
      <stop offset="0.49" stop-color="#fff"/>
      <stop offset="0.53" stop-color="#737577"/>
      <stop offset="1" stop-color="#a3a5a8"/>
    </linearGradient>
    <linearGradient id="linear-gradient-3" x1="-332.95" y1="2095.75" x2="-331.95" y2="2095.75" gradientTransform="matrix(54.47, 0, 0, -58.75, 18137.2, 123160.29)" xlink:href="#linear-gradient-2"/>
    <linearGradient id="linear-gradient-4" x1="-333.09" y1="2100.29" x2="-333.09" y2="2099.78" gradientTransform="matrix(47.31, 0, 0, -51.59, 15785.83, 108347.39)" gradientUnits="userSpaceOnUse">
      <stop offset="0" stop-color="#fff"/>
      <stop offset="0.91" stop-color="#bc8b41"/>
    </linearGradient>
    <linearGradient id="linear-gradient-5" x1="-333.38" y1="2103.08" x2="-333.5" y2="2104.41" gradientTransform="matrix(44.21, 0, 0, -45.69, 14770.13, 96140.62)" gradientUnits="userSpaceOnUse">
      <stop offset="0.29"/>
      <stop offset="0.91" stop-color="#fff"/>
    </linearGradient>
  </defs>
  <title>logo</title>
  <g id="Layer_2" data-name="Layer 2">
    <g id="Layer_1-2" data-name="Layer 1">
      <g id="LogoMark-3">
        <path id="logoMark_CompoundPathItem_25" data-name="logoMark CompoundPathItem 25" d="M49.69,21.44c-1.43-3.15-1.73-5.8-.89-7.89a5.77,5.77,0,0,1,2.9-3.11.93.93,0,0,0,.51-1.21A1,1,0,0,0,52.08,9l-4.31-5.4a.91.91,0,0,0-.72-.35H8.67A.93.93,0,0,0,8,3.61L3.64,9a.93.93,0,0,0,.15,1.3,1,1,0,0,0,.23.13,5.74,5.74,0,0,1,2.9,3.11c.83,2.09.54,4.74-.89,7.89l0-.08c-.21.38-5.24,9.45-1.33,19,3.08,7.48,10.77,13,22.85,16.36a.92.92,0,0,1-.68-.88.94.94,0,0,0,.94.93l.24,0a.86.86,0,0,1-.45,0,1,1,0,0,0,.8-.17.92.92,0,0,0,.36-.72.9.9,0,0,1-.67.87C40.21,53.3,47.9,47.8,51,40.32c3.91-9.51-1.12-18.58-1.34-19ZM27,55.79v0a.92.92,0,0,1,.92-.92,1.07,1.07,0,0,1,.25,0,.94.94,0,0,0-.5,0,.88.88,0,0,1,.78.17.94.94,0,0,1,.34.73,1,1,0,0,0-.67-.9C16.59,51.69,9.31,46.55,6.46,39.64,2.87,31,7.63,22.36,7.68,22.27a.25.25,0,0,1,0-.07c1.64-3.64,1.94-6.79.9-9.37A7.63,7.63,0,0,0,4.7,8.73a.92.92,0,0,1,.51,1.2.76.76,0,0,1-.13.23l4.31-5.4a.91.91,0,0,1-.72.35H47.05a.93.93,0,0,1-.72-.35l4.31,5.4a.93.93,0,0,1,.15-1.3A1,1,0,0,1,51,8.73a7.67,7.67,0,0,0-3.92,4.1c-1,2.58-.74,5.73.91,9.37a.25.25,0,0,0,0,.07c0,.09,4.8,8.7,1.22,17.37-2.86,6.91-10.13,12-21.63,15.27A.91.91,0,0,0,27,55.79Z"/>
        <path id="logoMark_CompoundPathItem_26" data-name="logoMark CompoundPathItem 26" class="cls-1" d="M51,20.87c-1.26-2.79-1.55-5.08-.87-6.8a4.47,4.47,0,0,1,2.17-2.38,2.31,2.31,0,0,0,1.24-3,2.48,2.48,0,0,0-.32-.54l-4.31-5.4a2.31,2.31,0,0,0-1.79-.86H8.65a2.29,2.29,0,0,0-1.78.86L2.55,8.14a2.29,2.29,0,0,0,.36,3.22,2.32,2.32,0,0,0,.59.34,4.53,4.53,0,0,1,2.15,2.37c.67,1.73.38,4-.88,6.8a.61.61,0,0,1,.82-.29.6.6,0,0,1,.3.79s0-.05,0-.08a.61.61,0,1,0-1.06-.61c-.23.4-5.59,10-1.41,20.17C6.71,48.75,14.7,54.52,27.22,58a.61.61,0,0,0,.34-1.18,1.07,1.07,0,0,1-.78-1,.61.61,0,0,0-.61-.62.62.62,0,0,0-.62.62,2.3,2.3,0,0,0,2.3,2.3,2.33,2.33,0,0,0,.59-.08.65.65,0,0,0,.46-.76.6.6,0,0,0-.71-.45h0a1.31,1.31,0,0,1-.59,0A.61.61,0,1,1,27.25,58h0a2.29,2.29,0,0,0,2.93-2.2.62.62,0,0,0-.59-.64.62.62,0,0,0-.64.59v0a1.06,1.06,0,0,1-.77,1A.61.61,0,0,0,28.51,58C41,54.52,49,48.75,52.27,40.85c4.17-10.13-1.18-19.76-1.41-20.17a.62.62,0,0,0-.84-.23.61.61,0,0,0-.23.84h0a.93.93,0,0,1,.05.1A.61.61,0,0,0,51,20.87Zm-1.16.42c.22.38,5.29,9.51,1.34,19.09-3.1,7.53-10.82,13.07-23,16.46a.62.62,0,0,1,.75.45.63.63,0,0,1-.42.74,2.26,2.26,0,0,0,1.67-2.19A.61.61,0,1,0,29,55.79v.05a1.06,1.06,0,0,1-1.34,1,.64.64,0,0,0-.79.41.62.62,0,0,0,.43.76,2.33,2.33,0,0,0,1.23,0,.61.61,0,0,1-.75-.43.61.61,0,0,1,.43-.75l-.06,0a1.07,1.07,0,0,1-1.29-.79,1.09,1.09,0,0,1,0-.26.62.62,0,0,0-1.23,0A2.3,2.3,0,0,0,27.22,58a.62.62,0,0,1-.4-.77.61.61,0,0,1,.73-.41C15.42,53.44,7.7,47.9,4.6,40.38.65,30.79,5.72,21.67,5.94,21.29a.63.63,0,0,1-.84.23.61.61,0,0,1-.23-.84l-.1.19a.61.61,0,0,0,.35.79.62.62,0,0,0,.77-.29c1.4-3.1,1.7-5.71.9-7.77a5.78,5.78,0,0,0-2.83-3,1.06,1.06,0,0,1-.61-1.37.78.78,0,0,1,.16-.28L7.82,3.51a1,1,0,0,1,.83-.4H47.07a1,1,0,0,1,.83.4l4.31,5.4a1.06,1.06,0,0,1-.19,1.5.72.72,0,0,1-.24.14,5.76,5.76,0,0,0-2.85,3.06c-.8,2.06-.5,4.67.9,7.77a.62.62,0,0,1,.33-.81.61.61,0,0,1,.79.29c0-.07-.06-.12-.09-.18a.62.62,0,0,1-.23.84.61.61,0,0,1-.84-.23Z"/>
        <path id="logoMark_CompoundPathItem_27" data-name="logoMark CompoundPathItem 27" class="cls-1" d="M25.61,55.79v0a.61.61,0,0,0,1.22,0v0a1.06,1.06,0,0,1,1.06-1.06.8.8,0,0,1,.27,0,.62.62,0,0,1,.32-1.19,2.44,2.44,0,0,0-1.2,0l-.1,0a.61.61,0,0,0,.36,1.17,1.05,1.05,0,0,1,1.35,1,.61.61,0,0,0,1.22,0,2.28,2.28,0,0,0-1.66-2.22c-11-3.09-18-8-20.71-14.46C4.43,31.15,8.84,23,8.88,23L9,22.78c1.81-4,2.12-7.51.93-10.44A9.12,9.12,0,0,0,5.22,7.48a.61.61,0,0,0-.79.35h0a.61.61,0,0,0,.34.8,1,1,0,0,1,.63.71,1,1,0,0,1-.2.93.62.62,0,0,1,1,.73l0,0,4.31-5.4a.61.61,0,0,1-.86.13.62.62,0,0,1-.13-.86l0,0a1.05,1.05,0,0,1-.82.4.61.61,0,0,0-.59.64.62.62,0,0,0,.59.59H47a.62.62,0,0,0,0-1.23,1.05,1.05,0,0,1-.82-.4.62.62,0,0,0-1,.77L49.56,11a.62.62,0,0,1,1-.77,1.06,1.06,0,0,1,.16-1.49A1.17,1.17,0,0,1,51,8.63a.61.61,0,1,0-.45-1.14,9.06,9.06,0,0,0-4.68,4.85c-1.18,2.94-.87,6.45.93,10.44l.09.18c0,.06,4.44,8.22,1.15,16.17-2.69,6.5-9.66,11.37-20.72,14.46A2.29,2.29,0,0,0,25.61,55.79Zm2-1c11.43-3.2,18.67-8.3,21.51-15.16,3.52-8.5-1-16.9-1.2-17.25a.36.36,0,0,1,0-.09c-1.67-3.67-2-6.86-.91-9.47a7.84,7.84,0,0,1,4-4.17.62.62,0,1,1-.45-1.15,2.28,2.28,0,0,0-1.28,3,2.06,2.06,0,0,0,.34.59.61.61,0,0,0,1-.74l0,0-4.3-5.39a.61.61,0,0,1-.08.86.62.62,0,0,1-.86-.07l0,0A2.26,2.26,0,0,0,47,6.5a.61.61,0,0,0,.59-.64A.62.62,0,0,0,47,5.27H8.69a.62.62,0,0,0-.59.64.61.61,0,0,0,.59.59,2.26,2.26,0,0,0,1.78-.86.61.61,0,0,0-.07-.86.61.61,0,0,0-.86.06l0,0-4.3,5.39a.61.61,0,0,0,1,.76,2.29,2.29,0,0,0-.35-3.21,2.32,2.32,0,0,0-.59-.34.61.61,0,0,1,.33.8.61.61,0,0,1-.78.34,7.89,7.89,0,0,1,4,4.17c1.06,2.62.76,5.8-.9,9.48l-.05.08c0,.09-4.74,8.71-1.21,17.25,2.85,6.87,10.09,12,21.52,15.17a1.08,1.08,0,0,1,.77,1,.61.61,0,0,0,.61.61.61.61,0,0,0,.62-.61h0A2.28,2.28,0,0,0,29.2,54a2.23,2.23,0,0,0-2-.36A.61.61,0,0,1,28,54h0a.61.61,0,0,1-.4.77h0a1.14,1.14,0,0,1,.58,0,.62.62,0,0,0,.75-.44.61.61,0,0,0-.43-.75h0a2.28,2.28,0,0,0-2.8,1.6,2.47,2.47,0,0,0-.08.6.62.62,0,0,0,.59.64.61.61,0,0,0,.63-.59V55.8a1.09,1.09,0,0,1,.77-1Z"/>
        <path id="logoMark_CompoundPathItem_28" data-name="logoMark CompoundPathItem 28" class="cls-1" d="M52.66,20.1c-1-2.29-1.32-4.15-.84-5.38A2.6,2.6,0,0,1,53,13.36,4.16,4.16,0,0,0,55.21,7.9,4.07,4.07,0,0,0,54.64,7a.61.61,0,0,1-.1.86.62.62,0,0,1-.81,0,.61.61,0,0,0,.84,0c.44-.39.34-.51-.6-1.69L52.48,4.26l-2.16-2.7A4.08,4.08,0,0,0,47.1,0H8.63A4.1,4.1,0,0,0,5.4,1.56a.61.61,0,0,0,.1.86.62.62,0,0,0,.81,0,.61.61,0,0,1-.91-.82L1.08,7a4.14,4.14,0,0,0,.65,5.82,4.3,4.3,0,0,0,1.06.61.61.61,0,0,1-.36-.79.62.62,0,0,1,.77-.37.62.62,0,0,0-.46,1.14A2.65,2.65,0,0,1,3.9,14.72c.48,1.23.19,3.09-.84,5.38a.61.61,0,1,1,1.12.5,1.23,1.23,0,0,1,2.24,1A.59.59,0,0,1,7,21.27a.62.62,0,0,1,.62.62.67.67,0,0,1-.08.3,2.46,2.46,0,1,0-4.28-2.43c-.25.44-6,10.83-1.51,21.81,3.48,8.45,11.9,14.6,25,18.26a2.46,2.46,0,0,0,1.33-4.74h0a.62.62,0,0,1,.43.76.62.62,0,0,1-.76.43.45.45,0,0,1-.33-.43,1.23,1.23,0,1,1-2.46,0,.61.61,0,0,0-.64-.59.62.62,0,0,0-.59.59A4.16,4.16,0,0,0,27.84,60a4.38,4.38,0,0,0,1.08-.14,2.49,2.49,0,0,0,1.76-3,2.43,2.43,0,0,0-2.94-1.77h0l.15,0a.63.63,0,0,0-.62.6.61.61,0,0,0,.57.64h-.07a.62.62,0,1,0,.33-1.19,2.46,2.46,0,0,0-1.45,4.71l.18,0a4.15,4.15,0,0,0,5.22-4,2.46,2.46,0,0,0-4.92-.1v.1a.62.62,0,0,0,.59.64.61.61,0,0,0,.64-.59v0a.43.43,0,0,1-.32.42.62.62,0,0,0,.4-.77.6.6,0,0,0-.73-.42A2.46,2.46,0,0,0,29,59.85l.05,0C42.11,56.17,50.52,50,54,41.57c4.52-11-1.26-21.38-1.51-21.81a2.46,2.46,0,0,0-4.32,2.36.25.25,0,0,1,0,.07.62.62,0,0,0,1.11-.53l-.06-.13a.62.62,0,0,0-1.07.62,2.49,2.49,0,0,0,3.27,1.17A2.43,2.43,0,0,0,52.66,20.1Zm-1.73,2.1a1.24,1.24,0,0,1-1.63-.6.62.62,0,0,1-.29.82.6.6,0,0,1-.78-.21.31.31,0,0,1,0-.1.6.6,0,0,1,.37-.78.62.62,0,0,1,.73.25,1.23,1.23,0,0,1,2.14-1.22c.23.42,5.73,10.3,1.44,20.74-3.33,8.08-11.47,14-24.2,17.54A1.23,1.23,0,0,1,28,56.28a.62.62,0,0,1-.74-.46.61.61,0,0,1,.41-.73.81.81,0,0,0-.57.77.62.62,0,1,0,1.23,0v0a1.24,1.24,0,0,1,1.23-1.23,1.23,1.23,0,0,1,1.22,1.23h0a2.87,2.87,0,0,1-3.66,2.8,1.26,1.26,0,0,1-.9-1.51,1.24,1.24,0,0,1,1.52-.87.61.61,0,1,1,.32-1.18l-.19,0a.62.62,0,0,1,.57.66.6.6,0,0,1-.6.57H28a1.19,1.19,0,0,1,1.46.87h0a1.26,1.26,0,0,1-.89,1.51A2.92,2.92,0,0,1,25,56.6a2.71,2.71,0,0,1-.1-.75.61.61,0,0,0-.64-.59.62.62,0,0,0-.59.59,2.46,2.46,0,0,0,4.92,0,.8.8,0,0,0-.58-.76.62.62,0,0,0-.32,1.19A1.23,1.23,0,0,1,27,58.65C14.33,55.09,6.19,49.18,2.86,41.1-1.44,30.67,4.07,20.78,4.3,20.37a1.23,1.23,0,1,1,2.13,1.22.62.62,0,0,0,.24.83.56.56,0,0,0,.3.08.64.64,0,0,0,.58-.4,2.46,2.46,0,0,0-4.49-2,.62.62,0,0,0,.31.82.61.61,0,0,0,.81-.31C5.35,18,5.65,15.82,5,14.27a3.92,3.92,0,0,0-1.73-2,.62.62,0,0,1-.48,1.13.62.62,0,0,0,.41-1.16A2.91,2.91,0,0,1,1.6,8.48,3,3,0,0,1,2,7.73L4.2,5,5.68,3.17c.94-1.18,1-1.3.6-1.69a.6.6,0,0,0-.84,0,.62.62,0,0,1,.87,0,.62.62,0,0,1,0,.81A2.91,2.91,0,0,1,8.63,1.23H47.1a2.91,2.91,0,0,1,2.27,1.09l4.31,5.41a.62.62,0,0,1,.92-.82.62.62,0,0,0-.92.82,2.92,2.92,0,0,1-.47,4.1,2.83,2.83,0,0,1-.67.4,3.87,3.87,0,0,0-1.86,2c-.61,1.55-.31,3.74.86,6.33A1.21,1.21,0,0,1,50.93,22.2Z"/>
        <path id="logoMark_CompoundPathItem_29" data-name="logoMark CompoundPathItem 29" class="cls-1" d="M48.17,22.23c.2.35,4.85,8.7,1.24,17.48-2.87,7-10.18,12.15-21.73,15.39A.61.61,0,1,0,28,56.28h0a1.23,1.23,0,0,1,.66,2.37A.61.61,0,1,0,29,59.83h0a4.14,4.14,0,0,0,3-4,.62.62,0,0,0-.62-.62.61.61,0,0,0-.61.62,1.23,1.23,0,0,1-2.45.07v-.07a.45.45,0,0,1-.19.36.42.42,0,0,1-.36.07,1.15,1.15,0,0,1,.71.57,1.24,1.24,0,0,1-1.38,1.79.62.62,0,0,0-.32,1.19,4.35,4.35,0,0,0,2.15,0,.62.62,0,0,1-.73-.47.61.61,0,0,1,.42-.72,1.22,1.22,0,0,1-1.49-.89A1.24,1.24,0,0,1,28,56.28a.6.6,0,0,1-.74-.44.61.61,0,0,1,.39-.73h0a.63.63,0,0,0-.44.76.61.61,0,0,0,.74.44h0a.41.41,0,0,1-.37-.09.46.46,0,0,1-.17-.36.62.62,0,1,0,1.23,0,2.46,2.46,0,0,0-4.91,0h0a4.13,4.13,0,0,0,3,4,.61.61,0,0,1,.33-1.18h0a1.23,1.23,0,1,1,.67-2.37.61.61,0,0,0,.33-1.18h0C16.49,51.86,9.18,46.69,6.31,39.71c-3.6-8.77,1-17.13,1.24-17.48A2.45,2.45,0,1,0,3.29,19.8h0a3.78,3.78,0,0,0-.17.35,2.45,2.45,0,1,0,4.47,2h0c1.61-3.57,1.93-6.67.94-9.2A7.55,7.55,0,0,0,4.71,8.9.61.61,0,0,1,5,9.7a.63.63,0,0,1-.56.38.59.59,0,0,1-.55-.37A.45.45,0,0,1,4,9.32a.62.62,0,0,0,1,.77l4.31-5.4a.62.62,0,0,0-1-.77h0a.43.43,0,0,1,.35-.16A.61.61,0,1,0,8.67,5H47.06a.61.61,0,0,0,0-1.22h0a.41.41,0,0,1,.34.16.63.63,0,0,1-.1.87.61.61,0,0,1-.81,0l-.05,0,4.32,5.4a.6.6,0,0,1,.09-.86.61.61,0,0,1,.86.09h0a.41.41,0,0,1,.08.38.51.51,0,0,1-.27.32.62.62,0,0,1-.81-.34.61.61,0,0,1,.34-.8h0A7.57,7.57,0,0,0,47.21,13c-1,2.53-.68,5.63.93,9.2a.61.61,0,0,0,.81.31.62.62,0,0,0,.31-.82h0a1.22,1.22,0,0,1,2.23-1,.63.63,0,0,0,.83.28.61.61,0,0,0,.29-.79,3.41,3.41,0,0,0-.17-.33.61.61,0,0,0-.84-.2.6.6,0,0,0-.22.81,1.23,1.23,0,0,1-2.14,1.21h0a.61.61,0,1,1-1.06.61Zm3.35.92a2.46,2.46,0,0,0,.92-3.35.62.62,0,0,1-1.07.61,2.53,2.53,0,0,1,.12.23.62.62,0,0,1,.33-.81.61.61,0,0,1,.78.3,2.45,2.45,0,0,0-4.46,2,.62.62,0,1,1,1.12-.51c-1.47-3.26-1.78-6-.91-8.24A6.3,6.3,0,0,1,51.52,10a.61.61,0,0,0-.47-1.13.76.76,0,0,0-.45.52.81.81,0,0,0,.16.7.61.61,0,1,0,1-.78L47.36,3.87a.63.63,0,0,0-.87,0,.62.62,0,0,0-.05.83.79.79,0,0,0,.62.3.62.62,0,0,0,0-1.23H8.67A.62.62,0,1,0,8.67,5a.81.81,0,0,0,.61-.29.63.63,0,0,1-.87.09.62.62,0,0,1-.09-.86L4,9.32a.62.62,0,0,1,1,.77.83.83,0,0,0,.14-.7.69.69,0,0,0-.65-.54.61.61,0,0,0-.61.61.63.63,0,0,0,.37.57,6.32,6.32,0,0,1,3.16,3.39c.86,2.21.55,5-.92,8.24a1.22,1.22,0,0,1-1.64.56,1.24,1.24,0,0,1-.59-1.56,1.34,1.34,0,0,1,.12-.24A1.23,1.23,0,0,1,6,20H6a1.23,1.23,0,0,1,.46,1.68c-.21.37-5.14,9.23-1.3,18.56,3,7.34,10.6,12.76,22.53,16.1A.62.62,0,0,1,28,55.1h0a2.47,2.47,0,0,0-2.8,3.58,2.42,2.42,0,0,0,1.48,1.16.61.61,0,1,0,.33-1.18,2.92,2.92,0,0,1-2.12-2.8,1.23,1.23,0,0,1,2.46,0,.61.61,0,0,0,1.22,0,.78.78,0,0,0-.78-.78l-.22,0a.61.61,0,0,0,.26,1.2l.16,0a.6.6,0,0,0,.39-.77.61.61,0,0,0-.75-.4,2.46,2.46,0,0,0,1.26,4.75.61.61,0,0,0,.42-.76.62.62,0,0,0-.72-.43,3,3,0,0,1-1.52,0,.62.62,0,0,1-.32,1.19,2.47,2.47,0,0,0,2.77-3.59,2.4,2.4,0,0,0-1.46-1.15.8.8,0,0,0-1,.76A2.46,2.46,0,0,0,32,56v-.1a.61.61,0,0,0-.61-.61.61.61,0,0,0-.62.61,2.89,2.89,0,0,1-2.11,2.78A.61.61,0,0,1,29,59.83a2.46,2.46,0,0,0-1.32-4.73h0A.61.61,0,0,1,28,56.28c11.93-3.34,19.51-8.75,22.53-16.1,3.84-9.32-1.09-18.18-1.3-18.56a.62.62,0,0,0-.84-.22.6.6,0,0,0-.22.83h0a2.44,2.44,0,0,0,3.33.93h0Z"/>
        <path id="logoMark_CompoundPathItem_30" data-name="logoMark CompoundPathItem 30" class="cls-2" d="M24.38,55.81v0a1.84,1.84,0,0,0,3.68,0h0A.17.17,0,0,1,28,56a.14.14,0,0,1-.15,0,1.84,1.84,0,0,1,1-3.55,3.55,3.55,0,0,0-1.83,0l-.16,0A1.85,1.85,0,0,0,27.9,56a.15.15,0,0,1-.16,0,.18.18,0,0,1-.08-.13,1.84,1.84,0,0,0,3.68,0,3.53,3.53,0,0,0-2.56-3.4c-10.68-3-17.39-7.62-19.93-13.76-3.07-7.42,1-15,1.08-15.12a2.1,2.1,0,0,0,.13-.26c2-4.33,2.28-8.17,1-11.43A10.32,10.32,0,0,0,5.65,6.32,1.84,1.84,0,1,1,4.3,9.75a.17.17,0,0,1-.1-.22l0,0A1.84,1.84,0,0,0,7,11.89l.08-.1,4.31-5.4a1.84,1.84,0,0,1-2.88-2.3A.21.21,0,0,1,8.67,4a1.85,1.85,0,1,0,0,3.69H47.05a1.85,1.85,0,1,0,0-3.69.2.2,0,0,1,.14.06,1.84,1.84,0,0,0-2.88,2.3l4.31,5.4a1.84,1.84,0,0,1,2.88-2.3h0a.17.17,0,0,1,0,.24l0,0a1.85,1.85,0,0,1-1.36-3.43,10.31,10.31,0,0,0-5.37,5.53c-1.32,3.27-1,7.11.95,11.42l.15.29c0,.05,4.14,7.7,1.08,15.11-2.55,6.14-9.25,10.77-19.94,13.75A3.53,3.53,0,0,0,24.38,55.81Zm3.55.17c11.83-3.31,19.35-8.66,22.34-15.9C54,31,49.22,22.13,49,21.76c0,0,0,0,0,0-1.53-3.37-1.83-6.24-.9-8.53a6.55,6.55,0,0,1,3.31-3.5,1.84,1.84,0,0,0-1.35-3.42,3.5,3.5,0,0,0-1.44,5.47,1.84,1.84,0,0,0,2.87-2.3l-4.31-5.4a1.84,1.84,0,0,1-2.79,2.4l-.09-.1a3.53,3.53,0,0,0,2.74,1.32,1.85,1.85,0,1,0,0-3.69H8.67a1.85,1.85,0,0,0,0,3.69,3.5,3.5,0,0,0,2.74-1.32A1.85,1.85,0,0,0,8.53,4.08L4.22,9.48a1.84,1.84,0,0,1,2.93,2.24l-.05.06a3.51,3.51,0,0,0-.56-4.94,3.46,3.46,0,0,0-.89-.52A1.85,1.85,0,0,0,4.29,9.75a6.59,6.59,0,0,1,3.32,3.49c.93,2.29.63,5.16-.89,8.52h0c0,.08-5.06,9.18-1.27,18.33C8.45,47.32,16,52.67,27.79,56a.15.15,0,0,1-.13-.15,1.84,1.84,0,0,1,3.68,0,3.52,3.52,0,0,0-4.5-3.37A1.85,1.85,0,0,1,27.92,56h-.07a1.84,1.84,0,0,0,1-3.56,3.51,3.51,0,0,0-4.31,2.47,3.57,3.57,0,0,0-.12.92,1.84,1.84,0,0,0,3.68,0,.18.18,0,0,1-.13.15Z"/>
        <path id="logoMark_CompoundPathItem_31" data-name="logoMark CompoundPathItem 31" class="cls-1" d="M23.76,55.82v0a2.45,2.45,0,0,0,4.9.2.67.67,0,0,0,0-.2.61.61,0,0,0-1.22,0h0a.44.44,0,0,1,.44-.45l.13,0A1.23,1.23,0,0,1,28.65,53,.62.62,0,0,1,29,51.85a4.35,4.35,0,0,0-2.15,0l-.18.05a2.46,2.46,0,1,0,1.43,4.71.61.61,0,0,0,.38-.78.61.61,0,0,0-.73-.4.42.42,0,0,1,.39.08.43.43,0,0,1,.17.35.62.62,0,0,0-1.23,0h0a2.46,2.46,0,0,0,4.91,0h0a4.16,4.16,0,0,0-3-4c-10.48-2.94-17-7.45-19.52-13.4-2.94-7.11,1-14.53,1.06-14.6s.09-.17.15-.3c2-4.49,2.35-8.5,1-11.93A11,11,0,0,0,5.88,5.73a.62.62,0,0,1-.45,1.15,1.23,1.23,0,0,1-.91,2.29.42.42,0,0,1,.26.29.44.44,0,0,1-.08.4.62.62,0,0,1-.86.13.61.61,0,0,1-.12-.86s0,0,0,0a2.46,2.46,0,0,0,3.84,3.07h0l4.31-5.4a.62.62,0,0,1-.86.09h0a.62.62,0,0,1-.1-.86A1.23,1.23,0,0,1,9,4.46a.44.44,0,0,1-.35.17A.62.62,0,0,0,9.28,4a.61.61,0,0,0-.62-.61,2.46,2.46,0,0,0,0,4.92H47.05a2.46,2.46,0,0,0,0-4.92.61.61,0,0,0-.62.61.62.62,0,0,0,.62.62.44.44,0,0,1-.35-.17.62.62,0,0,0,.87.1.63.63,0,0,0,.09-.87h0a2.46,2.46,0,1,0-3.9,3l.07.08,4.31,5.4a.63.63,0,0,1,.09-.87.62.62,0,0,1,.87.1h0A1.23,1.23,0,1,1,51,9.86a.44.44,0,0,1-.08-.4.5.5,0,0,1,.27-.3,1.23,1.23,0,1,1-1-2.25l.06,0a.61.61,0,0,1-.45-1.14,11,11,0,0,0-5.71,5.88c-1.38,3.43-1.06,7.44,1,11.91a3.59,3.59,0,0,0,.17.34c.16.29,3.94,7.57,1,14.57-2.46,6-9,10.47-19.52,13.4A4.16,4.16,0,0,0,23.76,55.82ZM27.11,53C38,50,44.82,45.23,47.44,38.91c3.11-7.53-.93-15.3-1.1-15.63-.05-.08-.09-.17-.13-.25-1.88-4.16-2.2-7.84-.94-11a9.68,9.68,0,0,1,5-5.2.61.61,0,0,0-.45-1.14,2.46,2.46,0,0,0,1.81,4.57.77.77,0,0,0,.46-.53A.77.77,0,0,0,52,9.09a2.45,2.45,0,1,0-3.83,3.07h0a.61.61,0,0,0,.86.09.62.62,0,0,0,.1-.85L44.79,6A1.23,1.23,0,1,1,46.7,4.46a.62.62,0,0,1,.09-.86.61.61,0,0,1,.86.09.79.79,0,0,0-.6-.29.61.61,0,0,0-.62.61.62.62,0,0,0,.62.62,1.23,1.23,0,1,1,0,2.46H8.67a1.23,1.23,0,0,1,0-2.46A.61.61,0,0,0,9.28,4a.61.61,0,0,0-.61-.61.76.76,0,0,0-.61.3,2.45,2.45,0,1,0,3.81,3.09l0,0a.61.61,0,0,0-.11-.86.62.62,0,0,0-.85.09L6.62,11.4A1.23,1.23,0,1,1,4.67,9.91l0-.05a.62.62,0,0,0-1-.77h0a.79.79,0,0,0,.13,1.11.72.72,0,0,0,.19.11A2.46,2.46,0,1,0,5.88,5.74a.61.61,0,1,0-.45,1.14h0a9.68,9.68,0,0,1,5,5.2c1.26,3.11.94,6.79-.94,11a2.12,2.12,0,0,1-.11.21c0,.08-4.31,7.94-1.11,15.67C10.9,45.23,17.74,50,28.61,53a2.91,2.91,0,0,1,2.12,2.81,1.23,1.23,0,0,1-2.45,0,.62.62,0,1,0-1.23,0h0a.85.85,0,0,0,.32.63.79.79,0,0,0,.7.12.62.62,0,0,1-.76-.42.61.61,0,0,1,.42-.76h0A1.23,1.23,0,0,1,27,53.06l.11,0a2.94,2.94,0,0,1,1.53,0,.63.63,0,0,0,.74-.47.62.62,0,0,0-.42-.72,2.46,2.46,0,0,0-1.28,4.75.8.8,0,0,0,.67-.13.79.79,0,0,0,.31-.63.61.61,0,1,0-1.22,0h0a1.23,1.23,0,0,1-2.45,0h0A2.9,2.9,0,0,1,27.11,53Z"/>
        <path id="logoMark_CompoundPathItem_32" data-name="logoMark CompoundPathItem 32" class="cls-1" d="M28.1,56.58c12-3.36,19.68-8.83,22.75-16.26,3.86-9.31-1.08-18.47-1.29-18.86a.62.62,0,1,0-.28.85.6.6,0,0,0,.3-.8c-1.45-3.2-1.75-5.91-.89-8a6,6,0,0,1,3-3.16,2.46,2.46,0,0,0-1.81-4.57,4.14,4.14,0,0,0-2.32,5.37,4,4,0,0,0,.62,1.05A2.45,2.45,0,0,0,52,9.09l-4.31-5.4a.62.62,0,0,0-1,.77,1.23,1.23,0,0,1-1.86,1.61L44.8,6a.61.61,0,1,1-1,.76,4.12,4.12,0,0,0,3.22,1.55,2.46,2.46,0,1,0,0-4.91H8.66a2.46,2.46,0,1,0,0,4.91h0a4.12,4.12,0,0,0,3.22-1.55A2.45,2.45,0,0,0,8.05,3.69h0L3.73,9.09A.63.63,0,0,1,4.6,9a.62.62,0,0,1,.09.87h0a1.24,1.24,0,0,1,.83-.46,1.23,1.23,0,0,1,1.35,1.09,1.22,1.22,0,0,1-.26.9.62.62,0,0,1,.87-.07.63.63,0,0,1,.09.84,4.13,4.13,0,0,0-.66-5.81,3.8,3.8,0,0,0-1-.61,2.46,2.46,0,0,0-1.81,4.57,6,6,0,0,1,3,3.15c.86,2.14.56,4.84-.88,8a.61.61,0,0,0,1.1.53.6.6,0,0,1-.72.3.61.61,0,0,1-.42-.72.53.53,0,0,0,0,.13.61.61,0,0,1,.08-.3c0,.09-5.23,9.42-1.31,18.88C8,47.75,15.6,53.22,27.63,56.58A.61.61,0,0,0,28,55.4a.46.46,0,0,1,.32.44,1.23,1.23,0,0,1,1.23-1.23,1.2,1.2,0,0,1,.86.36,1.19,1.19,0,0,1,.36.87.62.62,0,0,0,.59.64.62.62,0,0,0,.64-.59v0a4.12,4.12,0,0,0-4.11-4.14,4,4,0,0,0-1.19.18.61.61,0,0,1,.77.41.62.62,0,0,1-.41.77h0a1.23,1.23,0,1,1,.71,2.35l.12,0a.61.61,0,0,0-.61.62.61.61,0,0,0,.61.61.62.62,0,0,0,.62-.61h0a.62.62,0,0,0-.62-.61h0a.58.58,0,0,1,.19,0,.61.61,0,0,1,.38.78.6.6,0,0,1-.73.4A2.46,2.46,0,0,0,29,51.85a4.12,4.12,0,0,0-5.06,2.9,4,4,0,0,0-.15,1.09,2.46,2.46,0,0,0,4.91.1v-.1a.62.62,0,0,0-1.23,0,.46.46,0,0,1,.33-.45.62.62,0,0,1,.33,1.19Zm-.66-.74a1.23,1.23,0,1,1-2.45,0,2.9,2.9,0,0,1,2.9-2.9,2.78,2.78,0,0,1,.76.1A1.23,1.23,0,1,1,28,55.41h0a.62.62,0,0,1,.44.74.61.61,0,0,1-.74.44.61.61,0,0,1,.14-1.2.62.62,0,0,0-.05,1.23h.05a.69.69,0,0,0,.2,0l.08,0a2.46,2.46,0,0,0-1.46-4.69A.61.61,0,1,0,27,53.05a2.9,2.9,0,0,1,3.71,2.79.61.61,0,1,0,1.22,0v0a2.45,2.45,0,1,0-4.9-.1.17.17,0,0,0,0,.1.77.77,0,0,0,.56.74.63.63,0,0,1-.42-.76.62.62,0,0,1,.76-.43h0C16.31,52.14,8.93,46.91,6,39.85,2.34,31,7.2,22.13,7.25,22.05a.67.67,0,0,0,.08-.3.69.69,0,0,1,0,.13.61.61,0,1,0-1.2-.26A.62.62,0,0,0,7.27,22c1.59-3.52,1.89-6.55.9-9A7.3,7.3,0,0,0,4.51,9.17a1.23,1.23,0,1,1,.9-2.28,2.9,2.9,0,0,1,1.64,3.76,2.84,2.84,0,0,1-.44.75.62.62,0,0,0,1,.77A2.46,2.46,0,1,0,3.74,9.09h0a.61.61,0,1,0,1,.77L9,4.46a1.22,1.22,0,0,1,1.72-.19,1.21,1.21,0,0,1,.45.82,1.18,1.18,0,0,1-.26.9A2.86,2.86,0,0,1,8.66,7.08a1.23,1.23,0,0,1,0-2.46h38.4a1.23,1.23,0,0,1,0,2.46A2.91,2.91,0,0,1,44.8,6a.61.61,0,0,0-1,.76h0a2.46,2.46,0,0,0,3.45.39h0a2.47,2.47,0,0,0,.39-3.46.62.62,0,0,1-1,.77h0L51,9.86a1.23,1.23,0,1,1-1.89,1.56l0,0a2.88,2.88,0,0,1,.44-4.07,2.52,2.52,0,0,1,.76-.44,1.22,1.22,0,0,1,1.58.69,1.24,1.24,0,0,1-.68,1.6A7.18,7.18,0,0,0,47.56,13c-1,2.46-.69,5.49.91,9a.61.61,0,0,0,.83.25.61.61,0,0,0,.29-.75.61.61,0,0,1-1.1.53c.2.37,4.86,9,1.23,17.8C46.8,46.91,39.41,52.14,27.77,55.39a.63.63,0,0,0-.4.78.61.61,0,0,0,.73.41.76.76,0,0,0,.57-.74.61.61,0,1,0-1.22,0Z"/>
        <path id="logoMark_CompoundPathItem_33" data-name="logoMark CompoundPathItem 33" class="cls-3" d="M50.38,21.13c-1.33-2.94-1.63-5.39-.88-7.29A5,5,0,0,1,52,11.13,1.75,1.75,0,0,0,53,10a1.7,1.7,0,0,0-.3-1.46l-4.32-5.4a1.67,1.67,0,0,0-1.3-.63H8.66a1.64,1.64,0,0,0-1.3.63L3,8.53a1.67,1.67,0,0,0,.26,2.35,1.86,1.86,0,0,0,.43.25,5,5,0,0,1,2.5,2.71c.74,1.89.44,4.34-.89,7.28L5.41,21C5.19,21.39,0,30.77,4,40.61c3.17,7.71,11,13.37,23.35,16.81a1.65,1.65,0,0,1-1.22-1.61,1.67,1.67,0,0,0,2.11,1.63h0a1.83,1.83,0,0,1-.9,0h0a1.67,1.67,0,0,0,2.05-1.17,1.72,1.72,0,0,0,.06-.44,1.67,1.67,0,0,1-1.22,1.6C40.67,54,48.52,48.33,51.69,40.62c4.06-9.85-1.15-19.23-1.37-19.62A.81.81,0,0,1,50.38,21.13ZM26.22,55.81v0a1.67,1.67,0,0,1,1.67-1.68,1.61,1.61,0,0,1,.44.06,1.79,1.79,0,0,0-.89,0l-.07,0a1.67,1.67,0,0,1,2.07,1.12,2,2,0,0,1,.07.49,1.69,1.69,0,0,0-1.23-1.63C17,51.05,9.91,46.06,7.14,39.37,3.69,31.05,8.27,22.72,8.32,22.64s0-.09.07-.14c1.73-3.83,2-7.19.91-10A8.42,8.42,0,0,0,5,8a1.67,1.67,0,0,1,.94,2.17,1.86,1.86,0,0,1-.25.43L10,5.22a1.67,1.67,0,0,1-1.3.63h38.4a1.7,1.7,0,0,1-1.3-.63l4.32,5.4a1.68,1.68,0,0,1,.26-2.36A1.82,1.82,0,0,1,50.77,8a8.42,8.42,0,0,0-4.34,4.52c-1.13,2.77-.82,6.13.91,10l.07.14c.05.08,4.63,8.41,1.18,16.73C45.82,46.06,38.7,51.05,27.44,54.2A1.67,1.67,0,0,0,26.22,55.81Z"/>
        <path id="logoMark_CompoundPathItem_34" data-name="logoMark CompoundPathItem 34" class="cls-4" d="M52.09,20.35c-1.1-2.43-1.39-4.46-.85-5.85a3.18,3.18,0,0,1,1.53-1.7,3.54,3.54,0,0,0,1.86-4.64,3.33,3.33,0,0,0-.48-.81L49.83,2A3.44,3.44,0,0,0,47.09.63H8.63A3.44,3.44,0,0,0,5.89,2L1.57,7.35a3.52,3.52,0,0,0,.54,5,3.67,3.67,0,0,0,.92.53A3.29,3.29,0,0,1,4.48,14.5c.55,1.39.25,3.42-.85,5.85A1.85,1.85,0,0,1,7,21.86l0,0a1.84,1.84,0,0,0-3.2-1.82c-.24.42-5.87,10.58-1.47,21.26C5.71,49.6,14,55.62,26.89,59.23a1.84,1.84,0,1,0,1-3.55.16.16,0,0,1,.12.16,1.85,1.85,0,0,1-3.69,0h0a3.53,3.53,0,0,0,3.52,3.53,3.59,3.59,0,0,0,.93-.12A1.87,1.87,0,0,0,30.09,57a1.82,1.82,0,0,0-2.21-1.32h0A1.85,1.85,0,1,0,27,59.25h0a3.51,3.51,0,0,0,4.31-2.46,3.33,3.33,0,0,0,.13-.94,1.85,1.85,0,0,0-3.69,0,.19.19,0,0,1,.13-.18,1.85,1.85,0,0,0,1,3.56C41.75,55.62,50,49.6,53.43,41.33c4.4-10.7-1.24-20.84-1.48-21.27a1.85,1.85,0,0,0-3.25,1.76l0,.07h0a1.86,1.86,0,0,0,2.45.88A1.83,1.83,0,0,0,52.09,20.35Zm-3.35,1.54c.21.36,5,9,1.27,18-2.94,7.16-10.4,12.47-22.17,15.75a1.85,1.85,0,1,1,1,3.56h0a3.51,3.51,0,0,0,2.57-3.38,1.84,1.84,0,1,1-3.68,0,.18.18,0,0,1,.17-.17h0a1.8,1.8,0,0,1,1.1.86A1.86,1.86,0,0,1,27,59.25a3.7,3.7,0,0,0,1.84,0,1.84,1.84,0,0,1-.94-3.56h0l-.08,0a.16.16,0,0,1,.24.14,1.85,1.85,0,1,0-3.69,0,3.54,3.54,0,0,0,2.57,3.39,1.85,1.85,0,0,1,1-3.56C16.12,52.39,8.66,47.08,5.71,39.92,2,30.89,6.78,22.25,7,21.89a1.84,1.84,0,1,0-3.2-1.82,2.1,2.1,0,0,0-.15.3A1.84,1.84,0,0,0,7,21.88c1.55-3.42,1.86-6.35.93-8.73A7,7,0,0,0,4.43,9.42a.19.19,0,0,1,.05.09.16.16,0,0,1,0,.15l4.32-5.4a.17.17,0,0,1-.14.06H47.09A.16.16,0,0,1,47,4.26l4.31,5.41a.2.2,0,0,1,0-.15.17.17,0,0,1,.09-.11,7,7,0,0,0-3.51,3.74c-.93,2.38-.62,5.31.92,8.72a1.84,1.84,0,1,1,3.36-1.52L52,20.07a1.85,1.85,0,0,1-3.21,1.82Z"/>
        <path id="logoMark_PathItem_5" data-name="logoMark PathItem 5" class="cls-5" d="M48.83,21.82C44.52,12.3,51.34,9.6,51.34,9.6L47,4.21H8.69L4.38,9.6s6.82,2.7,2.51,12.23c0,0-13.74,24.25,20.94,34v0h.06v0C62.57,46.08,48.83,21.82,48.83,21.82Z"/>
        <path id="logoMark_PathItem_6" data-name="logoMark PathItem 6" class="cls-6" d="M50.48,8.59c-4.91-.48-13.43-1.08-15.56-1.1A36.11,36.11,0,0,0,23.64,8.77c-3.5,1.12-7.33,3-8.32,6.86-1.55,6.14,6.14,7.78,10.26,9.17a24.13,24.13,0,0,1,6.48,2.88c2.68,1.9,2.8,5,.25,6.86-2.14,1.6-4.9,2.15-7.48,2.58-1.31.22-2.63.37-3.94.6-3.79.66-7.67,1-11.06,3a14,14,0,0,0-2.7,2c2.37,3.77,6.49,7.44,13.33,10.38,1.37-1.77,3.7-3.58,7.69-4.91,0,0,12.55-4.29,14.38-11.63a11.12,11.12,0,0,0-5.66-12.93A34.4,34.4,0,0,0,33.41,22a43.59,43.59,0,0,0-9.23-2.22c-1.85-.33-4.85-1.62-4.59-3.92.21-1.89,2.39-3.43,4.08-4,7.07-2.73,19.85-2,26.39-1.46a5.77,5.77,0,0,1,1.28-.78Z"/>
        <path id="logoMark_CompoundPathItem_35" data-name="logoMark CompoundPathItem 35" class="cls-7" d="M36.46,23.77a38,38,0,0,0-3.54-1.66c-.61-.25-1.24-.46-1.86-.65.31.1.62.22.92.34a38.1,38.1,0,0,1,3.54,1.67,11,11,0,0,1,5.79,12.92C39.43,43.73,26.6,48,26.6,48c-4,1.31-6.4,3.09-7.8,4.83l.88.39c1.4-1.78,3.79-3.58,7.86-4.91,0,0,12.83-4.29,14.7-11.63A11,11,0,0,0,36.46,23.77Zm-15,0c1.09.37,2.16.68,3.09,1L24,24.6c-.76-.25-1.64-.51-2.56-.8Zm29-15.1-.75-.06.68.83a5.6,5.6,0,0,0-1.31.78C42.32,9.66,29.26,9,22,11.71c-1.73.53-3.95,2.07-4.17,4s2.11,3.25,4,3.75c-1.62-.62-3.23-1.76-3-3.44.22-1.89,2.44-3.44,4.17-4,7.24-2.72,20.3-2,27-1.45a6,6,0,0,1,1.31-.79Z"/>
        <path id="logoMark_CompoundPathItem_36" data-name="logoMark CompoundPathItem 36" class="cls-8" d="M49.12,21.7c-1.5-3.31-1.8-6.14-.9-8.39a6.54,6.54,0,0,1,3.24-3.43.3.3,0,0,0,.17-.4.16.16,0,0,0,0-.07L47.28,4A.33.33,0,0,0,47,3.89H8.68A.33.33,0,0,0,8.44,4L4.13,9.4a.31.31,0,0,0,0,.43l.08.05a6.45,6.45,0,0,1,3.23,3.43c.91,2.25.61,5.07-.89,8.39,0,.06-5.08,9.15-1.28,18.38,3,7.29,10.55,12.68,22.43,16a.29.29,0,0,1-.22-.3.3.3,0,0,0,.12.26.28.28,0,0,0,.27.05.17.17,0,0,1-.14,0h0a.32.32,0,0,0,.27,0,.28.28,0,0,0,.12-.25.29.29,0,0,1-.22.28c11.88-3.33,19.43-8.71,22.43-16C54.2,30.85,49.15,21.76,49.12,21.7ZM27.58,55.78v0a.33.33,0,0,1,.12-.25.29.29,0,0,1,.27,0h0a.19.19,0,0,0-.15,0h0a.29.29,0,0,1,.27,0,.3.3,0,0,1,.12.25.32.32,0,0,0-.22-.31C16.23,52.22,8.82,47,5.89,39.85,2.2,30.9,7.1,22.06,7.15,22c1.59-3.5,1.89-6.49.91-8.91A7,7,0,0,0,4.49,9.31a.3.3,0,0,1,.18.2.32.32,0,0,1-.06.27L8.92,4.39a.33.33,0,0,1-.24.12H47a.33.33,0,0,1-.24-.12l4.31,5.39a.3.3,0,0,1,0-.43l.07,0a7,7,0,0,0-3.57,3.75c-1,2.42-.68,5.41.9,8.89.06.11,5,9,1.27,17.9C46.9,47,39.49,52.22,27.8,55.49A.31.31,0,0,0,27.58,55.78Z"/>
      </g>
    </g>
  </g>
</svg>
