<svg xmlns="http://www.w3.org/2000/svg" viewBox="0 0 792 189.92"><defs><style>.cls-1{fill:#58595b;}.cls-2{fill:#f69320;}</style></defs><title>logo</title><g id="Layer_2" data-name="Layer 2"><g id="Layer_1-2" data-name="Layer 1"><path class="cls-1" d="M99.09,187.45V120.9c0-22.19-18.73-33.53-38.45-33.53-23.91,0-38.95,19-38.95,41.42,0,21.93,16,40.42,38.7,40.42,12.33,0,22.43-6.9,29.83-16.27v25.64c-8.63,6.41-17,11.34-32,11.34-34,0-58.17-28.1-58.17-62.86C0,93.29,23.17,66.67,61.13,66.67c36.48,0,59.65,22.18,59.65,56.2v64.58Z"/><path class="cls-1" d="M221.36,89.84H204.59c-20.45,0-40.67,13.31-40.67,38.45s20.22,38.46,40.67,38.46h16.77v20.7H200.65c-27.61,0-59.4-21.2-59.4-59.16S173,69.13,200.65,69.13h20.71Z"/><path class="cls-1" d="M317.24,89.84H300.48c-20.46,0-40.67,13.31-40.67,38.45s20.21,38.46,40.67,38.46h16.76v20.7h-20.7c-27.61,0-59.41-21.2-59.41-59.16s31.8-59.16,59.41-59.16h20.7Z"/><path class="cls-1" d="M368.52,148.51l-8.88-17.26,58.42-32.54c-7.39-7.39-13.56-11.34-26.87-11.34-22.43,0-38.7,16.77-38.7,40.92s16.27,40.92,38.7,40.92c25.64,0,35.25-15.28,39.69-37L452.82,135c-2.47,31.3-27.61,55-61.63,55-32.78,0-61.37-25.14-61.37-61.63s28.59-61.62,61.37-61.62c27.61,0,46.1,14.54,57.19,37.47Z"/><path class="cls-1" d="M470.57,187.45v-69c0-31.06,21.69-51.76,50.53-51.76s50.53,20.7,50.53,51.76v69H549.94v-69c0-18.24-13.31-31.06-28.84-31.06s-28.84,12.82-28.84,31.06v69Z"/><path class="cls-1" d="M661.36,89.84H619V152c0,11.09,5.18,14.79,16.27,14.79h26.13v20.7H632.27c-22.18,0-35-14.79-35-38.2V39.56H619V69.13h42.4Z"/><path class="cls-1" d="M770.31,187.45V120.9c0-22.19-18.74-33.53-38.46-33.53-23.91,0-38.94,19-38.94,41.42,0,21.93,16,40.42,38.7,40.42,12.32,0,22.43-6.9,29.83-16.27v25.64c-8.63,6.41-17,11.34-32.05,11.34-34,0-58.17-28.1-58.17-62.86,0-33.77,23.17-60.39,61.13-60.39,36.48,0,59.65,22.18,59.65,56.2v64.58Z"/><path class="cls-2" d="M376.39,44.23c-2.83,1.41-11.08-1.89-10.85-2.83,9.91-16.27,14.62-23.82,24.29-40.33.95-1.41,1.18-1.18,1.89-.71C403,7.2,413.18,12.86,422.38,18.29c1.17.47-1.42,4.48-1.42,4.48C403,31.49,394.31,36,376.39,44.23Z"/></g></g></svg>